<svg width="22" height="22" viewBox="0 0 22 22" fill="none" xmlns="http://www.w3.org/2000/svg">
<path d="M2.75 5.5H4.58333H19.25" stroke="#02000C" stroke-width="1.5" stroke-linecap="round" stroke-linejoin="round"/>
<path d="M17.4163 5.49998V18.3333C17.4163 18.8195 17.2232 19.2859 16.8794 19.6297C16.5356 19.9735 16.0692 20.1666 15.583 20.1666H6.41634C5.93011 20.1666 5.4638 19.9735 5.11998 19.6297C4.77616 19.2859 4.58301 18.8195 4.58301 18.3333V5.49998M7.33301 5.49998V3.66665C7.33301 3.18042 7.52616 2.7141 7.86998 2.37028C8.2138 2.02647 8.68011 1.83331 9.16634 1.83331H12.833C13.3192 1.83331 13.7856 2.02647 14.1294 2.37028C14.4732 2.7141 14.6663 3.18042 14.6663 3.66665V5.49998" stroke="#02000C" stroke-width="1.5" stroke-linecap="round" stroke-linejoin="round"/>
<path d="M9.16699 10.0833V15.5833" stroke="#02000C" stroke-width="1.5" stroke-linecap="round" stroke-linejoin="round"/>
<path d="M12.833 10.0833V15.5833" stroke="#02000C" stroke-width="1.5" stroke-linecap="round" stroke-linejoin="round"/>
</svg>
