<svg width="434" height="34" viewBox="0 0 434 34" fill="none" xmlns="http://www.w3.org/2000/svg">
<rect x="1" y="1" width="432" height="32" rx="2" fill="white" stroke="#E5E6EB"/>
<path d="M17.134 22V11.92H23.84V12.732H18.086V16.372H23.28V17.184H18.086V21.188H23.98V22H17.134ZM26.4066 22H25.5666V14.748H26.4066V15.756C26.7426 15.4013 27.0879 15.112 27.4426 14.888C27.8066 14.664 28.2406 14.552 28.7446 14.552C29.1926 14.552 29.6079 14.6313 29.9906 14.79C30.3733 14.9393 30.6953 15.2053 30.9566 15.588C31.1339 15.8493 31.2366 16.12 31.2646 16.4C31.3019 16.6707 31.3206 16.9553 31.3206 17.254V22H30.4806V17.268C30.4806 16.6147 30.3359 16.1247 30.0466 15.798C29.7573 15.4713 29.2766 15.308 28.6046 15.308C28.3433 15.308 28.1053 15.35 27.8906 15.434C27.6759 15.5087 27.4799 15.6113 27.3026 15.742C27.1346 15.8727 26.9899 16.022 26.8686 16.19C26.7473 16.358 26.6539 16.5353 26.5886 16.722C26.5046 16.9553 26.4533 17.1793 26.4346 17.394C26.4159 17.6087 26.4066 17.842 26.4066 18.094V22ZM35.8939 22.028C35.7912 22.0467 35.6559 22.0793 35.4879 22.126C35.3199 22.1727 35.1332 22.196 34.9279 22.196C34.5079 22.196 34.1859 22.0933 33.9619 21.888C33.7472 21.6733 33.6399 21.2953 33.6399 20.754V15.448H32.6179V14.748H33.6399V12.732H34.4799V14.748H35.8379V15.448H34.4799V20.418C34.4799 20.5953 34.4846 20.7493 34.4939 20.88C34.5032 21.0107 34.5312 21.118 34.5779 21.202C34.6246 21.286 34.6946 21.3467 34.7879 21.384C34.8906 21.4213 35.0306 21.44 35.2079 21.44C35.3199 21.44 35.4319 21.4307 35.5439 21.412C35.6652 21.3933 35.7819 21.37 35.8939 21.342V22.028ZM42.4924 17.87C42.4924 17.5153 42.441 17.184 42.3384 16.876C42.245 16.5587 42.1004 16.288 41.9044 16.064C41.7177 15.8307 41.4797 15.6487 41.1904 15.518C40.901 15.378 40.5697 15.308 40.1964 15.308C39.823 15.308 39.4917 15.378 39.2024 15.518C38.9224 15.658 38.6797 15.8447 38.4744 16.078C38.2784 16.3113 38.1197 16.582 37.9984 16.89C37.877 17.198 37.7977 17.5247 37.7604 17.87H42.4924ZM37.7604 18.57C37.7604 18.962 37.8117 19.3353 37.9144 19.69C38.017 20.0353 38.1664 20.3387 38.3624 20.6C38.5677 20.852 38.8244 21.0573 39.1324 21.216C39.4404 21.3653 39.795 21.44 40.1964 21.44C40.747 21.44 41.2184 21.2953 41.6104 21.006C42.0024 20.7167 42.2637 20.306 42.3944 19.774H43.3324C43.2297 20.1193 43.0944 20.4413 42.9264 20.74C42.7584 21.0293 42.5484 21.286 42.2964 21.51C42.0444 21.7247 41.7457 21.8927 41.4004 22.014C41.055 22.1353 40.6537 22.196 40.1964 22.196C39.6177 22.196 39.1184 22.098 38.6984 21.902C38.2784 21.706 37.933 21.44 37.6624 21.104C37.3917 20.7587 37.191 20.3573 37.0604 19.9C36.9297 19.4333 36.8644 18.934 36.8644 18.402C36.8644 17.87 36.939 17.3707 37.0884 16.904C37.247 16.4373 37.4664 16.0313 37.7464 15.686C38.0357 15.3313 38.3857 15.056 38.7964 14.86C39.207 14.6547 39.6737 14.552 40.1964 14.552C41.195 14.552 41.979 14.8973 42.5484 15.588C43.1177 16.2693 43.3977 17.2633 43.3884 18.57H37.7604ZM45.9037 22H45.0637V14.748H45.9037V16.106H45.9317C46.165 15.5273 46.4637 15.126 46.8277 14.902C47.201 14.6687 47.691 14.552 48.2977 14.552V15.462C47.8217 15.4527 47.4297 15.5273 47.1217 15.686C46.8137 15.8447 46.5663 16.0593 46.3797 16.33C46.2023 16.6007 46.0763 16.9227 46.0017 17.296C45.9363 17.66 45.9037 18.0427 45.9037 18.444V22ZM53.5243 23.974C53.6363 23.9927 53.7483 24.0113 53.8603 24.03C53.9816 24.0487 54.1029 24.058 54.2243 24.058C54.4576 24.058 54.6489 23.9833 54.7983 23.834C54.9476 23.6847 55.0689 23.5027 55.1623 23.288C55.2649 23.0827 55.3489 22.8633 55.4143 22.63C55.4796 22.406 55.5543 22.2147 55.6383 22.056L52.8243 14.748H53.7623L56.0863 20.978L58.4103 14.748H59.3203L56.6183 21.902C56.4503 22.3593 56.2869 22.77 56.1283 23.134C55.9789 23.498 55.8156 23.806 55.6383 24.058C55.4703 24.3193 55.2789 24.5153 55.0643 24.646C54.8589 24.786 54.6116 24.856 54.3223 24.856C54.1729 24.856 54.0283 24.8467 53.8883 24.828C53.7576 24.8093 53.6363 24.786 53.5243 24.758V23.974ZM63.4643 22.196C62.9976 22.1867 62.5589 22.1027 62.1483 21.944C61.7469 21.7853 61.3923 21.5473 61.0843 21.23C60.7856 20.9127 60.5476 20.516 60.3703 20.04C60.1929 19.564 60.1043 19.0087 60.1043 18.374C60.1043 17.842 60.1743 17.3473 60.3143 16.89C60.4543 16.4233 60.6643 16.0173 60.9443 15.672C61.2243 15.3267 61.5743 15.056 61.9943 14.86C62.4143 14.6547 62.9043 14.552 63.4643 14.552C64.0336 14.552 64.5283 14.6547 64.9483 14.86C65.3683 15.056 65.7183 15.3267 65.9983 15.672C66.2783 16.008 66.4836 16.4093 66.6143 16.876C66.7543 17.3427 66.8243 17.842 66.8243 18.374C66.8243 18.9527 66.7449 19.4753 66.5863 19.942C66.4276 20.4087 66.1989 20.81 65.9003 21.146C65.6109 21.482 65.2563 21.7433 64.8363 21.93C64.4256 22.1073 63.9683 22.196 63.4643 22.196ZM65.9283 18.374C65.9283 17.9447 65.8816 17.5433 65.7883 17.17C65.6949 16.7967 65.5503 16.4747 65.3543 16.204C65.1583 15.924 64.9063 15.7047 64.5983 15.546C64.2903 15.3873 63.9123 15.308 63.4643 15.308C63.0256 15.308 62.6476 15.3967 62.3303 15.574C62.0223 15.742 61.7703 15.9707 61.5743 16.26C61.3783 16.54 61.2336 16.8667 61.1403 17.24C61.0469 17.604 61.0003 17.982 61.0003 18.374C61.0003 18.822 61.0516 19.2373 61.1543 19.62C61.2663 19.9933 61.4249 20.3153 61.6303 20.586C61.8356 20.8567 62.0923 21.0667 62.4003 21.216C62.7083 21.3653 63.0629 21.44 63.4643 21.44C63.9029 21.44 64.2763 21.356 64.5843 21.188C64.9016 21.0107 65.1583 20.7773 65.3543 20.488C65.5503 20.1987 65.6949 19.872 65.7883 19.508C65.8816 19.144 65.9283 18.766 65.9283 18.374ZM73.2736 14.748H74.1136V22H73.2736V20.992C73.1616 21.1227 73.0356 21.258 72.8956 21.398C72.7556 21.538 72.5922 21.6687 72.4056 21.79C72.2282 21.902 72.0182 21.9953 71.7756 22.07C71.5329 22.154 71.2529 22.196 70.9356 22.196C70.4502 22.196 70.0442 22.1307 69.7176 22C69.3909 21.86 69.1249 21.6687 68.9196 21.426C68.7236 21.1833 68.5789 20.9033 68.4856 20.586C68.4016 20.2593 68.3596 19.9047 68.3596 19.522V14.748H69.1996V19.508C69.1996 20.1333 69.3442 20.614 69.6336 20.95C69.9229 21.2767 70.3989 21.44 71.0616 21.44C71.4069 21.44 71.7149 21.3747 71.9856 21.244C72.2656 21.104 72.4989 20.9127 72.6856 20.67C72.8722 20.4273 73.0169 20.138 73.1196 19.802C73.2222 19.466 73.2736 19.0973 73.2736 18.696V14.748ZM77.0209 22H76.1809V14.748H77.0209V16.106H77.0489C77.2822 15.5273 77.5809 15.126 77.9449 14.902C78.3182 14.6687 78.8082 14.552 79.4149 14.552V15.462C78.9389 15.4527 78.5469 15.5273 78.2389 15.686C77.9309 15.8447 77.6835 16.0593 77.4969 16.33C77.3195 16.6007 77.1935 16.9227 77.1189 17.296C77.0535 17.66 77.0209 18.0427 77.0209 18.444V22ZM89.9475 17.87C89.9475 17.5153 89.8961 17.184 89.7935 16.876C89.7001 16.5587 89.5555 16.288 89.3595 16.064C89.1728 15.8307 88.9348 15.6487 88.6455 15.518C88.3561 15.378 88.0248 15.308 87.6515 15.308C87.2781 15.308 86.9468 15.378 86.6575 15.518C86.3775 15.658 86.1348 15.8447 85.9295 16.078C85.7335 16.3113 85.5748 16.582 85.4535 16.89C85.3321 17.198 85.2528 17.5247 85.2155 17.87H89.9475ZM85.2155 18.57C85.2155 18.962 85.2668 19.3353 85.3695 19.69C85.4721 20.0353 85.6215 20.3387 85.8175 20.6C86.0228 20.852 86.2795 21.0573 86.5875 21.216C86.8955 21.3653 87.2501 21.44 87.6515 21.44C88.2021 21.44 88.6735 21.2953 89.0655 21.006C89.4575 20.7167 89.7188 20.306 89.8495 19.774H90.7875C90.6848 20.1193 90.5495 20.4413 90.3815 20.74C90.2135 21.0293 90.0035 21.286 89.7515 21.51C89.4995 21.7247 89.2008 21.8927 88.8555 22.014C88.5101 22.1353 88.1088 22.196 87.6515 22.196C87.0728 22.196 86.5735 22.098 86.1535 21.902C85.7335 21.706 85.3881 21.44 85.1175 21.104C84.8468 20.7587 84.6461 20.3573 84.5155 19.9C84.3848 19.4333 84.3195 18.934 84.3195 18.402C84.3195 17.87 84.3941 17.3707 84.5435 16.904C84.7021 16.4373 84.9215 16.0313 85.2015 15.686C85.4908 15.3313 85.8408 15.056 86.2515 14.86C86.6621 14.6547 87.1288 14.552 87.6515 14.552C88.6501 14.552 89.4341 14.8973 90.0035 15.588C90.5728 16.2693 90.8528 17.2633 90.8435 18.57H85.2155ZM93.2048 22H92.3648V14.748H93.2048V15.84H93.2328C93.4474 15.42 93.7554 15.1027 94.1568 14.888C94.5581 14.664 94.9968 14.552 95.4728 14.552C95.8088 14.552 96.0934 14.5893 96.3268 14.664C96.5601 14.7387 96.7561 14.8413 96.9148 14.972C97.0828 15.0933 97.2181 15.238 97.3208 15.406C97.4328 15.574 97.5261 15.756 97.6008 15.952C97.8434 15.476 98.1654 15.126 98.5668 14.902C98.9774 14.6687 99.4441 14.552 99.9668 14.552C100.461 14.552 100.853 14.636 101.143 14.804C101.441 14.9627 101.67 15.1773 101.829 15.448C101.987 15.7093 102.09 16.0127 102.137 16.358C102.193 16.7033 102.221 17.058 102.221 17.422V22H101.381V16.988C101.381 16.4653 101.269 16.0547 101.045 15.756C100.83 15.4573 100.424 15.308 99.8268 15.308C99.5188 15.308 99.2201 15.378 98.9308 15.518C98.6508 15.6487 98.4034 15.854 98.1888 16.134C98.0954 16.2553 98.0161 16.4 97.9508 16.568C97.8948 16.7267 97.8481 16.8947 97.8108 17.072C97.7734 17.2493 97.7454 17.4267 97.7268 17.604C97.7174 17.7813 97.7128 17.9447 97.7128 18.094V22H96.8728V16.988C96.8728 16.4653 96.7608 16.0547 96.5368 15.756C96.3221 15.4573 95.9161 15.308 95.3188 15.308C95.0108 15.308 94.7121 15.378 94.4228 15.518C94.1428 15.6487 93.8954 15.854 93.6808 16.134C93.5874 16.2553 93.5081 16.4 93.4428 16.568C93.3868 16.7267 93.3401 16.8947 93.3028 17.072C93.2654 17.2493 93.2374 17.4267 93.2188 17.604C93.2094 17.7813 93.2048 17.9447 93.2048 18.094V22ZM108.885 18.192C108.53 18.3413 108.171 18.4393 107.807 18.486C107.443 18.5327 107.079 18.57 106.715 18.598C106.071 18.6447 105.567 18.7893 105.203 19.032C104.848 19.2747 104.671 19.6433 104.671 20.138C104.671 20.362 104.713 20.558 104.797 20.726C104.89 20.8847 105.007 21.02 105.147 21.132C105.296 21.2347 105.464 21.314 105.651 21.37C105.847 21.4167 106.043 21.44 106.239 21.44C106.575 21.44 106.902 21.398 107.219 21.314C107.536 21.23 107.816 21.104 108.059 20.936C108.311 20.7587 108.512 20.5393 108.661 20.278C108.81 20.0073 108.885 19.69 108.885 19.326V18.192ZM107.471 17.772C107.63 17.7533 107.816 17.7253 108.031 17.688C108.255 17.6507 108.437 17.5993 108.577 17.534C108.717 17.4687 108.801 17.3613 108.829 17.212C108.866 17.0533 108.885 16.9087 108.885 16.778C108.885 16.3487 108.745 15.9987 108.465 15.728C108.194 15.448 107.732 15.308 107.079 15.308C106.79 15.308 106.524 15.336 106.281 15.392C106.038 15.4387 105.824 15.5273 105.637 15.658C105.46 15.7793 105.31 15.9473 105.189 16.162C105.077 16.3673 105.002 16.6287 104.965 16.946H104.111C104.139 16.5167 104.237 16.1527 104.405 15.854C104.573 15.546 104.788 15.2987 105.049 15.112C105.32 14.916 105.628 14.776 105.973 14.692C106.328 14.5987 106.701 14.552 107.093 14.552C107.457 14.552 107.798 14.594 108.115 14.678C108.442 14.7527 108.722 14.8787 108.955 15.056C109.198 15.224 109.384 15.4527 109.515 15.742C109.655 16.0313 109.725 16.386 109.725 16.806V20.754C109.725 21.0807 109.781 21.2907 109.893 21.384C110.014 21.468 110.252 21.4447 110.607 21.314V21.972C110.542 21.9907 110.444 22.0187 110.313 22.056C110.192 22.0933 110.07 22.112 109.949 22.112C109.818 22.112 109.692 22.098 109.571 22.07C109.431 22.0513 109.319 22.0093 109.235 21.944C109.151 21.8693 109.081 21.7853 109.025 21.692C108.978 21.5893 108.946 21.482 108.927 21.37C108.908 21.2487 108.899 21.1227 108.899 20.992C108.544 21.384 108.138 21.6827 107.681 21.888C107.224 22.0933 106.729 22.196 106.197 22.196C105.88 22.196 105.572 22.154 105.273 22.07C104.984 21.986 104.727 21.8553 104.503 21.678C104.279 21.5007 104.102 21.286 103.971 21.034C103.84 20.7727 103.775 20.4647 103.775 20.11C103.775 18.878 104.62 18.15 106.309 17.926L107.471 17.772ZM111.798 22V14.748H112.638V22H111.798ZM111.756 13.166V11.92H112.68V13.166H111.756ZM114.902 22V11.92H115.742V22H114.902ZM126.522 18.192C126.167 18.3413 125.808 18.4393 125.444 18.486C125.08 18.5327 124.716 18.57 124.352 18.598C123.708 18.6447 123.204 18.7893 122.84 19.032C122.485 19.2747 122.308 19.6433 122.308 20.138C122.308 20.362 122.35 20.558 122.434 20.726C122.527 20.8847 122.644 21.02 122.784 21.132C122.933 21.2347 123.101 21.314 123.288 21.37C123.484 21.4167 123.68 21.44 123.876 21.44C124.212 21.44 124.538 21.398 124.856 21.314C125.173 21.23 125.453 21.104 125.696 20.936C125.948 20.7587 126.148 20.5393 126.298 20.278C126.447 20.0073 126.522 19.69 126.522 19.326V18.192ZM125.108 17.772C125.266 17.7533 125.453 17.7253 125.668 17.688C125.892 17.6507 126.074 17.5993 126.214 17.534C126.354 17.4687 126.438 17.3613 126.466 17.212C126.503 17.0533 126.522 16.9087 126.522 16.778C126.522 16.3487 126.382 15.9987 126.102 15.728C125.831 15.448 125.369 15.308 124.716 15.308C124.426 15.308 124.16 15.336 123.918 15.392C123.675 15.4387 123.46 15.5273 123.274 15.658C123.096 15.7793 122.947 15.9473 122.826 16.162C122.714 16.3673 122.639 16.6287 122.602 16.946H121.748C121.776 16.5167 121.874 16.1527 122.042 15.854C122.21 15.546 122.424 15.2987 122.686 15.112C122.956 14.916 123.264 14.776 123.61 14.692C123.964 14.5987 124.338 14.552 124.73 14.552C125.094 14.552 125.434 14.594 125.752 14.678C126.078 14.7527 126.358 14.8787 126.592 15.056C126.834 15.224 127.021 15.4527 127.152 15.742C127.292 16.0313 127.362 16.386 127.362 16.806V20.754C127.362 21.0807 127.418 21.2907 127.53 21.384C127.651 21.468 127.889 21.4447 128.244 21.314V21.972C128.178 21.9907 128.08 22.0187 127.95 22.056C127.828 22.0933 127.707 22.112 127.586 22.112C127.455 22.112 127.329 22.098 127.208 22.07C127.068 22.0513 126.956 22.0093 126.872 21.944C126.788 21.8693 126.718 21.7853 126.662 21.692C126.615 21.5893 126.582 21.482 126.564 21.37C126.545 21.2487 126.536 21.1227 126.536 20.992C126.181 21.384 125.775 21.6827 125.318 21.888C124.86 22.0933 124.366 22.196 123.834 22.196C123.516 22.196 123.208 22.154 122.91 22.07C122.62 21.986 122.364 21.8553 122.14 21.678C121.916 21.5007 121.738 21.286 121.608 21.034C121.477 20.7727 121.412 20.4647 121.412 20.11C121.412 18.878 122.256 18.15 123.946 17.926L125.108 17.772ZM135.155 18.346C135.155 17.9353 135.099 17.548 134.987 17.184C134.875 16.8107 134.712 16.4887 134.497 16.218C134.292 15.938 134.035 15.7187 133.727 15.56C133.428 15.392 133.088 15.308 132.705 15.308C132.266 15.308 131.888 15.3967 131.571 15.574C131.254 15.742 130.992 15.9753 130.787 16.274C130.582 16.5727 130.432 16.9227 130.339 17.324C130.246 17.716 130.208 18.1407 130.227 18.598C130.227 19.0553 130.288 19.4613 130.409 19.816C130.54 20.1613 130.717 20.4553 130.941 20.698C131.165 20.9407 131.426 21.1273 131.725 21.258C132.024 21.3793 132.35 21.44 132.705 21.44C133.097 21.44 133.447 21.3607 133.755 21.202C134.063 21.0433 134.32 20.8287 134.525 20.558C134.73 20.278 134.884 19.9513 134.987 19.578C135.099 19.1953 135.155 18.7847 135.155 18.346ZM135.155 11.92H135.995V22H135.155V20.726H135.127C135.006 20.9687 134.847 21.1833 134.651 21.37C134.464 21.5473 134.254 21.6967 134.021 21.818C133.797 21.9393 133.564 22.0327 133.321 22.098C133.078 22.1633 132.84 22.196 132.607 22.196C132.019 22.196 131.52 22.098 131.109 21.902C130.698 21.706 130.358 21.44 130.087 21.104C129.826 20.7587 129.634 20.3527 129.513 19.886C129.392 19.4193 129.331 18.92 129.331 18.388C129.331 17.884 129.396 17.3987 129.527 16.932C129.658 16.4653 129.854 16.0593 130.115 15.714C130.386 15.3593 130.722 15.0793 131.123 14.874C131.534 14.6593 132.014 14.552 132.565 14.552C133.078 14.552 133.568 14.6687 134.035 14.902C134.511 15.126 134.884 15.462 135.155 15.91V11.92ZM143.713 18.346C143.713 17.9353 143.657 17.548 143.545 17.184C143.433 16.8107 143.27 16.4887 143.055 16.218C142.85 15.938 142.593 15.7187 142.285 15.56C141.987 15.392 141.646 15.308 141.263 15.308C140.825 15.308 140.447 15.3967 140.129 15.574C139.812 15.742 139.551 15.9753 139.345 16.274C139.14 16.5727 138.991 16.9227 138.897 17.324C138.804 17.716 138.767 18.1407 138.785 18.598C138.785 19.0553 138.846 19.4613 138.967 19.816C139.098 20.1613 139.275 20.4553 139.499 20.698C139.723 20.9407 139.985 21.1273 140.283 21.258C140.582 21.3793 140.909 21.44 141.263 21.44C141.655 21.44 142.005 21.3607 142.313 21.202C142.621 21.0433 142.878 20.8287 143.083 20.558C143.289 20.278 143.443 19.9513 143.545 19.578C143.657 19.1953 143.713 18.7847 143.713 18.346ZM143.713 11.92H144.553V22H143.713V20.726H143.685C143.564 20.9687 143.405 21.1833 143.209 21.37C143.023 21.5473 142.813 21.6967 142.579 21.818C142.355 21.9393 142.122 22.0327 141.879 22.098C141.637 22.1633 141.399 22.196 141.165 22.196C140.577 22.196 140.078 22.098 139.667 21.902C139.257 21.706 138.916 21.44 138.645 21.104C138.384 20.7587 138.193 20.3527 138.071 19.886C137.95 19.4193 137.889 18.92 137.889 18.388C137.889 17.884 137.955 17.3987 138.085 16.932C138.216 16.4653 138.412 16.0593 138.673 15.714C138.944 15.3593 139.28 15.0793 139.681 14.874C140.092 14.6593 140.573 14.552 141.123 14.552C141.637 14.552 142.127 14.6687 142.593 14.902C143.069 15.126 143.443 15.462 143.713 15.91V11.92ZM147.554 22H146.714V14.748H147.554V16.106H147.582C147.815 15.5273 148.114 15.126 148.478 14.902C148.851 14.6687 149.341 14.552 149.948 14.552V15.462C149.472 15.4527 149.08 15.5273 148.772 15.686C148.464 15.8447 148.217 16.0593 148.03 16.33C147.853 16.6007 147.727 16.9227 147.652 17.296C147.587 17.66 147.554 18.0427 147.554 18.444V22ZM156.338 17.87C156.338 17.5153 156.287 17.184 156.184 16.876C156.091 16.5587 155.946 16.288 155.75 16.064C155.563 15.8307 155.325 15.6487 155.036 15.518C154.747 15.378 154.415 15.308 154.042 15.308C153.669 15.308 153.337 15.378 153.048 15.518C152.768 15.658 152.525 15.8447 152.32 16.078C152.124 16.3113 151.965 16.582 151.844 16.89C151.723 17.198 151.643 17.5247 151.606 17.87H156.338ZM151.606 18.57C151.606 18.962 151.657 19.3353 151.76 19.69C151.863 20.0353 152.012 20.3387 152.208 20.6C152.413 20.852 152.67 21.0573 152.978 21.216C153.286 21.3653 153.641 21.44 154.042 21.44C154.593 21.44 155.064 21.2953 155.456 21.006C155.848 20.7167 156.109 20.306 156.24 19.774H157.178C157.075 20.1193 156.94 20.4413 156.772 20.74C156.604 21.0293 156.394 21.286 156.142 21.51C155.89 21.7247 155.591 21.8927 155.246 22.014C154.901 22.1353 154.499 22.196 154.042 22.196C153.463 22.196 152.964 22.098 152.544 21.902C152.124 21.706 151.779 21.44 151.508 21.104C151.237 20.7587 151.037 20.3573 150.906 19.9C150.775 19.4333 150.71 18.934 150.71 18.402C150.71 17.87 150.785 17.3707 150.934 16.904C151.093 16.4373 151.312 16.0313 151.592 15.686C151.881 15.3313 152.231 15.056 152.642 14.86C153.053 14.6547 153.519 14.552 154.042 14.552C155.041 14.552 155.825 14.8973 156.394 15.588C156.963 16.2693 157.243 17.2633 157.234 18.57H151.606ZM159.357 19.732C159.488 20.3573 159.721 20.8007 160.057 21.062C160.403 21.314 160.893 21.44 161.527 21.44C161.835 21.44 162.101 21.4027 162.325 21.328C162.549 21.2533 162.731 21.1553 162.871 21.034C163.021 20.9033 163.133 20.7587 163.207 20.6C163.282 20.4413 163.319 20.2733 163.319 20.096C163.319 19.7413 163.203 19.48 162.969 19.312C162.745 19.1347 162.461 18.9993 162.115 18.906C161.77 18.8033 161.397 18.7193 160.995 18.654C160.594 18.5793 160.221 18.472 159.875 18.332C159.53 18.192 159.241 17.9913 159.007 17.73C158.783 17.4687 158.671 17.1 158.671 16.624C158.671 16.0173 158.891 15.5227 159.329 15.14C159.777 14.748 160.407 14.552 161.219 14.552C162.003 14.552 162.638 14.7293 163.123 15.084C163.618 15.4293 163.917 16.0127 164.019 16.834H163.165C163.091 16.274 162.876 15.882 162.521 15.658C162.176 15.4247 161.737 15.308 161.205 15.308C160.673 15.308 160.267 15.4247 159.987 15.658C159.707 15.882 159.567 16.1807 159.567 16.554C159.567 16.8807 159.679 17.1327 159.903 17.31C160.137 17.478 160.426 17.618 160.771 17.73C161.117 17.8327 161.49 17.926 161.891 18.01C162.293 18.094 162.666 18.2153 163.011 18.374C163.357 18.5233 163.641 18.7287 163.865 18.99C164.099 19.2513 164.215 19.6153 164.215 20.082C164.215 20.4273 164.141 20.7353 163.991 21.006C163.842 21.2673 163.637 21.4867 163.375 21.664C163.114 21.8413 162.801 21.972 162.437 22.056C162.083 22.1493 161.691 22.196 161.261 22.196C160.832 22.196 160.449 22.1307 160.113 22C159.787 21.8787 159.507 21.706 159.273 21.482C159.04 21.258 158.858 20.9967 158.727 20.698C158.597 20.3993 158.522 20.0773 158.503 19.732H159.357ZM166.357 19.732C166.488 20.3573 166.721 20.8007 167.057 21.062C167.403 21.314 167.893 21.44 168.527 21.44C168.835 21.44 169.101 21.4027 169.325 21.328C169.549 21.2533 169.731 21.1553 169.871 21.034C170.021 20.9033 170.133 20.7587 170.207 20.6C170.282 20.4413 170.319 20.2733 170.319 20.096C170.319 19.7413 170.203 19.48 169.969 19.312C169.745 19.1347 169.461 18.9993 169.115 18.906C168.77 18.8033 168.397 18.7193 167.995 18.654C167.594 18.5793 167.221 18.472 166.875 18.332C166.53 18.192 166.241 17.9913 166.007 17.73C165.783 17.4687 165.671 17.1 165.671 16.624C165.671 16.0173 165.891 15.5227 166.329 15.14C166.777 14.748 167.407 14.552 168.219 14.552C169.003 14.552 169.638 14.7293 170.123 15.084C170.618 15.4293 170.917 16.0127 171.019 16.834H170.165C170.091 16.274 169.876 15.882 169.521 15.658C169.176 15.4247 168.737 15.308 168.205 15.308C167.673 15.308 167.267 15.4247 166.987 15.658C166.707 15.882 166.567 16.1807 166.567 16.554C166.567 16.8807 166.679 17.1327 166.903 17.31C167.137 17.478 167.426 17.618 167.771 17.73C168.117 17.8327 168.49 17.926 168.891 18.01C169.293 18.094 169.666 18.2153 170.011 18.374C170.357 18.5233 170.641 18.7287 170.865 18.99C171.099 19.2513 171.215 19.6153 171.215 20.082C171.215 20.4273 171.141 20.7353 170.991 21.006C170.842 21.2673 170.637 21.4867 170.375 21.664C170.114 21.8413 169.801 21.972 169.437 22.056C169.083 22.1493 168.691 22.196 168.261 22.196C167.832 22.196 167.449 22.1307 167.113 22C166.787 21.8787 166.507 21.706 166.273 21.482C166.04 21.258 165.858 20.9967 165.727 20.698C165.597 20.3993 165.522 20.0773 165.503 19.732H166.357ZM173.287 22V20.768H174.309V22H173.287ZM177.184 22V20.768H178.206V22H177.184ZM181.08 22V20.768H182.102V22H181.08Z" fill="#86909C"/>
<path fill-rule="evenodd" clip-rule="evenodd" d="M417.308 20.0776L418.933 21.7029L419.64 20.9958L416.517 17.8727C416.665 17.6158 416.75 17.3178 416.75 17C416.75 16.0335 415.966 15.25 415 15.25C414.682 15.25 414.384 15.3347 414.127 15.4828L411.067 12.4221L410.359 13.1292L411.793 14.5628C411.193 15.1123 410.614 15.867 410.075 16.7366L409.912 17L410.075 17.2635C411.457 19.4931 413.09 20.75 415 20.75C415.812 20.75 416.584 20.5201 417.308 20.0776ZM416.575 19.345L415.791 18.5612C415.554 18.682 415.285 18.75 415 18.75C414.033 18.75 413.25 17.9665 413.25 17C413.25 16.7152 413.318 16.4462 413.439 16.2085L412.501 15.2707C412.043 15.6826 411.566 16.2699 411.092 16.9996C412.346 18.9163 413.656 19.75 415 19.75C415.537 19.75 416.06 19.619 416.575 19.345ZM414.98 17.7498C414.582 17.7394 414.261 17.4183 414.25 17.0199L414.98 17.7498ZM415.743 17.099C415.748 17.0666 415.75 17.0336 415.75 17C415.75 16.5858 415.414 16.25 415 16.25C414.966 16.25 414.933 16.2522 414.901 16.2565L415.743 17.099ZM414.984 13.25L415 13.25C416.91 13.25 418.543 14.507 419.925 16.7366L420.088 17L419.925 17.2635C419.468 18.0003 418.987 18.6271 418.479 19.1377L417.77 18.4326C418.155 18.0454 418.535 17.5692 418.907 17C417.654 15.0836 416.344 14.25 415 14.25C414.711 14.25 414.439 14.2512 414.196 14.2905C413.95 14.3302 413.801 14.3991 413.715 14.4828L413.016 13.7673C413.315 13.476 413.701 13.3574 414.036 13.3033C414.366 13.25 414.712 13.25 414.984 13.25Z" fill="#86909C"/>
</svg>
