<svg width="1440" height="72" viewBox="0 0 1440 72" fill="none" xmlns="http://www.w3.org/2000/svg">
<rect width="1440" height="72" fill="white"/>
<g clip-path="url(#clip0_800_5976)">
<path d="M82.3516 41.0566V43H75.2129V41.0566H82.3516ZM75.8965 28.7812V43H73.4453V28.7812H75.8965ZM83.5625 37.834V37.6094C83.5625 36.8477 83.6732 36.1413 83.8945 35.4902C84.1159 34.8327 84.4349 34.263 84.8516 33.7812C85.2747 33.293 85.7891 32.9154 86.3945 32.6484C87.0065 32.375 87.6966 32.2383 88.4648 32.2383C89.2396 32.2383 89.9297 32.375 90.5352 32.6484C91.1471 32.9154 91.6647 33.293 92.0879 33.7812C92.5111 34.263 92.8333 34.8327 93.0547 35.4902C93.276 36.1413 93.3867 36.8477 93.3867 37.6094V37.834C93.3867 38.5957 93.276 39.3021 93.0547 39.9531C92.8333 40.6042 92.5111 41.1738 92.0879 41.6621C91.6647 42.1439 91.1504 42.5215 90.5449 42.7949C89.9395 43.0618 89.2526 43.1953 88.4844 43.1953C87.7096 43.1953 87.0163 43.0618 86.4043 42.7949C85.7988 42.5215 85.2845 42.1439 84.8613 41.6621C84.4382 41.1738 84.1159 40.6042 83.8945 39.9531C83.6732 39.3021 83.5625 38.5957 83.5625 37.834ZM85.916 37.6094V37.834C85.916 38.3092 85.9648 38.7585 86.0625 39.1816C86.1602 39.6048 86.3132 39.9759 86.5215 40.2949C86.7298 40.6139 86.9967 40.8646 87.3223 41.0469C87.6478 41.2292 88.0352 41.3203 88.4844 41.3203C88.9206 41.3203 89.2982 41.2292 89.6172 41.0469C89.9427 40.8646 90.2096 40.6139 90.418 40.2949C90.6263 39.9759 90.7793 39.6048 90.877 39.1816C90.9811 38.7585 91.0332 38.3092 91.0332 37.834V37.6094C91.0332 37.1406 90.9811 36.6979 90.877 36.2812C90.7793 35.8581 90.623 35.4837 90.4082 35.1582C90.1999 34.8327 89.9329 34.5788 89.6074 34.3965C89.2884 34.2077 88.9076 34.1133 88.4648 34.1133C88.0221 34.1133 87.638 34.2077 87.3125 34.3965C86.9935 34.5788 86.7298 34.8327 86.5215 35.1582C86.3132 35.4837 86.1602 35.8581 86.0625 36.2812C85.9648 36.6979 85.916 37.1406 85.916 37.6094ZM102.127 32.4336H104.266V42.707C104.266 43.6576 104.064 44.4648 103.66 45.1289C103.257 45.793 102.693 46.2975 101.971 46.6426C101.248 46.9941 100.411 47.1699 99.4609 47.1699C99.0573 47.1699 98.6081 47.1113 98.1133 46.9941C97.625 46.877 97.1497 46.6882 96.6875 46.4277C96.2318 46.1738 95.8509 45.8385 95.5449 45.4219L96.6484 44.0352C97.026 44.4844 97.4427 44.8132 97.8984 45.0215C98.3542 45.2298 98.8327 45.334 99.334 45.334C99.8743 45.334 100.333 45.2331 100.711 45.0312C101.095 44.8359 101.391 44.5462 101.6 44.1621C101.808 43.778 101.912 43.3092 101.912 42.7559V34.8262L102.127 32.4336ZM94.9492 37.834V37.6289C94.9492 36.8281 95.0469 36.099 95.2422 35.4414C95.4375 34.7773 95.7174 34.2077 96.082 33.7324C96.4466 33.2507 96.8893 32.8828 97.4102 32.6289C97.931 32.3685 98.5202 32.2383 99.1777 32.2383C99.8613 32.2383 100.444 32.362 100.926 32.6094C101.414 32.8568 101.821 33.2116 102.146 33.6738C102.472 34.1296 102.726 34.6764 102.908 35.3145C103.097 35.946 103.237 36.6491 103.328 37.4238V38.0781C103.243 38.8333 103.1 39.5234 102.898 40.1484C102.697 40.7734 102.43 41.3138 102.098 41.7695C101.766 42.2253 101.355 42.5768 100.867 42.8242C100.385 43.0716 99.8158 43.1953 99.1582 43.1953C98.5137 43.1953 97.931 43.0618 97.4102 42.7949C96.8958 42.528 96.4531 42.1536 96.082 41.6719C95.7174 41.1901 95.4375 40.6237 95.2422 39.9727C95.0469 39.3151 94.9492 38.6022 94.9492 37.834ZM97.3027 37.6289V37.834C97.3027 38.3158 97.3483 38.765 97.4395 39.1816C97.5371 39.5983 97.6836 39.9661 97.8789 40.2852C98.0807 40.5977 98.3346 40.8451 98.6406 41.0273C98.9531 41.2031 99.321 41.291 99.7441 41.291C100.298 41.291 100.75 41.1738 101.102 40.9395C101.46 40.7051 101.733 40.3893 101.922 39.9922C102.117 39.5885 102.254 39.1393 102.332 38.6445V36.877C102.293 36.4928 102.212 36.1348 102.088 35.8027C101.971 35.4707 101.811 35.181 101.609 34.9336C101.408 34.6797 101.154 34.4844 100.848 34.3477C100.542 34.2044 100.18 34.1328 99.7637 34.1328C99.3405 34.1328 98.9727 34.224 98.6602 34.4062C98.3477 34.5885 98.0905 34.8392 97.8887 35.1582C97.6934 35.4772 97.5469 35.8483 97.4492 36.2715C97.3516 36.6947 97.3027 37.1471 97.3027 37.6289ZM106.258 37.834V37.6094C106.258 36.8477 106.368 36.1413 106.59 35.4902C106.811 34.8327 107.13 34.263 107.547 33.7812C107.97 33.293 108.484 32.9154 109.09 32.6484C109.702 32.375 110.392 32.2383 111.16 32.2383C111.935 32.2383 112.625 32.375 113.23 32.6484C113.842 32.9154 114.36 33.293 114.783 33.7812C115.206 34.263 115.529 34.8327 115.75 35.4902C115.971 36.1413 116.082 36.8477 116.082 37.6094V37.834C116.082 38.5957 115.971 39.3021 115.75 39.9531C115.529 40.6042 115.206 41.1738 114.783 41.6621C114.36 42.1439 113.846 42.5215 113.24 42.7949C112.635 43.0618 111.948 43.1953 111.18 43.1953C110.405 43.1953 109.712 43.0618 109.1 42.7949C108.494 42.5215 107.98 42.1439 107.557 41.6621C107.133 41.1738 106.811 40.6042 106.59 39.9531C106.368 39.3021 106.258 38.5957 106.258 37.834ZM108.611 37.6094V37.834C108.611 38.3092 108.66 38.7585 108.758 39.1816C108.855 39.6048 109.008 39.9759 109.217 40.2949C109.425 40.6139 109.692 40.8646 110.018 41.0469C110.343 41.2292 110.73 41.3203 111.18 41.3203C111.616 41.3203 111.993 41.2292 112.312 41.0469C112.638 40.8646 112.905 40.6139 113.113 40.2949C113.322 39.9759 113.475 39.6048 113.572 39.1816C113.676 38.7585 113.729 38.3092 113.729 37.834V37.6094C113.729 37.1406 113.676 36.6979 113.572 36.2812C113.475 35.8581 113.318 35.4837 113.104 35.1582C112.895 34.8327 112.628 34.5788 112.303 34.3965C111.984 34.2077 111.603 34.1133 111.16 34.1133C110.717 34.1133 110.333 34.2077 110.008 34.3965C109.689 34.5788 109.425 34.8327 109.217 35.1582C109.008 35.4837 108.855 35.8581 108.758 36.2812C108.66 36.6979 108.611 37.1406 108.611 37.6094ZM134.549 28.7812V43H132.098L125.721 32.8145V43H123.27V28.7812H125.721L132.117 38.9863V28.7812H134.549ZM143.191 40.8809V35.8418C143.191 35.4642 143.123 35.1387 142.986 34.8652C142.85 34.5918 142.641 34.3802 142.361 34.2305C142.088 34.0807 141.743 34.0059 141.326 34.0059C140.942 34.0059 140.61 34.071 140.33 34.2012C140.05 34.3314 139.832 34.5072 139.676 34.7285C139.52 34.9499 139.441 35.2005 139.441 35.4805H137.098C137.098 35.0638 137.199 34.6602 137.4 34.2695C137.602 33.8789 137.895 33.5306 138.279 33.2246C138.663 32.9186 139.122 32.6777 139.656 32.502C140.19 32.3262 140.789 32.2383 141.453 32.2383C142.247 32.2383 142.951 32.3717 143.562 32.6387C144.181 32.9056 144.666 33.3092 145.018 33.8496C145.376 34.3835 145.555 35.054 145.555 35.8613V40.5586C145.555 41.0404 145.587 41.4733 145.652 41.8574C145.724 42.235 145.825 42.5638 145.955 42.8438V43H143.543C143.432 42.7461 143.344 42.4238 143.279 42.0332C143.221 41.6361 143.191 41.252 143.191 40.8809ZM143.533 36.5742L143.553 38.0293H141.863C141.427 38.0293 141.043 38.0716 140.711 38.1562C140.379 38.2344 140.102 38.3516 139.881 38.5078C139.66 38.6641 139.493 38.8529 139.383 39.0742C139.272 39.2956 139.217 39.5462 139.217 39.8262C139.217 40.1061 139.282 40.3633 139.412 40.5977C139.542 40.8255 139.731 41.0046 139.979 41.1348C140.232 41.265 140.538 41.3301 140.896 41.3301C141.378 41.3301 141.798 41.2324 142.156 41.0371C142.521 40.8353 142.807 40.5911 143.016 40.3047C143.224 40.0117 143.335 39.735 143.348 39.4746L144.109 40.5195C144.031 40.7865 143.898 41.0729 143.709 41.3789C143.52 41.6849 143.273 41.9779 142.967 42.2578C142.667 42.5312 142.306 42.7559 141.883 42.9316C141.466 43.1074 140.984 43.1953 140.438 43.1953C139.747 43.1953 139.132 43.0586 138.592 42.7852C138.051 42.5052 137.628 42.1309 137.322 41.6621C137.016 41.1868 136.863 40.6497 136.863 40.0508C136.863 39.4909 136.967 38.9961 137.176 38.5664C137.391 38.1302 137.703 37.7656 138.113 37.4727C138.53 37.1797 139.038 36.9583 139.637 36.8086C140.236 36.6523 140.919 36.5742 141.688 36.5742H143.533ZM150.369 34.582V43H148.016V32.4336H150.232L150.369 34.582ZM149.988 37.3262L149.188 37.3164C149.188 36.5872 149.279 35.9134 149.461 35.2949C149.643 34.6764 149.91 34.1393 150.262 33.6836C150.613 33.2214 151.049 32.8665 151.57 32.6191C152.098 32.3652 152.706 32.2383 153.396 32.2383C153.878 32.2383 154.318 32.3099 154.715 32.4531C155.118 32.5898 155.467 32.8079 155.76 33.1074C156.059 33.4069 156.287 33.791 156.443 34.2598C156.606 34.7285 156.688 35.2949 156.688 35.959V43H154.334V36.1641C154.334 35.6497 154.256 35.2461 154.1 34.9531C153.95 34.6602 153.732 34.4518 153.445 34.3281C153.165 34.1979 152.83 34.1328 152.439 34.1328C151.997 34.1328 151.619 34.2174 151.307 34.3867C151.001 34.556 150.75 34.7871 150.555 35.0801C150.359 35.373 150.216 35.7116 150.125 36.0957C150.034 36.4798 149.988 36.89 149.988 37.3262ZM156.541 36.7012L155.438 36.9453C155.438 36.3073 155.525 35.7051 155.701 35.1387C155.883 34.5658 156.147 34.0645 156.492 33.6348C156.844 33.1986 157.277 32.8568 157.791 32.6094C158.305 32.362 158.895 32.2383 159.559 32.2383C160.099 32.2383 160.581 32.3132 161.004 32.4629C161.434 32.6061 161.798 32.834 162.098 33.1465C162.397 33.459 162.625 33.8659 162.781 34.3672C162.938 34.862 163.016 35.4609 163.016 36.1641V43H160.652V36.1543C160.652 35.6204 160.574 35.207 160.418 34.9141C160.268 34.6211 160.053 34.4193 159.773 34.3086C159.493 34.1914 159.158 34.1328 158.768 34.1328C158.403 34.1328 158.081 34.2012 157.801 34.3379C157.527 34.4681 157.296 34.6536 157.107 34.8945C156.919 35.1289 156.775 35.3991 156.678 35.7051C156.587 36.0111 156.541 36.3431 156.541 36.7012ZM170.096 43.1953C169.314 43.1953 168.608 43.0684 167.977 42.8145C167.352 42.554 166.818 42.1927 166.375 41.7305C165.939 41.2682 165.604 40.7246 165.369 40.0996C165.135 39.4746 165.018 38.8008 165.018 38.0781V37.6875C165.018 36.8607 165.138 36.112 165.379 35.4414C165.62 34.7708 165.955 34.1979 166.385 33.7227C166.814 33.2409 167.322 32.873 167.908 32.6191C168.494 32.3652 169.129 32.2383 169.812 32.2383C170.568 32.2383 171.229 32.3652 171.795 32.6191C172.361 32.873 172.83 33.2311 173.201 33.6934C173.579 34.1491 173.859 34.6927 174.041 35.3242C174.23 35.9557 174.324 36.6523 174.324 37.4141V38.4199H166.16V36.7305H172V36.5449C171.987 36.1217 171.902 35.7246 171.746 35.3535C171.596 34.9824 171.365 34.6829 171.053 34.4551C170.74 34.2272 170.324 34.1133 169.803 34.1133C169.412 34.1133 169.064 34.1979 168.758 34.3672C168.458 34.5299 168.208 34.7676 168.006 35.0801C167.804 35.3926 167.648 35.7702 167.537 36.2129C167.433 36.6491 167.381 37.1406 167.381 37.6875V38.0781C167.381 38.5404 167.443 38.9701 167.566 39.3672C167.697 39.7578 167.885 40.0996 168.133 40.3926C168.38 40.6855 168.68 40.9167 169.031 41.0859C169.383 41.2487 169.783 41.3301 170.232 41.3301C170.799 41.3301 171.303 41.2161 171.746 40.9883C172.189 40.7604 172.573 40.4382 172.898 40.0215L174.139 41.2227C173.911 41.5547 173.615 41.8737 173.25 42.1797C172.885 42.4792 172.439 42.7233 171.912 42.9121C171.391 43.1009 170.786 43.1953 170.096 43.1953Z" fill="black" fill-opacity="0.85"/>
</g>
<path d="M1198.37 44.9814C1197.7 43.3856 1196.72 41.936 1195.5 40.7135C1194.27 39.4875 1192.82 38.51 1191.23 37.8349C1191.21 37.8278 1191.2 37.8242 1191.18 37.8171C1193.41 36.2099 1194.86 33.5921 1194.86 30.6385C1194.86 25.7457 1190.89 21.7814 1186 21.7814C1181.11 21.7814 1177.14 25.7457 1177.14 30.6385C1177.14 33.5921 1178.59 36.2099 1180.81 37.8207C1180.8 37.8278 1180.78 37.8314 1180.77 37.8385C1179.17 38.5135 1177.73 39.4814 1176.5 40.7171C1175.28 41.9405 1174.3 43.3898 1173.62 44.9849C1172.96 46.5466 1172.6 48.2208 1172.57 49.9171C1172.57 49.9552 1172.58 49.9931 1172.59 50.0286C1172.6 50.0641 1172.62 50.0965 1172.65 50.1238C1172.68 50.1511 1172.71 50.1727 1172.75 50.1875C1172.78 50.2023 1172.82 50.21 1172.86 50.21H1175C1175.16 50.21 1175.28 50.085 1175.28 49.9314C1175.36 47.1742 1176.46 44.5921 1178.42 42.6349C1180.45 40.6099 1183.13 39.4957 1186 39.4957C1188.86 39.4957 1191.55 40.6099 1193.58 42.6349C1195.53 44.5921 1196.64 47.1742 1196.71 49.9314C1196.72 50.0885 1196.84 50.21 1197 50.21H1199.14C1199.18 50.21 1199.22 50.2023 1199.25 50.1875C1199.29 50.1727 1199.32 50.1511 1199.35 50.1238C1199.37 50.0965 1199.39 50.0641 1199.41 50.0286C1199.42 49.9931 1199.43 49.9552 1199.43 49.9171C1199.39 48.2099 1199.04 46.5492 1198.37 44.9814ZM1186 36.7814C1184.36 36.7814 1182.82 36.1421 1181.66 34.9814C1180.5 33.8207 1179.86 32.2778 1179.86 30.6385C1179.86 28.9992 1180.5 27.4564 1181.66 26.2957C1182.82 25.1349 1184.36 24.4957 1186 24.4957C1187.64 24.4957 1189.18 25.1349 1190.34 26.2957C1191.5 27.4564 1192.14 28.9992 1192.14 30.6385C1192.14 32.2778 1191.5 33.8207 1190.34 34.9814C1189.18 36.1421 1187.64 36.7814 1186 36.7814Z" fill="#141414"/>
<path d="M1220.46 38.4844C1220.46 38.252 1220.42 38.0469 1220.35 37.8691C1220.28 37.6868 1220.16 37.5228 1219.98 37.377C1219.81 37.2311 1219.57 37.0921 1219.26 36.96C1218.95 36.8278 1218.56 36.6934 1218.09 36.5566C1217.6 36.4108 1217.16 36.249 1216.76 36.0713C1216.37 35.889 1216.03 35.6816 1215.74 35.4492C1215.46 35.2168 1215.24 34.9502 1215.09 34.6494C1214.94 34.3486 1214.87 34.0046 1214.87 33.6172C1214.87 33.2298 1214.95 32.8721 1215.11 32.5439C1215.27 32.2158 1215.49 31.931 1215.79 31.6895C1216.09 31.4434 1216.45 31.252 1216.86 31.1152C1217.28 30.9785 1217.74 30.9102 1218.25 30.9102C1219 30.9102 1219.63 31.0537 1220.15 31.3408C1220.68 31.6234 1221.08 31.9948 1221.35 32.4551C1221.62 32.9108 1221.76 33.3984 1221.76 33.918H1220.45C1220.45 33.5443 1220.37 33.2139 1220.21 32.9268C1220.05 32.6351 1219.81 32.4072 1219.48 32.2432C1219.16 32.0745 1218.75 31.9902 1218.25 31.9902C1217.78 31.9902 1217.4 32.0609 1217.09 32.2021C1216.78 32.3434 1216.56 32.5348 1216.41 32.7764C1216.26 33.0179 1216.19 33.2936 1216.19 33.6035C1216.19 33.8132 1216.23 34.0046 1216.32 34.1777C1216.41 34.3464 1216.55 34.5036 1216.73 34.6494C1216.93 34.7952 1217.17 34.9297 1217.46 35.0527C1217.76 35.1758 1218.11 35.2943 1218.52 35.4082C1219.08 35.5677 1219.57 35.7454 1219.98 35.9414C1220.39 36.1374 1220.73 36.3584 1220.99 36.6045C1221.26 36.846 1221.46 37.1217 1221.59 37.4316C1221.72 37.737 1221.79 38.0833 1221.79 38.4707C1221.79 38.8763 1221.7 39.2432 1221.54 39.5713C1221.38 39.8994 1221.14 40.1797 1220.84 40.4121C1220.53 40.6445 1220.16 40.8245 1219.74 40.9521C1219.31 41.0752 1218.84 41.1367 1218.31 41.1367C1217.85 41.1367 1217.4 41.0729 1216.95 40.9453C1216.51 40.8177 1216.11 40.6263 1215.74 40.3711C1215.38 40.1159 1215.09 39.8014 1214.88 39.4277C1214.66 39.0495 1214.55 38.612 1214.55 38.1152H1215.87C1215.87 38.457 1215.93 38.751 1216.06 38.9971C1216.2 39.2386 1216.38 39.4391 1216.6 39.5986C1216.84 39.7581 1217.1 39.8766 1217.39 39.9541C1217.69 40.027 1217.99 40.0635 1218.31 40.0635C1218.77 40.0635 1219.16 39.9997 1219.48 39.8721C1219.8 39.7445 1220.04 39.5622 1220.21 39.3252C1220.38 39.0882 1220.46 38.8079 1220.46 38.4844ZM1224.65 33.6035V41H1223.38V33.6035H1224.65ZM1223.28 31.6416C1223.28 31.4365 1223.34 31.2633 1223.47 31.1221C1223.6 30.9808 1223.78 30.9102 1224.03 30.9102C1224.27 30.9102 1224.45 30.9808 1224.58 31.1221C1224.71 31.2633 1224.78 31.4365 1224.78 31.6416C1224.78 31.8376 1224.71 32.0062 1224.58 32.1475C1224.45 32.2842 1224.27 32.3525 1224.03 32.3525C1223.78 32.3525 1223.6 32.2842 1223.47 32.1475C1223.34 32.0062 1223.28 31.8376 1223.28 31.6416ZM1231.47 33.6035H1232.62V40.8428C1232.62 41.4945 1232.49 42.0505 1232.22 42.5107C1231.96 42.971 1231.59 43.3197 1231.12 43.5566C1230.65 43.7982 1230.11 43.9189 1229.49 43.9189C1229.24 43.9189 1228.93 43.8779 1228.59 43.7959C1228.25 43.7184 1227.91 43.584 1227.58 43.3926C1227.25 43.2057 1226.97 42.9528 1226.75 42.6338L1227.41 41.8818C1227.72 42.2555 1228.05 42.5153 1228.38 42.6611C1228.72 42.807 1229.06 42.8799 1229.39 42.8799C1229.8 42.8799 1230.14 42.8047 1230.43 42.6543C1230.73 42.5039 1230.95 42.2806 1231.11 41.9844C1231.27 41.6927 1231.36 41.3327 1231.36 40.9043V35.2305L1231.47 33.6035ZM1226.38 37.3838V37.2402C1226.38 36.6751 1226.45 36.1624 1226.58 35.7021C1226.71 35.2373 1226.91 34.8385 1227.16 34.5059C1227.41 34.1732 1227.72 33.918 1228.08 33.7402C1228.44 33.5579 1228.85 33.4668 1229.3 33.4668C1229.76 33.4668 1230.17 33.5488 1230.52 33.7129C1230.87 33.8724 1231.16 34.1071 1231.4 34.417C1231.65 34.7223 1231.84 35.0915 1231.99 35.5244C1232.13 35.9574 1232.22 36.4473 1232.28 36.9941V37.623C1232.23 38.1654 1232.13 38.653 1231.99 39.0859C1231.84 39.5189 1231.65 39.888 1231.4 40.1934C1231.16 40.4987 1230.87 40.7334 1230.52 40.8975C1230.16 41.057 1229.75 41.1367 1229.29 41.1367C1228.84 41.1367 1228.44 41.0433 1228.08 40.8564C1227.73 40.6696 1227.42 40.4076 1227.17 40.0703C1226.91 39.7331 1226.71 39.3366 1226.58 38.8809C1226.45 38.4206 1226.38 37.9215 1226.38 37.3838ZM1227.64 37.2402V37.3838C1227.64 37.7529 1227.68 38.0993 1227.75 38.4229C1227.83 38.7464 1227.95 39.0312 1228.1 39.2773C1228.26 39.5234 1228.46 39.7171 1228.71 39.8584C1228.96 39.9951 1229.25 40.0635 1229.59 40.0635C1230.01 40.0635 1230.36 39.9746 1230.63 39.7969C1230.91 39.6191 1231.12 39.3844 1231.28 39.0928C1231.45 38.8011 1231.57 38.4844 1231.66 38.1426V36.4951C1231.61 36.2445 1231.54 36.0029 1231.43 35.7705C1231.33 35.5335 1231.2 35.3239 1231.04 35.1416C1230.88 34.9548 1230.68 34.8066 1230.44 34.6973C1230.2 34.5879 1229.93 34.5332 1229.61 34.5332C1229.26 34.5332 1228.96 34.6061 1228.71 34.752C1228.46 34.8932 1228.26 35.0892 1228.1 35.3398C1227.95 35.5859 1227.83 35.873 1227.75 36.2012C1227.68 36.5247 1227.64 36.8711 1227.64 37.2402ZM1235.81 35.1826V41H1234.54V33.6035H1235.74L1235.81 35.1826ZM1235.51 37.0215L1234.98 37.001C1234.98 36.4951 1235.06 36.028 1235.21 35.5996C1235.35 35.1667 1235.56 34.7907 1235.82 34.4717C1236.08 34.1527 1236.4 33.9066 1236.76 33.7334C1237.13 33.5557 1237.54 33.4668 1237.99 33.4668C1238.35 33.4668 1238.68 33.5169 1238.97 33.6172C1239.26 33.7129 1239.51 33.8678 1239.72 34.082C1239.93 34.2962 1240.09 34.5742 1240.2 34.916C1240.3 35.2533 1240.36 35.6657 1240.36 36.1533V41H1239.09V36.1396C1239.09 35.7523 1239.03 35.4424 1238.92 35.21C1238.8 34.973 1238.64 34.8021 1238.42 34.6973C1238.2 34.5879 1237.93 34.5332 1237.61 34.5332C1237.3 34.5332 1237.01 34.5993 1236.75 34.7314C1236.49 34.8636 1236.27 35.0459 1236.09 35.2783C1235.9 35.5107 1235.76 35.7773 1235.66 36.0781C1235.56 36.3743 1235.51 36.6888 1235.51 37.0215ZM1247.36 31.0469V41H1246.04V31.0469H1247.36ZM1250.83 35.1826V41H1249.57V33.6035H1250.76L1250.83 35.1826ZM1250.53 37.0215L1250 37.001C1250.01 36.4951 1250.08 36.028 1250.23 35.5996C1250.38 35.1667 1250.58 34.7907 1250.85 34.4717C1251.11 34.1527 1251.42 33.9066 1251.79 33.7334C1252.16 33.5557 1252.57 33.4668 1253.01 33.4668C1253.38 33.4668 1253.71 33.5169 1254 33.6172C1254.29 33.7129 1254.54 33.8678 1254.74 34.082C1254.95 34.2962 1255.11 34.5742 1255.22 34.916C1255.33 35.2533 1255.38 35.6657 1255.38 36.1533V41H1254.11V36.1396C1254.11 35.7523 1254.06 35.4424 1253.94 35.21C1253.83 34.973 1253.66 34.8021 1253.44 34.6973C1253.22 34.5879 1252.96 34.5332 1252.64 34.5332C1252.32 34.5332 1252.04 34.5993 1251.78 34.7314C1251.52 34.8636 1251.3 35.0459 1251.11 35.2783C1250.93 35.5107 1250.79 35.7773 1250.68 36.0781C1250.58 36.3743 1250.53 36.6888 1250.53 37.0215Z" fill="#141414"/>
<path d="M1317.84 41.9344H1299.23L1300.17 40.0312L1315.69 40.0031C1316.22 40.0031 1316.67 39.6281 1316.76 39.1094L1318.91 27.075C1318.97 26.7594 1318.88 26.4344 1318.68 26.1875C1318.57 26.066 1318.45 25.9681 1318.3 25.9007C1318.16 25.8332 1318 25.7978 1317.85 25.7969L1298.1 25.7312L1297.93 24.9375C1297.82 24.4312 1297.36 24.0625 1296.85 24.0625H1292.02C1291.72 24.0625 1291.44 24.1787 1291.24 24.3856C1291.03 24.5925 1290.91 24.8731 1290.91 25.1656C1290.91 25.4582 1291.03 25.7388 1291.24 25.9457C1291.44 26.1525 1291.72 26.2687 1292.02 26.2687H1295.95L1296.69 29.775L1298.5 38.5656L1296.17 42.3812C1296.05 42.5451 1295.97 42.7396 1295.96 42.9429C1295.94 43.1461 1295.98 43.3499 1296.07 43.5312C1296.26 43.9031 1296.64 44.1375 1297.06 44.1375H1299.02C1298.6 44.6932 1298.38 45.37 1298.38 46.0656C1298.38 47.8344 1299.81 49.2719 1301.58 49.2719C1303.35 49.2719 1304.79 47.8344 1304.79 46.0656C1304.79 45.3687 1304.56 44.6906 1304.15 44.1375H1309.18C1308.76 44.6932 1308.54 45.37 1308.54 46.0656C1308.54 47.8344 1309.97 49.2719 1311.74 49.2719C1313.51 49.2719 1314.95 47.8344 1314.95 46.0656C1314.95 45.3687 1314.72 44.6906 1314.3 44.1375H1317.85C1318.45 44.1375 1318.95 43.6437 1318.95 43.0344C1318.95 42.7421 1318.83 42.4624 1318.62 42.2564C1318.41 42.0503 1318.13 41.9345 1317.84 41.9344ZM1298.55 27.9062L1316.55 27.9656L1314.79 37.8344L1300.65 37.8594L1298.55 27.9062ZM1301.58 47.0531C1301.04 47.0531 1300.6 46.6094 1300.6 46.0656C1300.6 45.5219 1301.04 45.0781 1301.58 45.0781C1302.13 45.0781 1302.57 45.5219 1302.57 46.0656C1302.57 46.3275 1302.47 46.5787 1302.28 46.7639C1302.1 46.9491 1301.84 47.0531 1301.58 47.0531ZM1311.74 47.0531C1311.2 47.0531 1310.75 46.6094 1310.75 46.0656C1310.75 45.5219 1311.2 45.0781 1311.74 45.0781C1312.29 45.0781 1312.73 45.5219 1312.73 46.0656C1312.73 46.3275 1312.63 46.5787 1312.44 46.7639C1312.26 46.9491 1312 47.0531 1311.74 47.0531Z" fill="#141414"/>
<path d="M1340.16 37.835H1341.48C1341.41 38.4639 1341.23 39.0267 1340.94 39.5234C1340.64 40.0202 1340.23 40.4144 1339.7 40.7061C1339.17 40.9932 1338.5 41.1367 1337.7 41.1367C1337.12 41.1367 1336.59 41.0273 1336.11 40.8086C1335.64 40.5898 1335.23 40.2799 1334.89 39.8789C1334.54 39.4733 1334.28 38.988 1334.09 38.4229C1333.91 37.8532 1333.82 37.2197 1333.82 36.5225V35.5312C1333.82 34.834 1333.91 34.2028 1334.09 33.6377C1334.28 33.068 1334.55 32.5804 1334.89 32.1748C1335.24 31.7692 1335.67 31.457 1336.16 31.2383C1336.65 31.0195 1337.2 30.9102 1337.82 30.9102C1338.57 30.9102 1339.21 31.0514 1339.73 31.334C1340.25 31.6165 1340.65 32.0085 1340.94 32.5098C1341.23 33.0065 1341.41 33.583 1341.48 34.2393H1340.16C1340.1 33.7744 1339.98 33.3757 1339.81 33.043C1339.64 32.7057 1339.39 32.446 1339.07 32.2637C1338.75 32.0814 1338.33 31.9902 1337.82 31.9902C1337.38 31.9902 1336.99 32.0745 1336.65 32.2432C1336.32 32.4118 1336.04 32.651 1335.81 32.9609C1335.59 33.2708 1335.42 33.6423 1335.3 34.0752C1335.19 34.5081 1335.13 34.9889 1335.13 35.5176V36.5225C1335.13 37.0101 1335.18 37.4681 1335.28 37.8965C1335.39 38.3249 1335.55 38.7008 1335.75 39.0244C1335.96 39.348 1336.23 39.6032 1336.55 39.79C1336.88 39.9723 1337.26 40.0635 1337.7 40.0635C1338.26 40.0635 1338.71 39.9746 1339.04 39.7969C1339.38 39.6191 1339.63 39.3639 1339.79 39.0312C1339.97 38.6986 1340.09 38.2998 1340.16 37.835ZM1347.44 39.7354V35.9277C1347.44 35.6361 1347.39 35.3831 1347.27 35.1689C1347.15 34.9502 1346.98 34.7816 1346.75 34.6631C1346.51 34.5446 1346.23 34.4854 1345.89 34.4854C1345.57 34.4854 1345.29 34.54 1345.04 34.6494C1344.81 34.7588 1344.62 34.9023 1344.48 35.0801C1344.35 35.2578 1344.29 35.4492 1344.29 35.6543H1343.02C1343.02 35.39 1343.09 35.1279 1343.23 34.8682C1343.36 34.6084 1343.56 34.3737 1343.81 34.1641C1344.07 33.9499 1344.38 33.7812 1344.74 33.6582C1345.11 33.5306 1345.51 33.4668 1345.96 33.4668C1346.5 33.4668 1346.97 33.5579 1347.38 33.7402C1347.8 33.9225 1348.12 34.1982 1348.35 34.5674C1348.59 34.932 1348.71 35.39 1348.71 35.9414V39.3867C1348.71 39.6328 1348.73 39.8949 1348.77 40.1729C1348.82 40.4508 1348.88 40.6901 1348.97 40.8906V41H1347.65C1347.59 40.8542 1347.54 40.6605 1347.5 40.4189C1347.46 40.1729 1347.44 39.945 1347.44 39.7354ZM1347.66 36.5156L1347.68 37.4043H1346.4C1346.04 37.4043 1345.72 37.4339 1345.43 37.4932C1345.15 37.5479 1344.92 37.6322 1344.72 37.7461C1344.53 37.86 1344.39 38.0036 1344.29 38.1768C1344.19 38.3454 1344.14 38.5436 1344.14 38.7715C1344.14 39.0039 1344.19 39.2158 1344.29 39.4072C1344.4 39.5986 1344.56 39.7513 1344.76 39.8652C1344.98 39.9746 1345.24 40.0293 1345.55 40.0293C1345.94 40.0293 1346.28 39.9473 1346.58 39.7832C1346.87 39.6191 1347.11 39.4186 1347.28 39.1816C1347.46 38.9447 1347.55 38.7145 1347.57 38.4912L1348.11 39.0996C1348.08 39.291 1347.99 39.5029 1347.85 39.7354C1347.71 39.9678 1347.52 40.1911 1347.28 40.4053C1347.05 40.6149 1346.77 40.7904 1346.45 40.9316C1346.13 41.0684 1345.77 41.1367 1345.37 41.1367C1344.86 41.1367 1344.43 41.0387 1344.05 40.8428C1343.67 40.6468 1343.38 40.3848 1343.17 40.0566C1342.97 39.724 1342.86 39.3525 1342.86 38.9424C1342.86 38.5459 1342.94 38.1973 1343.1 37.8965C1343.25 37.5911 1343.47 37.3382 1343.77 37.1377C1344.06 36.9326 1344.41 36.7777 1344.82 36.6729C1345.23 36.568 1345.69 36.5156 1346.19 36.5156H1347.66ZM1351.96 34.7656V41H1350.7V33.6035H1351.93L1351.96 34.7656ZM1354.27 33.5625L1354.27 34.7383C1354.16 34.7155 1354.06 34.7018 1353.97 34.6973C1353.87 34.6882 1353.77 34.6836 1353.65 34.6836C1353.36 34.6836 1353.1 34.7292 1352.88 34.8203C1352.66 34.9115 1352.47 35.0391 1352.31 35.2031C1352.16 35.3672 1352.03 35.5632 1351.94 35.791C1351.86 36.0143 1351.8 36.2604 1351.77 36.5293L1351.42 36.7344C1351.42 36.2878 1351.46 35.8685 1351.55 35.4766C1351.64 35.0846 1351.78 34.7383 1351.96 34.4375C1352.15 34.1322 1352.39 33.8952 1352.67 33.7266C1352.97 33.5534 1353.31 33.4668 1353.71 33.4668C1353.8 33.4668 1353.91 33.4782 1354.03 33.501C1354.15 33.5192 1354.23 33.5397 1354.27 33.5625ZM1358.88 33.6035V34.5742H1354.88V33.6035H1358.88ZM1356.24 31.8057H1357.5V39.168C1357.5 39.4186 1357.54 39.6077 1357.62 39.7354C1357.69 39.863 1357.79 39.9473 1357.92 39.9883C1358.04 40.0293 1358.17 40.0498 1358.31 40.0498C1358.42 40.0498 1358.53 40.0407 1358.64 40.0225C1358.76 39.9997 1358.85 39.9814 1358.91 39.9678L1358.92 41C1358.81 41.0319 1358.68 41.0615 1358.52 41.0889C1358.36 41.1208 1358.17 41.1367 1357.94 41.1367C1357.63 41.1367 1357.34 41.0752 1357.08 40.9521C1356.82 40.8291 1356.62 40.624 1356.46 40.3369C1356.31 40.0452 1356.24 39.6533 1356.24 39.1611V31.8057Z" fill="#141414"/>
<defs>
<clipPath id="clip0_800_5976">
<rect width="115" height="28" fill="white" transform="translate(72 22)"/>
</clipPath>
</defs>
</svg>
