<svg width="32" height="32" viewBox="0 0 32 32" fill="none" xmlns="http://www.w3.org/2000/svg">
<path d="M28.8421 21.9344H10.2328L11.1671 20.0312L26.6921 20.0031C27.2171 20.0031 27.6671 19.6281 27.7609 19.1094L29.9109 7.075C29.9671 6.75937 29.8827 6.43437 29.6765 6.1875C29.5746 6.066 29.4474 5.96813 29.3039 5.90068C29.1603 5.83323 29.0038 5.79781 28.8453 5.79687L9.09525 5.73125L8.9265 4.9375C8.82025 4.43125 8.364 4.0625 7.84525 4.0625H3.01713C2.72456 4.0625 2.44398 4.17872 2.2371 4.3856C2.03022 4.59247 1.914 4.87306 1.914 5.16562C1.914 5.45819 2.03022 5.73878 2.2371 5.94565C2.44398 6.15253 2.72456 6.26875 3.01713 6.26875H6.9515L7.689 9.775L9.50463 18.5656L7.16713 22.3812C7.04574 22.5451 6.97262 22.7396 6.95605 22.9429C6.93949 23.1461 6.98013 23.3499 7.07338 23.5312C7.26088 23.9031 7.639 24.1375 8.05775 24.1375H10.0203C9.60187 24.6932 9.37589 25.37 9.3765 26.0656C9.3765 27.8344 10.814 29.2719 12.5828 29.2719C14.3515 29.2719 15.789 27.8344 15.789 26.0656C15.789 25.3687 15.5578 24.6906 15.1453 24.1375H20.1796C19.7612 24.6932 19.5353 25.37 19.5359 26.0656C19.5359 27.8344 20.9734 29.2719 22.7421 29.2719C24.5109 29.2719 25.9484 27.8344 25.9484 26.0656C25.9484 25.3687 25.7171 24.6906 25.3046 24.1375H28.8453C29.4515 24.1375 29.9484 23.6437 29.9484 23.0344C29.9466 22.7421 29.8292 22.4624 29.622 22.2564C29.4147 22.0503 29.1344 21.9345 28.8421 21.9344ZM9.55463 7.90625L27.5484 7.96562L25.7859 17.8344L11.6515 17.8594L9.55463 7.90625ZM12.5828 27.0531C12.039 27.0531 11.5953 26.6094 11.5953 26.0656C11.5953 25.5219 12.039 25.0781 12.5828 25.0781C13.1265 25.0781 13.5703 25.5219 13.5703 26.0656C13.5703 26.3275 13.4662 26.5787 13.281 26.7639C13.0958 26.9491 12.8447 27.0531 12.5828 27.0531ZM22.7421 27.0531C22.1984 27.0531 21.7546 26.6094 21.7546 26.0656C21.7546 25.5219 22.1984 25.0781 22.7421 25.0781C23.2859 25.0781 23.7296 25.5219 23.7296 26.0656C23.7296 26.3275 23.6256 26.5787 23.4404 26.7639C23.2552 26.9491 23.004 27.0531 22.7421 27.0531Z" fill="#141414"/>
</svg>
