<svg width="22" height="22" viewBox="0 0 22 22" fill="none" xmlns="http://www.w3.org/2000/svg">
<path d="M14.6667 2.75H0.916656V14.6667H14.6667V2.75Z" stroke="#141414" stroke-width="1.5" stroke-linecap="round" stroke-linejoin="round"/>
<path d="M14.6667 7.33337H18.3333L21.0833 10.0834V14.6667H14.6667V7.33337Z" stroke="#141414" stroke-width="1.5" stroke-linecap="round" stroke-linejoin="round"/>
<path d="M5.04167 19.25C6.30732 19.25 7.33333 18.2239 7.33333 16.9583C7.33333 15.6926 6.30732 14.6666 5.04167 14.6666C3.77601 14.6666 2.75 15.6926 2.75 16.9583C2.75 18.2239 3.77601 19.25 5.04167 19.25Z" stroke="#141414" stroke-width="1.5" stroke-linecap="round" stroke-linejoin="round"/>
<path d="M16.9583 19.25C18.224 19.25 19.25 18.2239 19.25 16.9583C19.25 15.6926 18.224 14.6666 16.9583 14.6666C15.6927 14.6666 14.6667 15.6926 14.6667 16.9583C14.6667 18.2239 15.6927 19.25 16.9583 19.25Z" stroke="#141414" stroke-width="1.5" stroke-linecap="round" stroke-linejoin="round"/>
</svg>
