<svg width="32" height="32" viewBox="0 0 32 32" fill="none" xmlns="http://www.w3.org/2000/svg">
<path d="M28.374 24.9814C27.7003 23.3856 26.7226 21.936 25.4954 20.7135C24.2719 19.4875 22.8227 18.51 21.2275 17.8349C21.2133 17.8278 21.199 17.8242 21.1847 17.8171C23.4097 16.2099 24.8561 13.5921 24.8561 10.6385C24.8561 5.74566 20.8918 1.78137 15.999 1.78137C11.1061 1.78137 7.14183 5.74566 7.14183 10.6385C7.14183 13.5921 8.58826 16.2099 10.8133 17.8207C10.799 17.8278 10.7847 17.8314 10.7704 17.8385C9.1704 18.5135 7.73469 19.4814 6.50254 20.7171C5.27651 21.9405 4.29899 23.3898 3.62397 24.9849C2.96084 26.5466 2.60319 28.2208 2.5704 29.9171C2.56945 29.9552 2.57613 29.9931 2.59007 30.0286C2.604 30.0641 2.62489 30.0965 2.65152 30.1238C2.67814 30.1511 2.70996 30.1727 2.7451 30.1875C2.78024 30.2023 2.81799 30.21 2.85612 30.21H4.99897C5.15612 30.21 5.28112 30.085 5.28469 29.9314C5.35612 27.1742 6.46326 24.5921 8.4204 22.6349C10.4454 20.6099 13.1347 19.4957 15.999 19.4957C18.8633 19.4957 21.5525 20.6099 23.5775 22.6349C25.5347 24.5921 26.6418 27.1742 26.7133 29.9314C26.7168 30.0885 26.8418 30.21 26.999 30.21H29.1418C29.18 30.21 29.2177 30.2023 29.2528 30.1875C29.288 30.1727 29.3198 30.1511 29.3464 30.1238C29.3731 30.0965 29.3939 30.0641 29.4079 30.0286C29.4218 29.9931 29.4285 29.9552 29.4275 29.9171C29.3918 28.2099 29.0383 26.5492 28.374 24.9814ZM15.999 16.7814C14.3597 16.7814 12.8168 16.1421 11.6561 14.9814C10.4954 13.8207 9.85612 12.2778 9.85612 10.6385C9.85612 8.99923 10.4954 7.45637 11.6561 6.29566C12.8168 5.13494 14.3597 4.49566 15.999 4.49566C17.6383 4.49566 19.1811 5.13494 20.3418 6.29566C21.5025 7.45637 22.1418 8.99923 22.1418 10.6385C22.1418 12.2778 21.5025 13.8207 20.3418 14.9814C19.1811 16.1421 17.6383 16.7814 15.999 16.7814Z" fill="#141414"/>
</svg>
