<svg width="22" height="22" viewBox="0 0 22 22" fill="none" xmlns="http://www.w3.org/2000/svg">
<path d="M21.6504 20.1773L14.6942 13.2211C15.7736 11.8255 16.3575 10.1193 16.3575 8.32465C16.3575 6.17644 15.5192 4.16215 14.0031 2.6434C12.487 1.12465 10.4674 0.28894 8.32183 0.28894C6.1763 0.28894 4.15665 1.12733 2.64058 2.6434C1.12183 4.15948 0.286118 6.17644 0.286118 8.32465C0.286118 10.4702 1.12451 12.4898 2.64058 14.0059C4.15665 15.5247 6.17362 16.3604 8.32183 16.3604C10.1165 16.3604 11.82 15.7764 13.2156 14.6997L20.1718 21.6532C20.1922 21.6736 20.2164 21.6898 20.2431 21.7009C20.2698 21.7119 20.2983 21.7176 20.3272 21.7176C20.356 21.7176 20.3846 21.7119 20.4113 21.7009C20.4379 21.6898 20.4621 21.6736 20.4825 21.6532L21.6504 20.488C21.6708 20.4676 21.687 20.4434 21.698 20.4168C21.7091 20.3901 21.7148 20.3615 21.7148 20.3327C21.7148 20.3038 21.7091 20.2753 21.698 20.2486C21.687 20.222 21.6708 20.1977 21.6504 20.1773ZM12.5647 12.5675C11.429 13.7005 9.92362 14.3247 8.32183 14.3247C6.72005 14.3247 5.21469 13.7005 4.07897 12.5675C2.94594 11.4318 2.32183 9.92644 2.32183 8.32465C2.32183 6.72287 2.94594 5.21483 4.07897 4.0818C5.21469 2.94876 6.72005 2.32465 8.32183 2.32465C9.92362 2.32465 11.4317 2.94608 12.5647 4.0818C13.6977 5.21751 14.3218 6.72287 14.3218 8.32465C14.3218 9.92644 13.6977 11.4345 12.5647 12.5675Z" fill="black" fill-opacity="0.85"/>
</svg>
