<svg width="113" height="113" viewBox="0 0 113 113" fill="none" xmlns="http://www.w3.org/2000/svg">
<path d="M18.4326 62.9113L24.0426 48.4858L35.2624 49.6879L34.0603 70.1241L30.0532 75.734L24.0426 77.3369L18.4326 62.9113Z" fill="#FFEACE" stroke="#FFEACE"/>
<path d="M78.539 60.9078L80.1418 47.2837L94.1667 48.4858V68.1206L90.1596 73.7305L81.344 76.1348L78.539 60.9078Z" fill="#FFEACE" stroke="#FFEACE"/>
<path d="M76.7385 89.3437L76.7358 89.3437L66.5739 89.3437C65.8927 90.9782 64.6917 92.3509 63.1497 93.2489C61.4839 94.219 59.5269 94.573 57.6242 94.2489C55.7215 93.9249 53.9945 92.9433 52.749 91.4766C51.5034 90.0099 50.8197 88.1525 50.8197 86.2326C50.8197 84.3128 51.5034 82.4554 52.749 80.9886C53.9945 79.5219 55.7215 78.5404 57.6242 78.2163C59.5269 77.8922 61.4839 78.2462 63.1497 79.2163C64.6917 80.1143 65.8927 81.4871 66.5739 83.1215H76.7341C78.177 83.1175 79.5828 82.6705 80.759 81.8424C81.7236 81.1633 82.4948 80.2552 83.0058 79.2068C81.2354 78.9199 79.5996 78.0615 78.3594 76.7517C76.928 75.24 76.132 73.2414 76.1358 71.1649M76.7385 89.3437L76.7358 51.0771L76.1358 51.0772V71.1649M76.7385 89.3437C79.9604 89.3292 83.0672 88.1491 85.4767 86.0234C87.7995 83.9742 89.3208 81.1816 89.7799 78.1362M76.7385 89.3437L97.5716 66.1437M76.1358 71.1649L76.7358 71.166H76.1358V71.1649ZM83.4964 42.9839C82.7675 37.8506 80.2334 33.1291 76.3305 29.662C72.2692 26.0541 67.0105 24.0575 61.559 24.0549L83.4964 42.9839ZM83.4964 42.9839C81.6004 43.1752 79.8222 44.019 78.4775 45.3813C76.9766 46.9016 76.1354 48.9465 76.1358 51.0771L83.4964 42.9839ZM34.4643 76.9186C32.9284 78.4434 30.8461 79.2993 28.6758 79.2993C25.1637 79.2993 21.7947 77.9143 19.31 75.4477C16.8252 72.9809 15.4284 69.6342 15.4284 66.1437V56.0998V56.0993H16.0284L34.4643 76.9186ZM34.4643 76.9186C36.0004 75.3937 36.8642 73.3245 36.8642 71.166M34.4643 76.9186L36.8642 71.166M97.5716 56.1002C97.5754 53.5361 96.8247 51.0272 95.4121 48.8816C94.0674 46.8391 92.1788 45.2108 89.9601 44.175C89.4839 37.0907 86.3349 30.4402 81.1351 25.5551C75.8461 20.5861 68.8387 17.8224 61.5585 17.8327H51.4415C44.1613 17.8224 37.1539 20.5861 31.8649 25.5551C26.6651 30.4402 23.5161 37.0907 23.0399 44.175C20.8212 45.2108 18.9326 46.8391 17.5879 48.8816L18.0891 49.2115L96.9716 56.0993M97.5716 56.1002L96.9716 56.0993M97.5716 56.1002V56.0993H96.9716M97.5716 56.1002V66.1435L96.9716 66.1437M96.9716 56.0993V66.1437M96.9716 66.1437H97.5716M96.9716 66.1437H97.5716M97.5716 66.1437C97.5725 68.7344 96.8031 71.2674 95.3603 73.4251C93.9815 75.4874 92.0463 77.119 89.7799 78.1362M89.7799 78.1362C89.797 78.0224 89.8127 77.9082 89.8269 77.7937L89.2314 77.72L89.4628 78.2736C89.5692 78.2291 89.6749 78.1833 89.7799 78.1362ZM36.8642 71.166V51.0772M36.8642 71.166V51.0772M36.8642 51.0772C36.8642 51.0772 36.8642 51.0771 36.8642 51.0771M36.8642 51.0772V51.0771M36.8642 51.0771C36.8646 48.9465 36.0234 46.9016 34.5225 45.3813M36.8642 51.0771L34.5225 45.3813M34.5225 45.3813C33.1778 44.019 31.3996 43.1752 29.5036 42.9839M34.5225 45.3813L29.5036 42.9839M29.5036 42.9839C30.2325 37.8506 32.7666 33.1291 36.6695 29.662C40.7308 26.0541 45.9895 24.0575 51.441 24.0549C51.4411 24.0549 51.4412 24.0549 51.4413 24.0549H61.5587L29.5036 42.9839ZM91.3127 56.0993V66.1437C91.3127 67.9812 90.5775 69.7442 89.2673 71.0448C87.9571 72.3455 86.1791 73.0771 84.3242 73.0771C83.8111 73.0771 83.3199 72.8747 82.9583 72.5158C82.597 72.157 82.3948 71.6714 82.3948 71.166V51.0771C82.3948 50.5716 82.597 50.086 82.9583 49.7273C83.3199 49.3684 83.8111 49.166 84.3242 49.166C86.1791 49.166 87.9571 49.8975 89.2673 51.1982C90.5775 52.4988 91.3127 54.2619 91.3127 56.0993ZM21.6873 56.0993C21.6873 54.2619 22.4225 52.4988 23.7326 51.1982C25.0429 49.8975 26.8209 49.166 28.6758 49.166C29.1889 49.166 29.6801 49.3684 30.0417 49.7273C30.403 50.086 30.6052 50.5716 30.6052 51.0771V71.166C30.6052 71.6714 30.403 72.157 30.0417 72.5158C29.6801 72.8747 29.1889 73.0771 28.6758 73.0771C26.8209 73.0771 25.0429 72.3455 23.7326 71.0448C22.4225 69.7442 21.6873 67.9812 21.6873 66.1437V56.0993Z" fill="#02000C" stroke="#02000C" stroke-width="1.2"/>
</svg>
