<svg width="113" height="113" viewBox="0 0 113 113" fill="none" xmlns="http://www.w3.org/2000/svg">
<g clip-path="url(#clip0_991_743)">
<path d="M38.4681 90.1596C32.3773 94.327 27.9161 86.8203 26.4468 82.5461C-6.99997 85 -1.20214 32.4575 4.40779 26.8475C8.89573 22.3596 42.3416 23.7754 64.5142 25.6454C64.5142 25.6454 70.1241 31.656 70.5248 49.2872C70.9255 66.9184 66.117 78.539 66.117 78.539L70.5248 71.727L68.922 76.5355L70.5248 82.5461L66.117 78.539H47.2837C46.883 80.6761 44.5588 85.9922 38.4681 90.1596Z" fill="#FFEACE"/>
<path d="M66.117 78.539H47.2837C46.883 80.6761 44.5589 85.9922 38.4681 90.1596C32.3773 94.327 27.9161 86.8203 26.4468 82.5461C-6.99997 85 -1.20214 32.4575 4.40779 26.8475C8.89573 22.3596 42.3416 23.7754 64.5142 25.6454C64.5142 25.6454 70.1241 31.656 70.5248 49.2872C70.9255 66.9184 66.117 78.539 66.117 78.539ZM66.117 78.539L70.5248 82.5461L68.922 76.5355L70.5248 71.727L66.117 78.539Z" stroke="#FFEACE"/>
<path fill-rule="evenodd" clip-rule="evenodd" d="M76.8824 64.237C78.2949 53.2372 77.8852 41.5557 75.6429 30.9549C75.2615 29.387 73.8596 28.2818 72.2423 28.2818C72.2388 28.2818 72.2352 28.2818 72.2317 28.2818C60.0312 28.2535 31.7812 28.2536 31.7812 28.2536C29.832 28.2536 28.25 26.6716 28.25 24.7223C28.25 22.7731 29.832 21.1911 31.7812 21.1911C31.7812 21.1911 60.0419 21.191 72.2423 21.2193C77.1649 21.2193 81.4341 24.6199 82.5359 29.4188C82.5429 29.4365 82.5465 29.4576 82.5501 29.4753C83.1963 32.5263 83.7012 35.6586 84.0649 38.8438H90.9615C94.7081 38.8438 98.2994 40.3304 100.948 42.9824C102.332 44.3631 103.956 45.9875 105.337 47.3682C107.986 50.0166 109.472 53.6115 109.472 57.3546C109.472 61.0306 109.472 66.3486 109.472 70.6215C109.472 76.4727 104.73 81.2152 98.8785 81.2152H94.8847C93.3133 87.3066 87.7833 91.8125 81.2046 91.8125C74.6294 91.8125 69.0994 87.3066 67.528 81.2152C62.3689 81.2152 55.7761 81.2152 48.9925 81.2152C47.4247 87.3066 41.8912 91.8125 35.3161 91.8125C28.7338 91.8125 23.2004 87.2996 21.636 81.2046C20.9192 81.2046 20.2482 81.2011 19.6196 81.2011C14.6759 81.2011 10.3925 77.7828 9.30132 72.9627C9.29779 72.9591 9.29777 72.9521 9.29777 72.9485C8.09008 67.5175 7.37679 62.0829 7.15432 56.6447C7.07663 54.6955 8.59148 53.05 10.5407 52.9723C12.4864 52.8911 14.132 54.4096 14.2097 56.3553C14.4145 61.3767 15.075 66.391 16.1873 71.4019C16.5546 73.0051 17.9776 74.1386 19.6161 74.1386L21.643 74.1421C23.218 68.0578 28.7444 63.5625 35.3161 63.5625C41.8877 63.5625 47.4211 68.0648 48.989 74.1527C55.7725 74.1527 62.3689 74.1527 67.5316 74.1527C68.7393 69.4632 72.3024 65.7131 76.8824 64.237ZM35.3161 70.625C39.211 70.625 42.375 73.789 42.375 77.6875C42.375 81.586 39.211 84.75 35.3161 84.75C31.4176 84.75 28.2571 81.586 28.2571 77.6875C28.2571 73.789 31.4176 70.625 35.3161 70.625ZM81.2046 70.625C85.1031 70.625 88.2671 73.789 88.2671 77.6875C88.2671 81.586 85.1031 84.75 81.2046 84.75C77.3097 84.75 74.1457 81.586 74.1457 77.6875C74.1457 73.789 77.3097 70.625 81.2046 70.625ZM94.8811 74.1527H98.8785C100.828 74.1527 102.41 72.5742 102.41 70.6215V57.3546C102.41 55.483 101.668 53.6856 100.344 52.3614C98.9597 50.9807 97.3354 49.3563 95.9547 47.9756C94.6304 46.6513 92.833 45.9063 90.9615 45.9063H84.6335C84.9195 51.8917 84.7217 57.9513 84.0437 63.8485C89.33 64.9255 93.5428 68.9653 94.8811 74.1527ZM38.8225 42.375L24.7188 42.3715C22.7695 42.3715 21.1875 43.9535 21.1875 45.9027C21.1875 47.8519 22.7695 49.434 24.7188 49.434L38.8191 49.4375C40.7683 49.4375 42.3538 47.8555 42.3538 45.9063C42.3538 43.957 40.7718 42.375 38.8225 42.375ZM14.1003 42.375L7.0625 42.3715C5.11325 42.3715 3.53123 43.9535 3.52769 45.9027C3.52769 47.8519 5.10969 49.434 7.05894 49.434L14.0968 49.4375C16.046 49.4375 17.6316 47.8555 17.6316 45.9063C17.6316 43.957 16.0496 42.375 14.1003 42.375ZM7.05894 38.8438L21.1628 38.8473C23.1121 38.8473 24.6941 37.2653 24.6941 35.3161C24.6941 33.3668 23.1121 31.7848 21.1628 31.7848L7.05894 31.7813C5.11323 31.7813 3.52769 33.3633 3.52769 35.3125C3.52769 37.2618 5.10969 38.8438 7.05894 38.8438ZM31.7812 38.8438L38.8191 38.8473C40.7683 38.8473 42.3502 37.2653 42.3538 35.3161C42.3538 33.3668 40.7718 31.7848 38.8225 31.7848L31.7812 31.7813C29.832 31.7813 28.25 33.3633 28.25 35.3125C28.25 37.2618 29.832 38.8438 31.7812 38.8438ZM14.1214 28.25H21.1593C23.1085 28.2535 24.6941 26.6716 24.6941 24.7223C24.6941 22.7731 23.1121 21.191 21.1628 21.1875H14.125C12.1757 21.184 10.5937 22.7659 10.5902 24.7152C10.5902 26.6644 12.1722 28.2465 14.1214 28.25Z" fill="#02000C"/>
</g>
<defs>
<clipPath id="clip0_991_743">
<rect width="113" height="113" fill="white"/>
</clipPath>
</defs>
</svg>
