<svg width="113" height="113" viewBox="0 0 113 113" fill="none" xmlns="http://www.w3.org/2000/svg">
<path d="M40 93.5C37.8276 90.5 37.8276 82.4023 37.8276 82.4023L35 53.1839L44.8966 49.8851H60.4483L69.4023 51.2989L84.954 48L95.7931 53.1839C95.7931 53.1839 95.9713 78.5172 96.7356 84.7586C97.5 91 42.1724 96.5 40 93.5Z" fill="#FFEACE" stroke="#FFEACE"/>
<path d="M23.5049 87.3634H23.5047L23.505 87.3709C23.5682 89.4794 24.4637 91.4772 25.9955 92.9274C27.5266 94.377 29.569 95.1618 31.6768 95.1106H82.3232C84.4309 95.1618 86.4734 94.377 88.0045 92.9274C89.5363 91.4772 90.4318 89.4794 90.495 87.3709L90.4951 87.3709V87.3634V57.7731C90.4951 56.9301 90.1603 56.1217 89.5642 55.5256C88.9681 54.9295 88.1596 54.5946 87.3166 54.5946C86.4736 54.5946 85.6651 54.9295 85.069 55.5256C84.4729 56.1217 84.138 56.9301 84.138 57.7731V87.3464C84.0787 87.7631 83.8622 88.1415 83.5325 88.4038C83.1986 88.6694 82.7747 88.7951 82.3501 88.7546L82.3382 88.7534H82.3263H31.6737H31.6618L31.6499 88.7546C31.2253 88.7951 30.8014 88.6694 30.4675 88.4038C30.1378 88.1415 29.9213 87.7631 29.862 87.3464V57.7731C29.862 56.9301 29.5271 56.1217 28.931 55.5256C28.3349 54.9295 27.5264 54.5946 26.6834 54.5946C25.8404 54.5946 25.0319 54.9295 24.4358 55.5256C23.8397 56.1217 23.5049 56.9301 23.5049 57.7731V87.3634Z" fill="#02000C" stroke="#02000C" stroke-width="0.5"/>
<path d="M54.7722 51.338L54.7744 51.338C56.7277 51.3386 58.6388 51.9061 60.2758 52.9716L60.2772 52.9725L62.6174 54.517C63.2131 54.8879 63.9008 55.0845 64.6026 55.0845C65.3054 55.0845 65.9942 54.8873 66.5906 54.5153L66.5927 54.514L69.8961 52.4991L69.8973 52.4984C71.6888 51.4198 73.77 50.9216 75.8557 51.0721C77.9414 51.2226 79.9295 52.0145 81.5475 53.3391L81.5478 53.3394L82.2014 53.8763C82.2018 53.8766 82.2023 53.8769 82.2027 53.8773C82.8562 54.4001 83.6682 54.6849 84.5052 54.6849C85.3426 54.6849 86.1552 54.3997 86.8089 53.8763L86.8156 53.8709L86.8157 53.871L89.7677 51.6688L89.7703 51.6668C90.2275 51.3349 90.6033 50.9036 90.8696 50.4053C91.1351 49.9084 91.2847 49.3579 91.3072 48.795V43.4358C91.3021 42.079 90.9663 40.7438 90.329 39.546L90.3289 39.5458L84.6826 28.9092L84.6792 28.9028L84.6793 28.9027C84.1501 27.8316 83.3387 26.925 82.3326 26.2808C81.3273 25.6371 80.1657 25.2796 78.9726 25.2466H35.0274C33.8343 25.2796 32.6727 25.6371 31.6675 26.2808C30.6613 26.925 29.8499 27.8316 29.3207 28.9027L29.3175 28.9093L29.3174 28.9092L23.6711 39.5458L23.671 39.546C23.0228 40.7642 22.6868 42.1241 22.6929 43.504L22.6929 43.5051L22.6929 49.3613C22.6972 49.8754 22.8045 50.3835 23.0084 50.8555C23.2121 51.3271 23.5082 51.7531 23.879 52.1085C23.8796 52.1091 23.8803 52.1097 23.8809 52.1102L25.6109 53.6999L25.6114 53.7004C26.2145 54.2578 26.9846 54.6008 27.8023 54.6763C28.6201 54.7517 29.4399 54.5553 30.1348 54.1176L30.1364 54.1166L31.1197 53.5079C31.1199 53.5078 31.1201 53.5077 31.1202 53.5075L31.1204 53.5074L31.252 53.72C32.9733 52.646 34.9845 52.1303 37.0102 52.2435C39.036 52.3567 40.9772 53.0934 42.568 54.3526L54.7722 51.338ZM54.7722 51.338C52.9177 51.3534 51.1042 51.8855 49.5354 52.8747C49.5348 52.8752 49.5341 52.8756 49.5335 52.876L46.9849 54.4191C46.9848 54.4192 46.9846 54.4193 46.9845 54.4194C46.3303 54.8102 45.5732 54.9942 44.8125 54.9472C44.0519 54.9001 43.3233 54.6243 42.7222 54.1558L54.7722 51.338ZM59.2037 59.8551L59.2037 59.8552L64.708 61.2171L64.707 61.4671C64.7072 61.4671 64.7074 61.4671 64.7076 61.4671C66.5267 61.4745 68.3132 60.9842 69.8736 60.0493L69.8749 60.0485L73.1549 58.0571L73.1563 58.0563C73.8291 57.6416 74.6149 57.4483 75.4033 57.5035C76.1916 57.5587 76.9429 57.8596 77.5513 58.3639L77.5512 58.3641L77.5596 58.3705L78.1414 58.8126C79.887 60.2497 82.0656 61.0573 84.3263 61.1053C86.5883 61.1532 88.8005 60.4377 90.606 59.0743C90.6062 59.0741 90.6065 59.074 90.6067 59.0738L93.5575 56.8724L93.5585 56.8716C94.8087 55.9293 95.8237 54.7102 96.5239 53.3099C97.224 51.9096 97.5903 50.3662 97.594 48.8006V48.8V43.4355C97.5999 41.0105 97.0107 38.6212 95.8782 36.477L90.3032 25.9126C90.303 25.9123 90.3029 25.9119 90.3027 25.9116C89.225 23.8284 87.6036 22.0757 85.6103 20.8394C83.6168 19.6029 81.3258 18.9291 78.9802 18.8895L78.9802 18.8894H78.976H35.024V18.8894L35.0198 18.8895C32.6743 18.9291 30.3832 19.6029 28.3897 20.8394C26.3965 22.0757 24.775 23.8284 23.6973 25.9117C23.6971 25.912 23.697 25.9123 23.6968 25.9126L18.123 36.4747C18.1228 36.4751 18.1226 36.4755 18.1224 36.4759C16.9654 38.6134 16.3518 41.0027 16.3357 43.4332H16.3357V43.4349V49.2914C16.3288 50.6909 16.6111 52.0767 17.1649 53.3619C17.7188 54.6474 18.5322 55.8046 19.5543 56.7608L19.556 56.7624L21.2895 58.3553C22.9122 59.8495 24.9808 60.7693 27.1772 60.9733C29.3734 61.1773 31.5759 60.6543 33.4459 59.4847C33.4461 59.4847 33.4462 59.4846 33.4463 59.4845L34.4293 58.876L34.4319 58.8744C35.098 58.4506 35.88 58.2461 36.6682 58.2895C37.4565 58.3328 38.2113 58.6219 38.8269 59.1161L38.8293 59.1179C40.446 60.3843 42.4085 61.1311 44.4582 61.2597C46.5078 61.3883 48.5483 60.8928 50.3106 59.8385L50.3109 59.8384L52.8881 58.2921L52.8881 58.2921L52.8917 58.2898C53.4881 57.9178 54.1769 57.7206 54.8797 57.7206C55.5813 57.7206 56.2688 57.9171 56.8644 58.2878L59.2037 59.8551Z" fill="#02000C" stroke="#02000C" stroke-width="0.5"/>
<path d="M44.45 76.3279V76.3286V90.5731C44.45 91.4161 44.7849 92.2246 45.381 92.8207C45.9771 93.4168 46.7856 93.7517 47.6286 93.7517C48.4716 93.7517 49.2801 93.4168 49.8762 92.8207C50.4722 92.2246 50.8071 91.4161 50.8071 90.5731V76.3286C50.8071 76.023 50.8673 75.7204 50.9843 75.438C51.1012 75.1557 51.2726 74.8991 51.4887 74.683C51.7048 74.4669 51.9614 74.2955 52.2437 74.1786C52.5261 74.0616 52.8287 74.0014 53.1343 74.0014H60.8657C61.1713 74.0014 61.4739 74.0616 61.7563 74.1786C62.0386 74.2955 62.2952 74.4669 62.5112 74.683C62.7273 74.8991 62.8988 75.1557 63.0157 75.438C63.1327 75.7204 63.1929 76.023 63.1929 76.3286V90.5731C63.1929 91.4161 63.5277 92.2246 64.1238 92.8207C64.7199 93.4168 65.5284 93.7517 66.3714 93.7517C67.2144 93.7517 68.0229 93.4168 68.619 92.8207C69.2151 92.2246 69.55 91.4161 69.55 90.5731V76.3286V76.3279C69.5436 74.0268 68.6267 71.8218 66.9996 70.1947C65.3725 68.5676 63.1675 67.6507 60.8664 67.6443H60.8657L53.1343 67.6443L53.1336 67.6443C50.8325 67.6507 48.6275 68.5676 47.0004 70.1947C45.3733 71.8218 44.4564 74.0268 44.45 76.3279ZM20.9903 44.6454H93.0097C93.8527 44.6454 94.6612 44.3105 95.2573 43.7144C95.8534 43.1183 96.1883 42.3099 96.1883 41.4669C96.1883 40.6238 95.8534 39.8154 95.2573 39.2193C94.6612 38.6232 93.8527 38.2883 93.0097 38.2883H20.9903C20.1473 38.2883 19.3388 38.6232 18.7427 39.2193C18.1466 39.8154 17.8117 40.6238 17.8117 41.4669C17.8117 42.3099 18.1466 43.1183 18.7427 43.7144C19.3388 44.3105 20.1473 44.6454 20.9903 44.6454Z" fill="#02000C" stroke="#02000C" stroke-width="0.5"/>
</svg>
