<svg width="113" height="113" viewBox="0 0 113 113" fill="none" xmlns="http://www.w3.org/2000/svg">
<path d="M20.6379 68.0181C13.4379 72.4181 14.6379 76.5181 16.1379 78.0181C25.6379 89.8514 46.1379 112.518 53.6379 108.018C68.521 99.0882 63.6379 95.0181 72.1379 80.5181C77.915 70.6629 81.6379 71.0181 83.1379 63.5181C84.6379 56.0181 62.1379 39.5181 55.6379 39.0181C49.1379 38.5181 51.6379 48.5181 49.1379 53.0181C46.6379 57.5181 29.6379 62.5181 20.6379 68.0181Z" fill="#FFEACE"/>
<mask id="path-2-outside-1_991_756" maskUnits="userSpaceOnUse" x="7.53729" y="7.55118" width="99" height="98" fill="black">
<rect fill="white" x="7.53729" y="7.55118" width="99" height="98"/>
<path fill-rule="evenodd" clip-rule="evenodd" d="M103.344 22.95C104.919 21.2437 104.863 18.6 103.213 16.95L96.7625 10.5C95.1125 8.85 92.1201 9.68732 91.2405 10.5C90.3608 11.3127 89.7277 12.128 88.4375 13.6313C87.1472 15.1345 86.9009 15.6382 86.9009 15.6382C86.9009 15.6382 86.9009 15.6382 84.8187 19.1062L83.4687 21.15L64.475 40.1625C62.525 38.7375 60.4625 37.4813 58.2875 36.4125C52.6062 33.6 45.6312 35.7188 42.3687 41.2125C39.9687 45.2812 36.3875 48.5062 32.075 50.4562L19.1375 56.3062C10.925 60.0375 7.26874 69.7312 11 77.9437C11.8062 79.7437 12.95 81.375 14.3375 82.7625L30.9687 99.3937C39.1812 107.606 52.8687 104.794 57.4437 94.575C62.45 85.1062 63.2375 76.8375 72.5375 71.3437C78.0312 68.1 80.15 61.1062 77.3375 55.425C76.2687 53.2687 75.0125 51.2062 73.5687 49.2562L92.5812 30.2438L94.6437 28.875C95.4125 28.125 97.9812 26.6438 97.9812 26.6438L100.119 25.2375C100.85 24.5063 102 24 103.344 22.95ZM93.9312 13.2188C93.7437 13.1063 93.4812 13.1625 93.35 13.35L87.5 22.1437L91.5687 26.2125C91.6812 26.1375 100.437 20.1 100.531 20.1937C100.756 19.5937 100.1 19.6688 94.0062 13.275C93.9875 13.2563 93.95 13.2375 93.9312 13.2188ZM70.5312 67.9875C74.2812 65.775 75.725 61.0312 73.8125 57.1875C72.9312 55.4062 71.9 53.7 70.775 52.0687L66.2562 56.5875C63.7437 59.0625 59.7125 59.0625 57.2 56.5875C54.6687 54.0937 54.65 50.025 57.1437 47.4937L61.6625 42.975C60.0312 41.8125 58.325 40.8 56.5437 39.9188C52.7 38.025 47.9562 39.4687 45.7437 43.2C42.9312 47.9625 38.7312 51.75 33.6875 54.0187L20.75 59.8687C12.8375 63.45 10.9437 73.8562 17.0937 80.0062L33.725 96.6375C39.9125 102.825 50.3 100.875 53.8625 92.9812C58.7562 83.85 59.825 74.3062 70.5312 67.9875ZM59.9 53.8312C60.8937 54.7875 62.4687 54.7875 63.4625 53.8312L88.5687 28.725L85.0062 25.1625L59.9 50.2687C58.925 51.2437 58.925 52.8562 59.9 53.8312Z"/>
</mask>
<path fill-rule="evenodd" clip-rule="evenodd" d="M103.344 22.95C104.919 21.2437 104.863 18.6 103.213 16.95L96.7625 10.5C95.1125 8.85 92.1201 9.68732 91.2405 10.5C90.3608 11.3127 89.7277 12.128 88.4375 13.6313C87.1472 15.1345 86.9009 15.6382 86.9009 15.6382C86.9009 15.6382 86.9009 15.6382 84.8187 19.1062L83.4687 21.15L64.475 40.1625C62.525 38.7375 60.4625 37.4813 58.2875 36.4125C52.6062 33.6 45.6312 35.7188 42.3687 41.2125C39.9687 45.2812 36.3875 48.5062 32.075 50.4562L19.1375 56.3062C10.925 60.0375 7.26874 69.7312 11 77.9437C11.8062 79.7437 12.95 81.375 14.3375 82.7625L30.9687 99.3937C39.1812 107.606 52.8687 104.794 57.4437 94.575C62.45 85.1062 63.2375 76.8375 72.5375 71.3437C78.0312 68.1 80.15 61.1062 77.3375 55.425C76.2687 53.2687 75.0125 51.2062 73.5687 49.2562L92.5812 30.2438L94.6437 28.875C95.4125 28.125 97.9812 26.6438 97.9812 26.6438L100.119 25.2375C100.85 24.5063 102 24 103.344 22.95ZM93.9312 13.2188C93.7437 13.1063 93.4812 13.1625 93.35 13.35L87.5 22.1437L91.5687 26.2125C91.6812 26.1375 100.437 20.1 100.531 20.1937C100.756 19.5937 100.1 19.6688 94.0062 13.275C93.9875 13.2563 93.95 13.2375 93.9312 13.2188ZM70.5312 67.9875C74.2812 65.775 75.725 61.0312 73.8125 57.1875C72.9312 55.4062 71.9 53.7 70.775 52.0687L66.2562 56.5875C63.7437 59.0625 59.7125 59.0625 57.2 56.5875C54.6687 54.0937 54.65 50.025 57.1437 47.4937L61.6625 42.975C60.0312 41.8125 58.325 40.8 56.5437 39.9188C52.7 38.025 47.9562 39.4687 45.7437 43.2C42.9312 47.9625 38.7312 51.75 33.6875 54.0187L20.75 59.8687C12.8375 63.45 10.9437 73.8562 17.0937 80.0062L33.725 96.6375C39.9125 102.825 50.3 100.875 53.8625 92.9812C58.7562 83.85 59.825 74.3062 70.5312 67.9875ZM59.9 53.8312C60.8937 54.7875 62.4687 54.7875 63.4625 53.8312L88.5687 28.725L85.0062 25.1625L59.9 50.2687C58.925 51.2437 58.925 52.8562 59.9 53.8312Z" fill="#02000C"/>
<path d="M103.344 22.95L104.113 23.935L104.193 23.8725L104.262 23.7978L103.344 22.95ZM103.213 16.95L104.096 16.0661V16.0661L103.213 16.95ZM96.7625 10.5L95.8786 11.3839V11.3839L96.7625 10.5ZM86.9009 15.6382L87.9726 16.2816L88.0002 16.2356L88.0238 16.1874L86.9009 15.6382ZM84.8187 19.1062L85.8617 19.7952L85.8766 19.7727L85.8904 19.7497L84.8187 19.1062ZM83.4687 21.15L84.3531 22.0334L84.4422 21.9442L84.5117 21.839L83.4687 21.15ZM64.475 40.1625L63.7375 41.1717L64.6023 41.8037L65.3593 41.046L64.475 40.1625ZM58.2875 36.4125L57.7329 37.5328L57.7362 37.5344L58.2875 36.4125ZM42.3687 41.2125L41.294 40.5742L41.2921 40.5774L42.3687 41.2125ZM32.075 50.4562L31.56 49.3173L32.075 50.4562ZM19.1375 56.3062L18.6225 55.1673L18.6204 55.1682L19.1375 56.3062ZM11 77.9437L12.1408 77.4327L12.138 77.4267L11 77.9437ZM14.3375 82.7625L15.2214 81.8786L14.3375 82.7625ZM30.9687 99.3937L30.0849 100.278L30.9687 99.3937ZM57.4437 94.575L56.3387 93.9907L56.3196 94.0269L56.3029 94.0642L57.4437 94.575ZM72.5375 71.3437L71.902 70.2674L71.9017 70.2675L72.5375 71.3437ZM77.3375 55.425L78.4577 54.8704L78.4575 54.8699L77.3375 55.425ZM73.5687 49.2562L72.6849 48.3723L71.923 49.1342L72.5641 50L73.5687 49.2562ZM92.5812 30.2438L91.8901 29.2022L91.7858 29.2714L91.6974 29.3599L92.5812 30.2438ZM94.6437 28.875L95.3349 29.9165L95.4327 29.8517L95.5166 29.7697L94.6437 28.875ZM97.9812 26.6438L98.6057 27.7266L98.6375 27.7082L98.6683 27.688L97.9812 26.6438ZM100.119 25.2375L100.806 26.2818L100.912 26.2116L101.003 26.1214L100.119 25.2375ZM93.35 13.35L92.326 12.6332L92.3175 12.6453L92.3092 12.6577L93.35 13.35ZM93.9312 13.2188L94.8151 12.3349L94.7063 12.2261L94.5744 12.1469L93.9312 13.2188ZM94.0062 13.275L94.9111 12.4126L94.9007 12.4017L94.8901 12.3911L94.0062 13.275ZM100.531 20.1937L99.6474 21.0776L101.02 22.4503L101.702 20.6327L100.531 20.1937ZM91.5687 26.2125L90.6849 27.0964L91.4095 27.821L92.2621 27.2526L91.5687 26.2125ZM87.5 22.1437L86.4592 21.4514L85.8922 22.3037L86.6161 23.0276L87.5 22.1437ZM73.8125 57.1875L72.6921 57.7418L72.6934 57.7443L73.8125 57.1875ZM70.5312 67.9875L69.8961 66.9109L69.8959 66.911L70.5312 67.9875ZM53.8625 92.9812L52.7607 92.3908L52.7406 92.4283L52.7231 92.467L53.8625 92.9812ZM33.725 96.6375L32.8411 97.5214H32.8411L33.725 96.6375ZM17.0937 80.0062L17.9776 79.1224H17.9776L17.0937 80.0062ZM20.75 59.8687L20.235 58.7298L20.2346 58.7299L20.75 59.8687ZM33.6875 54.0187L33.1747 52.8787L33.1725 52.8798L33.6875 54.0187ZM45.7437 43.2L44.6685 42.5624L44.6674 42.5644L45.7437 43.2ZM56.5437 39.9188L57.098 38.7984L57.0962 38.7975L56.5437 39.9188ZM61.6625 42.975L62.5464 43.8589L63.5909 42.8143L62.3879 41.957L61.6625 42.975ZM57.1437 47.4937L56.2598 46.6098L56.2533 46.6165L57.1437 47.4937ZM57.2 56.5875L56.3227 57.4779L56.3228 57.478L57.2 56.5875ZM66.2562 56.5875L67.1335 57.478L67.1401 57.4714L66.2562 56.5875ZM70.775 52.0687L71.804 51.3591L70.9521 50.1238L69.8911 51.1848L70.775 52.0687ZM63.4625 53.8312L64.3292 54.7319L64.3379 54.7236L64.3464 54.7151L63.4625 53.8312ZM59.9 53.8312L59.0161 54.7151L59.0246 54.7236L59.0333 54.7319L59.9 53.8312ZM59.9 50.2687L59.0161 49.3848L59.9 50.2687ZM85.0062 25.1625L85.8901 24.2786L85.0062 23.3947L84.1224 24.2786L85.0062 25.1625ZM88.5687 28.725L89.4526 29.6089L90.3365 28.725L89.4526 27.8411L88.5687 28.725ZM104.262 23.7978C106.295 21.5957 106.218 18.1877 104.096 16.0661L102.329 17.8339C103.507 19.0122 103.543 20.8918 102.425 22.1021L104.262 23.7978ZM104.096 16.0661L97.6464 9.61612L95.8786 11.3839L102.329 17.8339L104.096 16.0661ZM97.6464 9.61612C96.459 8.42876 94.8632 8.20732 93.5902 8.3325C92.3519 8.45428 91.0934 8.93402 90.3922 9.58188L92.0887 11.4181C92.2671 11.2533 92.9446 10.9081 93.8349 10.8205C94.6906 10.7363 95.416 10.9212 95.8786 11.3839L97.6464 9.61612ZM90.3922 9.58188C89.4423 10.4595 88.7313 11.3698 87.489 12.8171L89.386 14.4454C90.7242 12.8863 91.2794 12.1658 92.0887 11.4181L90.3922 9.58188ZM86.9009 15.6382L85.8292 14.9948C85.8292 14.9948 85.8292 14.9948 85.8292 14.9948C85.8292 14.9948 85.8292 14.9948 85.8292 14.9948C85.8292 14.9948 85.8292 14.9948 85.8292 14.9948C85.8292 14.9948 85.8292 14.9948 85.8292 14.9948C85.8292 14.9948 85.8292 14.9948 85.8292 14.9948C85.8292 14.9948 85.8292 14.9948 85.8292 14.9948C85.8292 14.9948 85.8292 14.9948 85.8292 14.9948C85.8292 14.9948 85.8292 14.9948 85.8292 14.9948C85.8292 14.9948 85.8292 14.9948 85.8292 14.9948C85.8292 14.9948 85.8292 14.9948 85.8292 14.9948C85.8292 14.9948 85.8292 14.9948 85.8292 14.9948C85.8292 14.9948 85.8292 14.9948 85.8292 14.9948C85.8292 14.9948 85.8292 14.9948 85.8292 14.9948C85.8292 14.9948 85.8292 14.9948 85.8292 14.9948C85.8291 14.9949 85.8291 14.9949 85.8291 14.9949C85.8291 14.9949 85.8291 14.9949 85.8291 14.9949C85.8291 14.9949 85.8291 14.9949 85.8291 14.9949C85.8291 14.9949 85.8291 14.9949 85.8291 14.9949C85.8291 14.9949 85.8291 14.995 85.8291 14.995C85.8291 14.995 85.8291 14.995 85.8291 14.995C85.8291 14.995 85.829 14.995 85.829 14.995C85.829 14.995 85.829 14.9951 85.829 14.9951C85.829 14.9951 85.829 14.9951 85.829 14.9951C85.829 14.9951 85.829 14.9951 85.829 14.9952C85.829 14.9952 85.8289 14.9952 85.8289 14.9952C85.8289 14.9952 85.8289 14.9952 85.8289 14.9953C85.8289 14.9953 85.8289 14.9953 85.8289 14.9953C85.8289 14.9953 85.8288 14.9954 85.8288 14.9954C85.8288 14.9954 85.8288 14.9954 85.8288 14.9955C85.8288 14.9955 85.8288 14.9955 85.8287 14.9955C85.8287 14.9956 85.8287 14.9956 85.8287 14.9956C85.8287 14.9956 85.8287 14.9957 85.8287 14.9957C85.8286 14.9957 85.8286 14.9957 85.8286 14.9958C85.8286 14.9958 85.8286 14.9958 85.8285 14.9959C85.8285 14.9959 85.8285 14.9959 85.8285 14.996C85.8285 14.996 85.8284 14.996 85.8284 14.9961C85.8284 14.9961 85.8284 14.9961 85.8284 14.9962C85.8283 14.9962 85.8283 14.9963 85.8283 14.9963C85.8283 14.9963 85.8282 14.9964 85.8282 14.9964C85.8282 14.9965 85.8282 14.9965 85.8281 14.9965C85.8281 14.9966 85.8281 14.9966 85.8281 14.9967C85.828 14.9967 85.828 14.9968 85.828 14.9968C85.8279 14.9969 85.8279 14.9969 85.8279 14.997C85.8279 14.997 85.8278 14.9971 85.8278 14.9971C85.8278 14.9972 85.8277 14.9972 85.8277 14.9973C85.8277 14.9973 85.8276 14.9974 85.8276 14.9974C85.8276 14.9975 85.8275 14.9976 85.8275 14.9976C85.8275 14.9977 85.8274 14.9977 85.8274 14.9978C85.8273 14.9979 85.8273 14.9979 85.8273 14.998C85.8272 14.9981 85.8272 14.9981 85.8271 14.9982C85.8271 14.9983 85.8271 14.9983 85.827 14.9984C85.827 14.9985 85.8269 14.9985 85.8269 14.9986C85.8269 14.9987 85.8268 14.9988 85.8268 14.9988C85.8267 14.9989 85.8267 14.999 85.8266 14.9991C85.8266 14.9991 85.8265 14.9992 85.8265 14.9993C85.8264 14.9994 85.8264 14.9995 85.8263 14.9995C85.8263 14.9996 85.8262 14.9997 85.8262 14.9998C85.8261 14.9999 85.8261 15 85.826 15.0001C85.826 15.0002 85.8259 15.0002 85.8259 15.0003C85.8258 15.0004 85.8257 15.0005 85.8257 15.0006C85.8256 15.0007 85.8256 15.0008 85.8255 15.0009C85.8254 15.001 85.8254 15.0011 85.8253 15.0012C85.8253 15.0013 85.8252 15.0014 85.8251 15.0015C85.8251 15.0016 85.825 15.0017 85.8249 15.0019C85.8249 15.002 85.8248 15.0021 85.8247 15.0022C85.8247 15.0023 85.8246 15.0024 85.8245 15.0025C85.8245 15.0026 85.8244 15.0028 85.8243 15.0029C85.8243 15.003 85.8242 15.0031 85.8241 15.0032C85.824 15.0034 85.824 15.0035 85.8239 15.0036C85.8238 15.0037 85.8237 15.0039 85.8237 15.004C85.8236 15.0041 85.8235 15.0043 85.8234 15.0044C85.8233 15.0045 85.8233 15.0047 85.8232 15.0048C85.8231 15.0049 85.823 15.0051 85.8229 15.0052C85.8228 15.0054 85.8227 15.0055 85.8227 15.0057C85.8226 15.0058 85.8225 15.006 85.8224 15.0061C85.8223 15.0063 85.8222 15.0064 85.8221 15.0066C85.822 15.0067 85.8219 15.0069 85.8218 15.007C85.8217 15.0072 85.8217 15.0073 85.8216 15.0075C85.8215 15.0077 85.8214 15.0078 85.8213 15.008C85.8212 15.0082 85.8211 15.0083 85.821 15.0085C85.8209 15.0087 85.8208 15.0088 85.8207 15.009C85.8205 15.0092 85.8204 15.0094 85.8203 15.0095C85.8202 15.0097 85.8201 15.0099 85.82 15.0101C85.8199 15.0103 85.8198 15.0104 85.8197 15.0106C85.8196 15.0108 85.8195 15.011 85.8193 15.0112C85.8192 15.0114 85.8191 15.0116 85.819 15.0118C85.8189 15.012 85.8188 15.0122 85.8186 15.0124C85.8185 15.0126 85.8184 15.0128 85.8183 15.013C85.8181 15.0132 85.818 15.0134 85.8179 15.0136C85.8178 15.0138 85.8176 15.014 85.8175 15.0142C85.8174 15.0144 85.8173 15.0147 85.8171 15.0149C85.817 15.0151 85.8169 15.0153 85.8167 15.0155C85.8166 15.0158 85.8165 15.016 85.8163 15.0162C85.8162 15.0164 85.816 15.0167 85.8159 15.0169C85.8158 15.0171 85.8156 15.0174 85.8155 15.0176C85.8153 15.0179 85.8152 15.0181 85.815 15.0183C85.8149 15.0186 85.8148 15.0188 85.8146 15.0191C85.8145 15.0193 85.8143 15.0196 85.8142 15.0198C85.814 15.0201 85.8139 15.0203 85.8137 15.0206C85.8135 15.0209 85.8134 15.0211 85.8132 15.0214C85.8131 15.0216 85.8129 15.0219 85.8127 15.0222C85.8126 15.0224 85.8124 15.0227 85.8123 15.023C85.8121 15.0233 85.8119 15.0235 85.8118 15.0238C85.8116 15.0241 85.8114 15.0244 85.8112 15.0247C85.8111 15.025 85.8109 15.0252 85.8107 15.0255C85.8106 15.0258 85.8104 15.0261 85.8102 15.0264C85.81 15.0267 85.8098 15.027 85.8097 15.0273C85.8095 15.0276 85.8093 15.0279 85.8091 15.0282C85.8089 15.0285 85.8087 15.0288 85.8086 15.0292C85.8084 15.0295 85.8082 15.0298 85.808 15.0301C85.8078 15.0304 85.8076 15.0307 85.8074 15.0311C85.8072 15.0314 85.807 15.0317 85.8068 15.032C85.8066 15.0324 85.8064 15.0327 85.8062 15.033C85.806 15.0334 85.8058 15.0337 85.8056 15.0341C85.8054 15.0344 85.8052 15.0347 85.805 15.0351C85.8048 15.0354 85.8046 15.0358 85.8044 15.0361C85.8041 15.0365 85.8039 15.0369 85.8037 15.0372C85.8035 15.0376 85.8033 15.0379 85.8031 15.0383C85.8028 15.0387 85.8026 15.039 85.8024 15.0394C85.8022 15.0398 85.8019 15.0402 85.8017 15.0405C85.8015 15.0409 85.8013 15.0413 85.801 15.0417C85.8008 15.0421 85.8006 15.0425 85.8003 15.0428C85.8001 15.0432 85.7999 15.0436 85.7996 15.044C85.7994 15.0444 85.7991 15.0448 85.7989 15.0452C85.7987 15.0456 85.7984 15.046 85.7982 15.0464C85.7979 15.0469 85.7977 15.0473 85.7974 15.0477C85.7972 15.0481 85.7969 15.0485 85.7967 15.0489C85.7964 15.0494 85.7962 15.0498 85.7959 15.0502C85.7956 15.0507 85.7954 15.0511 85.7951 15.0515C85.7949 15.052 85.7946 15.0524 85.7943 15.0528C85.7941 15.0533 85.7938 15.0537 85.7935 15.0542C85.7933 15.0546 85.793 15.0551 85.7927 15.0555C85.7924 15.056 85.7922 15.0565 85.7919 15.0569C85.7916 15.0574 85.7913 15.0579 85.791 15.0583C85.7908 15.0588 85.7905 15.0593 85.7902 15.0598C85.7899 15.0602 85.7896 15.0607 85.7893 15.0612C85.789 15.0617 85.7887 15.0622 85.7884 15.0627C85.7881 15.0632 85.7878 15.0637 85.7875 15.0642C85.7872 15.0647 85.7869 15.0652 85.7866 15.0657C85.7863 15.0662 85.786 15.0667 85.7857 15.0672C85.7854 15.0677 85.7851 15.0682 85.7848 15.0687C85.7845 15.0693 85.7842 15.0698 85.7838 15.0703C85.7835 15.0708 85.7832 15.0714 85.7829 15.0719C85.7826 15.0724 85.7822 15.073 85.7819 15.0735C85.7816 15.0741 85.7813 15.0746 85.7809 15.0752C85.7806 15.0757 85.7803 15.0763 85.7799 15.0768C85.7796 15.0774 85.7793 15.078 85.7789 15.0785C85.7786 15.0791 85.7782 15.0797 85.7779 15.0802C85.7775 15.0808 85.7772 15.0814 85.7768 15.082C85.7765 15.0825 85.7761 15.0831 85.7758 15.0837C85.7754 15.0843 85.7751 15.0849 85.7747 15.0855C85.7744 15.0861 85.774 15.0867 85.7736 15.0873C85.7733 15.0879 85.7729 15.0885 85.7725 15.0891C85.7722 15.0897 85.7718 15.0904 85.7714 15.091C85.7711 15.0916 85.7707 15.0922 85.7703 15.0929C85.7699 15.0935 85.7696 15.0941 85.7692 15.0948C85.7688 15.0954 85.7684 15.096 85.768 15.0967C85.7676 15.0973 85.7672 15.098 85.7668 15.0986C85.7665 15.0993 85.7661 15.0999 85.7657 15.1006C85.7653 15.1013 85.7649 15.1019 85.7645 15.1026C85.7641 15.1033 85.7637 15.1039 85.7633 15.1046C85.7628 15.1053 85.7624 15.106 85.762 15.1067C85.7616 15.1073 85.7612 15.108 85.7608 15.1087C85.7604 15.1094 85.7599 15.1101 85.7595 15.1108C85.7591 15.1115 85.7587 15.1122 85.7582 15.113C85.7578 15.1137 85.7574 15.1144 85.757 15.1151C85.7565 15.1158 85.7561 15.1165 85.7556 15.1173C85.7552 15.118 85.7548 15.1187 85.7543 15.1195C85.7539 15.1202 85.7534 15.121 85.753 15.1217C85.7525 15.1225 85.7521 15.1232 85.7516 15.124C85.7512 15.1247 85.7507 15.1255 85.7503 15.1262C85.7498 15.127 85.7493 15.1278 85.7489 15.1285C85.7484 15.1293 85.748 15.1301 85.7475 15.1309C85.747 15.1317 85.7465 15.1324 85.7461 15.1332C85.7456 15.134 85.7451 15.1348 85.7446 15.1356C85.7441 15.1364 85.7437 15.1372 85.7432 15.138C85.7427 15.1389 85.7422 15.1397 85.7417 15.1405C85.7412 15.1413 85.7407 15.1421 85.7402 15.143C85.7397 15.1438 85.7392 15.1446 85.7387 15.1455C85.7382 15.1463 85.7377 15.1471 85.7372 15.148C85.7367 15.1488 85.7362 15.1497 85.7357 15.1505C85.7352 15.1514 85.7346 15.1522 85.7341 15.1531C85.7336 15.154 85.7331 15.1548 85.7326 15.1557C85.732 15.1566 85.7315 15.1575 85.731 15.1584C85.7305 15.1592 85.7299 15.1601 85.7294 15.161C85.7288 15.1619 85.7283 15.1628 85.7278 15.1637C85.7272 15.1646 85.7267 15.1655 85.7261 15.1665C85.7256 15.1674 85.725 15.1683 85.7245 15.1692C85.7239 15.1701 85.7234 15.1711 85.7228 15.172C85.7222 15.1729 85.7217 15.1739 85.7211 15.1748C85.7205 15.1757 85.72 15.1767 85.7194 15.1776C85.7188 15.1786 85.7183 15.1796 85.7177 15.1805C85.7171 15.1815 85.7165 15.1824 85.7159 15.1834C85.7154 15.1844 85.7148 15.1854 85.7142 15.1864C85.7136 15.1873 85.713 15.1883 85.7124 15.1893C85.7118 15.1903 85.7112 15.1913 85.7106 15.1923C85.71 15.1933 85.7094 15.1943 85.7088 15.1953C85.7082 15.1963 85.7076 15.1974 85.707 15.1984C85.7063 15.1994 85.7057 15.2004 85.7051 15.2015C85.7045 15.2025 85.7039 15.2035 85.7032 15.2046C85.7026 15.2056 85.702 15.2067 85.7013 15.2077C85.7007 15.2088 85.7001 15.2098 85.6994 15.2109C85.6988 15.212 85.6982 15.213 85.6975 15.2141C85.6969 15.2152 85.6962 15.2163 85.6956 15.2174C85.6949 15.2185 85.6943 15.2195 85.6936 15.2206C85.6929 15.2217 85.6923 15.2228 85.6916 15.2239C85.6909 15.2251 85.6903 15.2262 85.6896 15.2273C85.6889 15.2284 85.6883 15.2295 85.6876 15.2307C85.6869 15.2318 85.6862 15.2329 85.6855 15.2341C85.6849 15.2352 85.6842 15.2363 85.6835 15.2375C85.6828 15.2386 85.6821 15.2398 85.6814 15.241C85.6807 15.2421 85.68 15.2433 85.6793 15.2445C85.6786 15.2456 85.6779 15.2468 85.6772 15.248C85.6765 15.2492 85.6758 15.2504 85.675 15.2516C85.6743 15.2528 85.6736 15.254 85.6729 15.2552C85.6721 15.2564 85.6714 15.2576 85.6707 15.2588C85.67 15.26 85.6692 15.2612 85.6685 15.2625C85.6677 15.2637 85.667 15.2649 85.6663 15.2662C85.6655 15.2674 85.6648 15.2686 85.664 15.2699C85.6633 15.2711 85.6625 15.2724 85.6618 15.2737C85.661 15.2749 85.6602 15.2762 85.6595 15.2775C85.6587 15.2787 85.6579 15.28 85.6572 15.2813C85.6564 15.2826 85.6556 15.2839 85.6548 15.2852C85.6541 15.2865 85.6533 15.2878 85.6525 15.2891C85.6517 15.2904 85.6509 15.2917 85.6501 15.293C85.6493 15.2943 85.6485 15.2957 85.6477 15.297C85.6469 15.2983 85.6461 15.2997 85.6453 15.301C85.6445 15.3024 85.6437 15.3037 85.6429 15.3051C85.6421 15.3064 85.6413 15.3078 85.6405 15.3091C85.6396 15.3105 85.6388 15.3119 85.638 15.3133C85.6372 15.3146 85.6363 15.316 85.6355 15.3174C85.6347 15.3188 85.6338 15.3202 85.633 15.3216C85.6321 15.323 85.6313 15.3244 85.6304 15.3258C85.6296 15.3272 85.6287 15.3287 85.6279 15.3301C85.627 15.3315 85.6262 15.333 85.6253 15.3344C85.6244 15.3358 85.6236 15.3373 85.6227 15.3387C85.6218 15.3402 85.6209 15.3416 85.6201 15.3431C85.6192 15.3446 85.6183 15.346 85.6174 15.3475C85.6165 15.349 85.6156 15.3505 85.6148 15.352C85.6139 15.3534 85.613 15.3549 85.6121 15.3564C85.6112 15.3579 85.6103 15.3595 85.6093 15.361C85.6084 15.3625 85.6075 15.364 85.6066 15.3655C85.6057 15.367 85.6048 15.3686 85.6039 15.3701C85.6029 15.3717 85.602 15.3732 85.6011 15.3748C85.6001 15.3763 85.5992 15.3779 85.5983 15.3794C85.5973 15.381 85.5964 15.3826 85.5954 15.3841C85.5945 15.3857 85.5935 15.3873 85.5926 15.3889C85.5916 15.3905 85.5907 15.3921 85.5897 15.3937C85.5887 15.3953 85.5878 15.3969 85.5868 15.3985C85.5858 15.4001 85.5849 15.4017 85.5839 15.4034C85.5829 15.405 85.5819 15.4066 85.5809 15.4083C85.58 15.4099 85.579 15.4116 85.578 15.4132C85.577 15.4149 85.576 15.4165 85.575 15.4182C85.574 15.4199 85.573 15.4215 85.572 15.4232C85.571 15.4249 85.57 15.4266 85.5689 15.4283C85.5679 15.43 85.5669 15.4317 85.5659 15.4334C85.5648 15.4351 85.5638 15.4368 85.5628 15.4385C85.5618 15.4402 85.5607 15.442 85.5597 15.4437C85.5586 15.4454 85.5576 15.4472 85.5565 15.4489C85.5555 15.4507 85.5544 15.4524 85.5534 15.4542C85.5523 15.4559 85.5513 15.4577 85.5502 15.4595C85.5491 15.4612 85.5481 15.463 85.547 15.4648C85.5459 15.4666 85.5448 15.4684 85.5438 15.4702C85.5427 15.472 85.5416 15.4738 85.5405 15.4756C85.5394 15.4774 85.5383 15.4793 85.5372 15.4811C85.5361 15.4829 85.535 15.4847 85.5339 15.4866C85.5328 15.4884 85.5317 15.4903 85.5306 15.4921C85.5295 15.494 85.5284 15.4959 85.5272 15.4977C85.5261 15.4996 85.525 15.5015 85.5239 15.5034C85.5227 15.5052 85.5216 15.5071 85.5205 15.509C85.5193 15.5109 85.5182 15.5128 85.517 15.5147C85.5159 15.5166 85.5147 15.5186 85.5136 15.5205C85.5124 15.5224 85.5113 15.5244 85.5101 15.5263C85.5089 15.5282 85.5078 15.5302 85.5066 15.5321C85.5054 15.5341 85.5042 15.536 85.503 15.538C85.5019 15.54 85.5007 15.542 85.4995 15.5439C85.4983 15.5459 85.4971 15.5479 85.4959 15.5499C85.4947 15.5519 85.4935 15.5539 85.4923 15.5559C85.4911 15.5579 85.4899 15.56 85.4887 15.562C85.4874 15.564 85.4862 15.566 85.485 15.5681C85.4838 15.5701 85.4825 15.5722 85.4813 15.5742C85.4801 15.5763 85.4788 15.5783 85.4776 15.5804C85.4764 15.5825 85.4751 15.5846 85.4739 15.5866C85.4726 15.5887 85.4714 15.5908 85.4701 15.5929C85.4688 15.595 85.4676 15.5971 85.4663 15.5992C85.465 15.6013 85.4638 15.6035 85.4625 15.6056C85.4612 15.6077 85.4599 15.6099 85.4586 15.612C85.4573 15.6141 85.456 15.6163 85.4548 15.6185C85.4535 15.6206 85.4522 15.6228 85.4509 15.6249C85.4495 15.6271 85.4482 15.6293 85.4469 15.6315C85.4456 15.6337 85.4443 15.6359 85.443 15.6381C85.4417 15.6403 85.4403 15.6425 85.439 15.6447C85.4377 15.6469 85.4363 15.6492 85.435 15.6514C85.4336 15.6536 85.4323 15.6559 85.4309 15.6581C85.4296 15.6604 85.4282 15.6626 85.4269 15.6649C85.4255 15.6671 85.4242 15.6694 85.4228 15.6717C85.4214 15.674 85.4201 15.6763 85.4187 15.6786C85.4173 15.6809 85.4159 15.6832 85.4145 15.6855C85.4131 15.6878 85.4117 15.6901 85.4103 15.6924C85.409 15.6947 85.4076 15.6971 85.4061 15.6994C85.4047 15.7018 85.4033 15.7041 85.4019 15.7065C85.4005 15.7088 85.3991 15.7112 85.3977 15.7136C85.3962 15.7159 85.3948 15.7183 85.3934 15.7207C85.3919 15.7231 85.3905 15.7255 85.3891 15.7279C85.3876 15.7303 85.3862 15.7327 85.3847 15.7351C85.3833 15.7375 85.3818 15.74 85.3803 15.7424C85.3789 15.7448 85.3774 15.7473 85.3759 15.7497C85.3745 15.7522 85.373 15.7546 85.3715 15.7571C85.37 15.7596 85.3685 15.762 85.3671 15.7645C85.3656 15.767 85.3641 15.7695 85.3626 15.772C85.3611 15.7745 85.3596 15.777 85.358 15.7795C85.3565 15.782 85.355 15.7846 85.3535 15.7871C85.352 15.7896 85.3505 15.7922 85.3489 15.7947C85.3474 15.7973 85.3459 15.7998 85.3443 15.8024C85.3428 15.8049 85.3412 15.8075 85.3397 15.8101C85.3381 15.8127 85.3366 15.8153 85.335 15.8179C85.3335 15.8205 85.3319 15.8231 85.3303 15.8257C85.3288 15.8283 85.3272 15.8309 85.3256 15.8335C85.324 15.8362 85.3225 15.8388 85.3209 15.8415C85.3193 15.8441 85.3177 15.8468 85.3161 15.8494C85.3145 15.8521 85.3129 15.8548 85.3113 15.8574C85.3097 15.8601 85.3081 15.8628 85.3064 15.8655C85.3048 15.8682 85.3032 15.8709 85.3016 15.8736C85.2999 15.8763 85.2983 15.879 85.2967 15.8818C85.295 15.8845 85.2934 15.8872 85.2917 15.89C85.2901 15.8927 85.2884 15.8955 85.2868 15.8982C85.2851 15.901 85.2834 15.9038 85.2818 15.9066C85.2801 15.9093 85.2784 15.9121 85.2768 15.9149C85.2751 15.9177 85.2734 15.9205 85.2717 15.9233C85.27 15.9262 85.2683 15.929 85.2666 15.9318C85.2649 15.9346 85.2632 15.9375 85.2615 15.9403C85.2598 15.9432 85.2581 15.946 85.2564 15.9489C85.2546 15.9518 85.2529 15.9546 85.2512 15.9575C85.2495 15.9604 85.2477 15.9633 85.246 15.9662C85.2442 15.9691 85.2425 15.972 85.2407 15.9749C85.239 15.9778 85.2372 15.9808 85.2355 15.9837C85.2337 15.9866 85.2319 15.9896 85.2302 15.9925C85.2284 15.9955 85.2266 15.9984 85.2248 16.0014C85.2231 16.0044 85.2213 16.0074 85.2195 16.0103C85.2177 16.0133 85.2159 16.0163 85.2141 16.0193C85.2123 16.0223 85.2105 16.0253 85.2086 16.0284C85.2068 16.0314 85.205 16.0344 85.2032 16.0375C85.2014 16.0405 85.1995 16.0436 85.1977 16.0466C85.1959 16.0497 85.194 16.0527 85.1922 16.0558C85.1903 16.0589 85.1885 16.062 85.1866 16.0651C85.1848 16.0682 85.1829 16.0713 85.181 16.0744C85.1792 16.0775 85.1773 16.0806 85.1754 16.0837C85.1735 16.0869 85.1717 16.09 85.1698 16.0931C85.1679 16.0963 85.166 16.0994 85.1641 16.1026C85.1622 16.1058 85.1603 16.109 85.1584 16.1121C85.1564 16.1153 85.1545 16.1185 85.1526 16.1217C85.1507 16.1249 85.1488 16.1281 85.1468 16.1313C85.1449 16.1346 85.143 16.1378 85.141 16.141C85.1391 16.1443 85.1371 16.1475 85.1352 16.1508C85.1332 16.154 85.1312 16.1573 85.1293 16.1606C85.1273 16.1638 85.1253 16.1671 85.1234 16.1704C85.1214 16.1737 85.1194 16.177 85.1174 16.1803C85.1154 16.1836 85.1134 16.187 85.1114 16.1903C85.1094 16.1936 85.1074 16.197 85.1054 16.2003C85.1034 16.2037 85.1014 16.207 85.0994 16.2104C85.0974 16.2138 85.0953 16.2171 85.0933 16.2205C85.0913 16.2239 85.0892 16.2273 85.0872 16.2307C85.0851 16.2341 85.0831 16.2375 85.081 16.2409C85.079 16.2444 85.0769 16.2478 85.0748 16.2512C85.0728 16.2547 85.0707 16.2581 85.0686 16.2616C85.0665 16.2651 85.0645 16.2685 85.0624 16.272C85.0603 16.2755 85.0582 16.279 85.0561 16.2825C85.054 16.286 85.0519 16.2895 85.0498 16.293C85.0477 16.2965 85.0455 16.3001 85.0434 16.3036C85.0413 16.3071 85.0392 16.3107 85.037 16.3142C85.0349 16.3178 85.0327 16.3214 85.0306 16.3249C85.0285 16.3285 85.0263 16.3321 85.0241 16.3357C85.022 16.3393 85.0198 16.3429 85.0177 16.3465C85.0155 16.3501 85.0133 16.3537 85.0111 16.3574C85.0089 16.361 85.0068 16.3646 85.0046 16.3683C85.0024 16.372 85.0002 16.3756 84.998 16.3793C84.9958 16.383 84.9936 16.3866 84.9913 16.3903C84.9891 16.394 84.9869 16.3977 84.9847 16.4014C84.9824 16.4052 84.9802 16.4089 84.978 16.4126C84.9757 16.4163 84.9735 16.4201 84.9712 16.4238C84.969 16.4276 84.9667 16.4313 84.9645 16.4351C84.9622 16.4389 84.9599 16.4427 84.9576 16.4465C84.9554 16.4502 84.9531 16.454 84.9508 16.4579C84.9485 16.4617 84.9462 16.4655 84.9439 16.4693C84.9416 16.4731 84.9393 16.477 84.937 16.4808C84.9347 16.4847 84.9324 16.4885 84.93 16.4924C84.9277 16.4963 84.9254 16.5002 84.9231 16.5041C84.9207 16.5079 84.9184 16.5118 84.916 16.5158C84.9137 16.5197 84.9113 16.5236 84.909 16.5275C84.9066 16.5314 84.9043 16.5354 84.9019 16.5393C84.8995 16.5433 84.8971 16.5472 84.8947 16.5512C84.8924 16.5552 84.89 16.5592 84.8876 16.5632C84.8852 16.5671 84.8828 16.5711 84.8804 16.5752C84.878 16.5792 84.8755 16.5832 84.8731 16.5872C84.8707 16.5913 84.8683 16.5953 84.8658 16.5993C84.8634 16.6034 84.861 16.6075 84.8585 16.6115C84.8561 16.6156 84.8536 16.6197 84.8512 16.6238C84.8487 16.6279 84.8463 16.632 84.8438 16.6361C84.8413 16.6402 84.8388 16.6443 84.8364 16.6485C84.8339 16.6526 84.8314 16.6567 84.8289 16.6609C84.8264 16.6651 84.8239 16.6692 84.8214 16.6734C84.8189 16.6776 84.8164 16.6818 84.8139 16.686C84.8113 16.6901 84.8088 16.6944 84.8063 16.6986C84.8037 16.7028 84.8012 16.707 84.7987 16.7113C84.7961 16.7155 84.7936 16.7197 84.791 16.724C84.7885 16.7283 84.7859 16.7325 84.7833 16.7368C84.7807 16.7411 84.7782 16.7454 84.7756 16.7497C84.773 16.754 84.7704 16.7583 84.7678 16.7626C84.7652 16.7669 84.7626 16.7713 84.76 16.7756C84.7574 16.78 84.7548 16.7843 84.7522 16.7887C84.7496 16.793 84.7469 16.7974 84.7443 16.8018C84.7417 16.8062 84.739 16.8106 84.7364 16.815C84.7337 16.8194 84.7311 16.8238 84.7284 16.8283C84.7258 16.8327 84.7231 16.8371 84.7204 16.8416C84.7178 16.846 84.7151 16.8505 84.7124 16.855C84.7097 16.8594 84.707 16.8639 84.7043 16.8684C84.7016 16.8729 84.6989 16.8774 84.6962 16.8819C84.6935 16.8864 84.6908 16.891 84.688 16.8955C84.6853 16.9 84.6826 16.9046 84.6799 16.9091C84.6771 16.9137 84.6744 16.9183 84.6716 16.9228C84.6689 16.9274 84.6661 16.932 84.6634 16.9366C84.6606 16.9412 84.6578 16.9458 84.6551 16.9504C84.6523 16.9551 84.6495 16.9597 84.6467 16.9643C84.6439 16.969 84.6411 16.9737 84.6383 16.9783C84.6355 16.983 84.6327 16.9877 84.6299 16.9924C84.6271 16.997 84.6243 17.0017 84.6214 17.0065C84.6186 17.0112 84.6158 17.0159 84.6129 17.0206C84.6101 17.0254 84.6072 17.0301 84.6044 17.0349C84.6015 17.0396 84.5987 17.0444 84.5958 17.0492C84.5929 17.0539 84.59 17.0587 84.5872 17.0635C84.5843 17.0683 84.5814 17.0731 84.5785 17.078C84.5756 17.0828 84.5727 17.0876 84.5698 17.0925C84.5669 17.0973 84.564 17.1022 84.5611 17.107C84.5581 17.1119 84.5552 17.1168 84.5523 17.1217C84.5493 17.1265 84.5464 17.1314 84.5434 17.1364C84.5405 17.1413 84.5375 17.1462 84.5346 17.1511C84.5316 17.1561 84.5286 17.161 84.5257 17.166C84.5227 17.1709 84.5197 17.1759 84.5167 17.1809C84.5137 17.1858 84.5107 17.1908 84.5077 17.1958C84.5047 17.2008 84.5017 17.2059 84.4987 17.2109C84.4957 17.2159 84.4927 17.2209 84.4896 17.226C84.4866 17.231 84.4836 17.2361 84.4805 17.2412C84.4775 17.2462 84.4744 17.2513 84.4714 17.2564C84.4683 17.2615 84.4652 17.2666 84.4622 17.2717C84.4591 17.2769 84.456 17.282 84.4529 17.2871C84.4498 17.2923 84.4467 17.2974 84.4436 17.3026C84.4405 17.3077 84.4374 17.3129 84.4343 17.3181C84.4312 17.3233 84.4281 17.3285 84.425 17.3337C84.4218 17.3389 84.4187 17.3441 84.4156 17.3494C84.4124 17.3546 84.4093 17.3598 84.4061 17.3651C84.403 17.3703 84.3998 17.3756 84.3966 17.3809C84.3935 17.3862 84.3903 17.3915 84.3871 17.3968C84.3839 17.4021 84.3807 17.4074 84.3775 17.4127C84.3743 17.418 84.3711 17.4234 84.3679 17.4287C84.3647 17.4341 84.3615 17.4394 84.3583 17.4448C84.355 17.4502 84.3518 17.4556 84.3486 17.461C84.3453 17.4663 84.3421 17.4718 84.3388 17.4772C84.3356 17.4826 84.3323 17.488 84.329 17.4935C84.3258 17.4989 84.3225 17.5044 84.3192 17.5098C84.3159 17.5153 84.3126 17.5208 84.3093 17.5263C84.306 17.5318 84.3027 17.5373 84.2994 17.5428C84.2961 17.5483 84.2928 17.5538 84.2895 17.5594C84.2861 17.5649 84.2828 17.5705 84.2795 17.576C84.2761 17.5816 84.2728 17.5872 84.2694 17.5927C84.2661 17.5983 84.2627 17.6039 84.2593 17.6095C84.256 17.6152 84.2526 17.6208 84.2492 17.6264C84.2458 17.632 84.2424 17.6377 84.2391 17.6434C84.2356 17.649 84.2322 17.6547 84.2288 17.6604C84.2254 17.6661 84.222 17.6718 84.2186 17.6775C84.2151 17.6832 84.2117 17.6889 84.2083 17.6946C84.2048 17.7003 84.2014 17.7061 84.1979 17.7119C84.1945 17.7176 84.191 17.7234 84.1875 17.7292C84.1841 17.7349 84.1806 17.7407 84.1771 17.7465C84.1736 17.7523 84.1701 17.7582 84.1666 17.764C84.1631 17.7698 84.1596 17.7757 84.1561 17.7815C84.1526 17.7874 84.1491 17.7932 84.1455 17.7991C84.142 17.805 84.1385 17.8109 84.1349 17.8168C84.1314 17.8227 84.1278 17.8286 84.1243 17.8345C84.1207 17.8405 84.1171 17.8464 84.1136 17.8524C84.11 17.8583 84.1064 17.8643 84.1028 17.8703C84.0992 17.8762 84.0956 17.8822 84.092 17.8882C84.0884 17.8942 84.0848 17.9003 84.0812 17.9063C84.0776 17.9123 84.074 17.9183 84.0703 17.9244C84.0667 17.9305 84.063 17.9365 84.0594 17.9426C84.0557 17.9487 84.0521 17.9548 84.0484 17.9609C84.0448 17.967 84.0411 17.9731 84.0374 17.9792C84.0337 17.9853 84.03 17.9915 84.0263 17.9976C84.0227 18.0038 84.019 18.01 84.0152 18.0161C84.0115 18.0223 84.0078 18.0285 84.0041 18.0347C84.0004 18.0409 83.9966 18.0471 83.9929 18.0534C83.9892 18.0596 83.9854 18.0658 83.9817 18.0721C83.9779 18.0783 83.9741 18.0846 83.9704 18.0909C83.9666 18.0972 83.9628 18.1035 83.959 18.1098C83.9552 18.1161 83.9514 18.1224 83.9476 18.1287C83.9438 18.1351 83.94 18.1414 83.9362 18.1478C83.9324 18.1541 83.9286 18.1605 83.9247 18.1669C83.9209 18.1732 83.9171 18.1796 83.9132 18.186C83.9094 18.1925 83.9055 18.1989 83.9017 18.2053C83.8978 18.2117 83.8939 18.2182 83.8901 18.2247C83.8862 18.2311 83.8823 18.2376 83.8784 18.2441C83.8745 18.2506 83.8706 18.2571 83.8667 18.2636C83.8628 18.2701 83.8589 18.2766 83.8549 18.2831C83.851 18.2897 83.8471 18.2962 83.8431 18.3028C83.8392 18.3094 83.8353 18.3159 83.8313 18.3225C83.8273 18.3291 83.8234 18.3357 83.8194 18.3423C83.8154 18.3489 83.8114 18.3556 83.8075 18.3622C83.8035 18.3689 83.7995 18.3755 83.7955 18.3822C83.7915 18.3889 83.7875 18.3955 83.7834 18.4022C83.7794 18.4089 83.7754 18.4156 83.7714 18.4223C83.7673 18.4291 83.7633 18.4358 83.7592 18.4426C83.7552 18.4493 83.7511 18.4561 83.7471 18.4628L85.8904 19.7497C85.8945 19.7429 85.8986 19.7361 85.9026 19.7294C85.9067 19.7226 85.9107 19.7159 85.9147 19.7092C85.9188 19.7025 85.9228 19.6958 85.9268 19.6891C85.9308 19.6824 85.9348 19.6757 85.9389 19.669C85.9429 19.6623 85.9468 19.6557 85.9508 19.6491C85.9548 19.6424 85.9588 19.6358 85.9628 19.6292C85.9667 19.6225 85.9707 19.6159 85.9747 19.6094C85.9786 19.6028 85.9826 19.5962 85.9865 19.5896C85.9905 19.5831 85.9944 19.5765 85.9983 19.57C86.0022 19.5634 86.0061 19.5569 86.0101 19.5504C86.014 19.5439 86.0179 19.5374 86.0218 19.5309C86.0257 19.5244 86.0295 19.5179 86.0334 19.5115C86.0373 19.505 86.0412 19.4986 86.045 19.4921C86.0489 19.4857 86.0528 19.4793 86.0566 19.4729C86.0604 19.4665 86.0643 19.4601 86.0681 19.4537C86.072 19.4473 86.0758 19.4409 86.0796 19.4346C86.0834 19.4282 86.0872 19.4219 86.091 19.4156C86.0948 19.4092 86.0986 19.4029 86.1024 19.3966C86.1062 19.3903 86.11 19.384 86.1137 19.3777C86.1175 19.3714 86.1213 19.3652 86.125 19.3589C86.1288 19.3527 86.1325 19.3464 86.1363 19.3402C86.14 19.334 86.1437 19.3277 86.1475 19.3215C86.1512 19.3153 86.1549 19.3091 86.1586 19.303C86.1623 19.2968 86.166 19.2906 86.1697 19.2845C86.1734 19.2783 86.1771 19.2722 86.1808 19.266C86.1845 19.2599 86.1881 19.2538 86.1918 19.2477C86.1955 19.2416 86.1991 19.2355 86.2028 19.2294C86.2064 19.2234 86.2101 19.2173 86.2137 19.2112C86.2173 19.2052 86.221 19.1991 86.2246 19.1931C86.2282 19.1871 86.2318 19.1811 86.2354 19.1751C86.239 19.1691 86.2426 19.1631 86.2462 19.1571C86.2498 19.1511 86.2534 19.1452 86.2569 19.1392C86.2605 19.1332 86.2641 19.1273 86.2676 19.1214C86.2712 19.1154 86.2747 19.1095 86.2783 19.1036C86.2818 19.0977 86.2854 19.0918 86.2889 19.086C86.2924 19.0801 86.296 19.0742 86.2995 19.0684C86.303 19.0625 86.3065 19.0567 86.31 19.0508C86.3135 19.045 86.317 19.0392 86.3205 19.0334C86.324 19.0276 86.3274 19.0218 86.3309 19.016C86.3344 19.0102 86.3378 19.0044 86.3413 18.9987C86.3448 18.9929 86.3482 18.9872 86.3516 18.9815C86.3551 18.9757 86.3585 18.97 86.3619 18.9643C86.3654 18.9586 86.3688 18.9529 86.3722 18.9472C86.3756 18.9415 86.379 18.9358 86.3824 18.9302C86.3858 18.9245 86.3892 18.9189 86.3926 18.9132C86.396 18.9076 86.3994 18.902 86.4027 18.8964C86.4061 18.8908 86.4095 18.8852 86.4128 18.8796C86.4162 18.874 86.4195 18.8684 86.4229 18.8629C86.4262 18.8573 86.4295 18.8517 86.4328 18.8462C86.4362 18.8407 86.4395 18.8351 86.4428 18.8296C86.4461 18.8241 86.4494 18.8186 86.4527 18.8131C86.456 18.8076 86.4593 18.8021 86.4626 18.7967C86.4659 18.7912 86.4691 18.7858 86.4724 18.7803C86.4757 18.7749 86.4789 18.7694 86.4822 18.764C86.4855 18.7586 86.4887 18.7532 86.4919 18.7478C86.4952 18.7424 86.4984 18.737 86.5016 18.7316C86.5049 18.7263 86.5081 18.7209 86.5113 18.7155C86.5145 18.7102 86.5177 18.7049 86.5209 18.6995C86.5241 18.6942 86.5273 18.6889 86.5305 18.6836C86.5337 18.6783 86.5368 18.673 86.54 18.6677C86.5432 18.6624 86.5463 18.6572 86.5495 18.6519C86.5527 18.6467 86.5558 18.6414 86.5589 18.6362C86.5621 18.631 86.5652 18.6257 86.5683 18.6205C86.5715 18.6153 86.5746 18.6101 86.5777 18.6049C86.5808 18.5997 86.5839 18.5946 86.587 18.5894C86.5901 18.5842 86.5932 18.5791 86.5963 18.574C86.5994 18.5688 86.6025 18.5637 86.6055 18.5586C86.6086 18.5535 86.6117 18.5483 86.6147 18.5433C86.6178 18.5382 86.6208 18.5331 86.6239 18.528C86.6269 18.5229 86.63 18.5179 86.633 18.5128C86.636 18.5078 86.6391 18.5027 86.6421 18.4977C86.6451 18.4927 86.6481 18.4877 86.6511 18.4827C86.6541 18.4777 86.6571 18.4727 86.6601 18.4677C86.6631 18.4627 86.6661 18.4578 86.669 18.4528C86.672 18.4478 86.675 18.4429 86.6779 18.438C86.6809 18.433 86.6839 18.4281 86.6868 18.4232C86.6898 18.4183 86.6927 18.4134 86.6956 18.4085C86.6986 18.4036 86.7015 18.3987 86.7044 18.3939C86.7074 18.389 86.7103 18.3841 86.7132 18.3793C86.7161 18.3744 86.719 18.3696 86.7219 18.3648C86.7248 18.36 86.7277 18.3552 86.7305 18.3504C86.7334 18.3456 86.7363 18.3408 86.7392 18.336C86.742 18.3312 86.7449 18.3264 86.7478 18.3217C86.7506 18.3169 86.7535 18.3122 86.7563 18.3075C86.7591 18.3027 86.762 18.298 86.7648 18.2933C86.7676 18.2886 86.7705 18.2839 86.7733 18.2792C86.7761 18.2745 86.7789 18.2698 86.7817 18.2652C86.7845 18.2605 86.7873 18.2558 86.7901 18.2512C86.7929 18.2465 86.7957 18.2419 86.7984 18.2373C86.8012 18.2327 86.804 18.228 86.8067 18.2234C86.8095 18.2188 86.8123 18.2143 86.815 18.2097C86.8178 18.2051 86.8205 18.2005 86.8232 18.196C86.826 18.1914 86.8287 18.1869 86.8314 18.1823C86.8342 18.1778 86.8369 18.1733 86.8396 18.1687C86.8423 18.1642 86.845 18.1597 86.8477 18.1552C86.8504 18.1507 86.8531 18.1463 86.8558 18.1418C86.8584 18.1373 86.8611 18.1329 86.8638 18.1284C86.8665 18.124 86.8691 18.1195 86.8718 18.1151C86.8745 18.1107 86.8771 18.1062 86.8798 18.1018C86.8824 18.0974 86.885 18.093 86.8877 18.0886C86.8903 18.0843 86.8929 18.0799 86.8956 18.0755C86.8982 18.0712 86.9008 18.0668 86.9034 18.0625C86.906 18.0581 86.9086 18.0538 86.9112 18.0495C86.9138 18.0451 86.9164 18.0408 86.919 18.0365C86.9215 18.0322 86.9241 18.0279 86.9267 18.0236C86.9293 18.0194 86.9318 18.0151 86.9344 18.0108C86.9369 18.0066 86.9395 18.0023 86.942 17.9981C86.9446 17.9939 86.9471 17.9896 86.9496 17.9854C86.9522 17.9812 86.9547 17.977 86.9572 17.9728C86.9597 17.9686 86.9623 17.9644 86.9648 17.9602C86.9673 17.9561 86.9698 17.9519 86.9723 17.9477C86.9748 17.9436 86.9772 17.9394 86.9797 17.9353C86.9822 17.9312 86.9847 17.927 86.9872 17.9229C86.9896 17.9188 86.9921 17.9147 86.9946 17.9106C86.997 17.9065 86.9995 17.9024 87.0019 17.8984C87.0043 17.8943 87.0068 17.8902 87.0092 17.8862C87.0117 17.8821 87.0141 17.8781 87.0165 17.8741C87.0189 17.87 87.0213 17.866 87.0237 17.862C87.0262 17.858 87.0286 17.854 87.031 17.85C87.0333 17.846 87.0357 17.842 87.0381 17.838C87.0405 17.8341 87.0429 17.8301 87.0453 17.8262C87.0476 17.8222 87.05 17.8183 87.0524 17.8143C87.0547 17.8104 87.0571 17.8065 87.0594 17.8026C87.0618 17.7987 87.0641 17.7948 87.0664 17.7909C87.0688 17.787 87.0711 17.7831 87.0734 17.7792C87.0757 17.7754 87.0781 17.7715 87.0804 17.7677C87.0827 17.7638 87.085 17.76 87.0873 17.7561C87.0896 17.7523 87.0919 17.7485 87.0942 17.7447C87.0965 17.7409 87.0987 17.7371 87.101 17.7333C87.1033 17.7295 87.1056 17.7257 87.1078 17.7219C87.1101 17.7182 87.1124 17.7144 87.1146 17.7107C87.1169 17.7069 87.1191 17.7032 87.1213 17.6994C87.1236 17.6957 87.1258 17.692 87.128 17.6883C87.1303 17.6846 87.1325 17.6809 87.1347 17.6772C87.1369 17.6735 87.1391 17.6698 87.1413 17.6661C87.1435 17.6625 87.1457 17.6588 87.1479 17.6551C87.1501 17.6515 87.1523 17.6478 87.1545 17.6442C87.1567 17.6406 87.1589 17.6369 87.161 17.6333C87.1632 17.6297 87.1654 17.6261 87.1675 17.6225C87.1697 17.6189 87.1718 17.6153 87.174 17.6118C87.1761 17.6082 87.1783 17.6046 87.1804 17.6011C87.1825 17.5975 87.1847 17.594 87.1868 17.5904C87.1889 17.5869 87.191 17.5834 87.1931 17.5798C87.1953 17.5763 87.1974 17.5728 87.1995 17.5693C87.2016 17.5658 87.2037 17.5623 87.2057 17.5588C87.2078 17.5554 87.2099 17.5519 87.212 17.5484C87.2141 17.545 87.2161 17.5415 87.2182 17.5381C87.2203 17.5346 87.2223 17.5312 87.2244 17.5278C87.2265 17.5244 87.2285 17.5209 87.2306 17.5175C87.2326 17.5141 87.2346 17.5107 87.2367 17.5073C87.2387 17.504 87.2407 17.5006 87.2427 17.4972C87.2448 17.4939 87.2468 17.4905 87.2488 17.4871C87.2508 17.4838 87.2528 17.4805 87.2548 17.4771C87.2568 17.4738 87.2588 17.4705 87.2608 17.4672C87.2628 17.4639 87.2648 17.4605 87.2667 17.4573C87.2687 17.454 87.2707 17.4507 87.2727 17.4474C87.2746 17.4441 87.2766 17.4409 87.2785 17.4376C87.2805 17.4344 87.2824 17.4311 87.2844 17.4279C87.2863 17.4246 87.2883 17.4214 87.2902 17.4182C87.2921 17.415 87.2941 17.4117 87.296 17.4085C87.2979 17.4053 87.2998 17.4022 87.3017 17.399C87.3036 17.3958 87.3055 17.3926 87.3074 17.3894C87.3093 17.3863 87.3112 17.3831 87.3131 17.38C87.315 17.3768 87.3169 17.3737 87.3188 17.3706C87.3207 17.3674 87.3225 17.3643 87.3244 17.3612C87.3263 17.3581 87.3281 17.355 87.33 17.3519C87.3319 17.3488 87.3337 17.3457 87.3355 17.3426C87.3374 17.3396 87.3392 17.3365 87.3411 17.3334C87.3429 17.3304 87.3447 17.3273 87.3466 17.3243C87.3484 17.3213 87.3502 17.3182 87.352 17.3152C87.3538 17.3122 87.3557 17.3092 87.3575 17.3062C87.3593 17.3032 87.3611 17.3002 87.3628 17.2972C87.3646 17.2942 87.3664 17.2912 87.3682 17.2882C87.37 17.2853 87.3718 17.2823 87.3735 17.2794C87.3753 17.2764 87.3771 17.2735 87.3788 17.2705C87.3806 17.2676 87.3824 17.2647 87.3841 17.2618C87.3859 17.2588 87.3876 17.2559 87.3894 17.253C87.3911 17.2501 87.3928 17.2472 87.3946 17.2444C87.3963 17.2415 87.398 17.2386 87.3997 17.2357C87.4015 17.2329 87.4032 17.23 87.4049 17.2272C87.4066 17.2243 87.4083 17.2215 87.41 17.2186C87.4117 17.2158 87.4134 17.213 87.4151 17.2102C87.4168 17.2074 87.4185 17.2046 87.4201 17.2018C87.4218 17.199 87.4235 17.1962 87.4252 17.1934C87.4268 17.1906 87.4285 17.1878 87.4301 17.1851C87.4318 17.1823 87.4335 17.1796 87.4351 17.1768C87.4368 17.1741 87.4384 17.1713 87.44 17.1686C87.4417 17.1659 87.4433 17.1632 87.4449 17.1604C87.4466 17.1577 87.4482 17.155 87.4498 17.1523C87.4514 17.1496 87.453 17.1469 87.4547 17.1443C87.4563 17.1416 87.4579 17.1389 87.4595 17.1363C87.4611 17.1336 87.4627 17.1309 87.4642 17.1283C87.4658 17.1256 87.4674 17.123 87.469 17.1204C87.4706 17.1177 87.4721 17.1151 87.4737 17.1125C87.4753 17.1099 87.4768 17.1073 87.4784 17.1047C87.48 17.1021 87.4815 17.0995 87.4831 17.0969C87.4846 17.0944 87.4862 17.0918 87.4877 17.0892C87.4892 17.0867 87.4908 17.0841 87.4923 17.0816C87.4938 17.079 87.4954 17.0765 87.4969 17.0739C87.4984 17.0714 87.4999 17.0689 87.5014 17.0664C87.5029 17.0638 87.5044 17.0613 87.5059 17.0588C87.5074 17.0563 87.5089 17.0539 87.5104 17.0514C87.5119 17.0489 87.5134 17.0464 87.5149 17.0439C87.5164 17.0415 87.5178 17.039 87.5193 17.0366C87.5208 17.0341 87.5223 17.0317 87.5237 17.0292C87.5252 17.0268 87.5266 17.0244 87.5281 17.022C87.5295 17.0195 87.531 17.0171 87.5324 17.0147C87.5339 17.0123 87.5353 17.0099 87.5367 17.0075C87.5382 17.0051 87.5396 17.0028 87.541 17.0004C87.5425 16.998 87.5439 16.9957 87.5453 16.9933C87.5467 16.9909 87.5481 16.9886 87.5495 16.9863C87.5509 16.9839 87.5523 16.9816 87.5537 16.9793C87.5551 16.9769 87.5565 16.9746 87.5579 16.9723C87.5593 16.97 87.5607 16.9677 87.562 16.9654C87.5634 16.9631 87.5648 16.9608 87.5662 16.9585C87.5675 16.9563 87.5689 16.954 87.5703 16.9517C87.5716 16.9495 87.573 16.9472 87.5743 16.9449C87.5757 16.9427 87.577 16.9405 87.5784 16.9382C87.5797 16.936 87.581 16.9338 87.5824 16.9315C87.5837 16.9293 87.585 16.9271 87.5863 16.9249C87.5877 16.9227 87.589 16.9205 87.5903 16.9183C87.5916 16.9161 87.5929 16.914 87.5942 16.9118C87.5955 16.9096 87.5968 16.9074 87.5981 16.9053C87.5994 16.9031 87.6007 16.901 87.602 16.8988C87.6033 16.8967 87.6046 16.8946 87.6059 16.8924C87.6071 16.8903 87.6084 16.8882 87.6097 16.8861C87.6109 16.884 87.6122 16.8818 87.6135 16.8797C87.6147 16.8776 87.616 16.8756 87.6172 16.8735C87.6185 16.8714 87.6197 16.8693 87.621 16.8672C87.6222 16.8652 87.6235 16.8631 87.6247 16.8611C87.6259 16.859 87.6272 16.857 87.6284 16.8549C87.6296 16.8529 87.6308 16.8508 87.632 16.8488C87.6332 16.8468 87.6345 16.8448 87.6357 16.8428C87.6369 16.8407 87.6381 16.8387 87.6393 16.8367C87.6405 16.8347 87.6417 16.8328 87.6429 16.8308C87.6441 16.8288 87.6452 16.8268 87.6464 16.8249C87.6476 16.8229 87.6488 16.8209 87.65 16.819C87.6511 16.817 87.6523 16.8151 87.6535 16.8131C87.6546 16.8112 87.6558 16.8093 87.6569 16.8073C87.6581 16.8054 87.6592 16.8035 87.6604 16.8016C87.6615 16.7997 87.6627 16.7978 87.6638 16.7959C87.665 16.794 87.6661 16.7921 87.6672 16.7902C87.6684 16.7883 87.6695 16.7864 87.6706 16.7846C87.6717 16.7827 87.6729 16.7808 87.674 16.779C87.6751 16.7771 87.6762 16.7753 87.6773 16.7734C87.6784 16.7716 87.6795 16.7697 87.6806 16.7679C87.6817 16.7661 87.6828 16.7643 87.6839 16.7625C87.685 16.7606 87.6861 16.7588 87.6871 16.757C87.6882 16.7552 87.6893 16.7534 87.6904 16.7516C87.6914 16.7499 87.6925 16.7481 87.6936 16.7463C87.6946 16.7445 87.6957 16.7428 87.6968 16.741C87.6978 16.7392 87.6989 16.7375 87.6999 16.7357C87.701 16.734 87.702 16.7323 87.7031 16.7305C87.7041 16.7288 87.7051 16.7271 87.7062 16.7253C87.7072 16.7236 87.7082 16.7219 87.7093 16.7202C87.7103 16.7185 87.7113 16.7168 87.7123 16.7151C87.7133 16.7134 87.7143 16.7117 87.7153 16.71C87.7164 16.7084 87.7174 16.7067 87.7184 16.705C87.7194 16.7034 87.7204 16.7017 87.7214 16.7C87.7224 16.6984 87.7233 16.6967 87.7243 16.6951C87.7253 16.6935 87.7263 16.6918 87.7273 16.6902C87.7282 16.6886 87.7292 16.6869 87.7302 16.6853C87.7312 16.6837 87.7321 16.6821 87.7331 16.6805C87.734 16.6789 87.735 16.6773 87.736 16.6757C87.7369 16.6741 87.7379 16.6725 87.7388 16.671C87.7398 16.6694 87.7407 16.6678 87.7416 16.6663C87.7426 16.6647 87.7435 16.6631 87.7444 16.6616C87.7454 16.66 87.7463 16.6585 87.7472 16.657C87.7481 16.6554 87.7491 16.6539 87.75 16.6524C87.7509 16.6508 87.7518 16.6493 87.7527 16.6478C87.7536 16.6463 87.7545 16.6448 87.7554 16.6433C87.7563 16.6418 87.7572 16.6403 87.7581 16.6388C87.759 16.6373 87.7599 16.6358 87.7608 16.6343C87.7617 16.6329 87.7626 16.6314 87.7634 16.6299C87.7643 16.6285 87.7652 16.627 87.7661 16.6256C87.7669 16.6241 87.7678 16.6227 87.7687 16.6212C87.7695 16.6198 87.7704 16.6184 87.7713 16.6169C87.7721 16.6155 87.773 16.6141 87.7738 16.6127C87.7747 16.6113 87.7755 16.6098 87.7764 16.6084C87.7772 16.607 87.778 16.6056 87.7789 16.6043C87.7797 16.6029 87.7805 16.6015 87.7814 16.6001C87.7822 16.5987 87.783 16.5973 87.7838 16.596C87.7847 16.5946 87.7855 16.5933 87.7863 16.5919C87.7871 16.5905 87.7879 16.5892 87.7887 16.5878C87.7895 16.5865 87.7903 16.5852 87.7911 16.5838C87.7919 16.5825 87.7927 16.5812 87.7935 16.5799C87.7943 16.5785 87.7951 16.5772 87.7959 16.5759C87.7967 16.5746 87.7974 16.5733 87.7982 16.572C87.799 16.5707 87.7998 16.5694 87.8005 16.5681C87.8013 16.5669 87.8021 16.5656 87.8028 16.5643C87.8036 16.563 87.8044 16.5618 87.8051 16.5605C87.8059 16.5592 87.8066 16.558 87.8074 16.5567C87.8082 16.5555 87.8089 16.5542 87.8096 16.553C87.8104 16.5518 87.8111 16.5505 87.8119 16.5493C87.8126 16.5481 87.8133 16.5468 87.8141 16.5456C87.8148 16.5444 87.8155 16.5432 87.8162 16.542C87.817 16.5408 87.8177 16.5396 87.8184 16.5384C87.8191 16.5372 87.8198 16.536 87.8205 16.5348C87.8213 16.5336 87.822 16.5325 87.8227 16.5313C87.8234 16.5301 87.8241 16.529 87.8248 16.5278C87.8255 16.5266 87.8262 16.5255 87.8269 16.5243C87.8275 16.5232 87.8282 16.522 87.8289 16.5209C87.8296 16.5198 87.8303 16.5186 87.831 16.5175C87.8316 16.5164 87.8323 16.5152 87.833 16.5141C87.8336 16.513 87.8343 16.5119 87.835 16.5108C87.8356 16.5097 87.8363 16.5086 87.837 16.5075C87.8376 16.5064 87.8383 16.5053 87.8389 16.5042C87.8396 16.5031 87.8402 16.502 87.8409 16.501C87.8415 16.4999 87.8422 16.4988 87.8428 16.4977C87.8434 16.4967 87.8441 16.4956 87.8447 16.4946C87.8453 16.4935 87.846 16.4925 87.8466 16.4914C87.8472 16.4904 87.8479 16.4893 87.8485 16.4883C87.8491 16.4873 87.8497 16.4862 87.8503 16.4852C87.8509 16.4842 87.8516 16.4832 87.8522 16.4822C87.8528 16.4812 87.8534 16.4801 87.854 16.4791C87.8546 16.4781 87.8552 16.4771 87.8558 16.4762C87.8564 16.4752 87.857 16.4742 87.8576 16.4732C87.8581 16.4722 87.8587 16.4712 87.8593 16.4703C87.8599 16.4693 87.8605 16.4683 87.8611 16.4674C87.8616 16.4664 87.8622 16.4654 87.8628 16.4645C87.8633 16.4635 87.8639 16.4626 87.8645 16.4616C87.8651 16.4607 87.8656 16.4598 87.8662 16.4588C87.8667 16.4579 87.8673 16.457 87.8679 16.456C87.8684 16.4551 87.8689 16.4542 87.8695 16.4533C87.87 16.4524 87.8706 16.4515 87.8711 16.4506C87.8717 16.4497 87.8722 16.4488 87.8728 16.4479C87.8733 16.447 87.8738 16.4461 87.8744 16.4452C87.8749 16.4443 87.8754 16.4434 87.8759 16.4426C87.8765 16.4417 87.877 16.4408 87.8775 16.4399C87.878 16.4391 87.8785 16.4382 87.8791 16.4374C87.8796 16.4365 87.8801 16.4357 87.8806 16.4348C87.8811 16.434 87.8816 16.4331 87.8821 16.4323C87.8826 16.4314 87.8831 16.4306 87.8836 16.4298C87.8841 16.429 87.8846 16.4281 87.8851 16.4273C87.8856 16.4265 87.8861 16.4257 87.8866 16.4249C87.887 16.4241 87.8875 16.4233 87.888 16.4225C87.8885 16.4217 87.889 16.4209 87.8894 16.4201C87.8899 16.4193 87.8904 16.4185 87.8909 16.4177C87.8913 16.4169 87.8918 16.4162 87.8923 16.4154C87.8927 16.4146 87.8932 16.4138 87.8936 16.4131C87.8941 16.4123 87.8946 16.4116 87.895 16.4108C87.8955 16.41 87.8959 16.4093 87.8964 16.4085C87.8968 16.4078 87.8973 16.4071 87.8977 16.4063C87.8981 16.4056 87.8986 16.4048 87.899 16.4041C87.8995 16.4034 87.8999 16.4027 87.9003 16.4019C87.9008 16.4012 87.9012 16.4005 87.9016 16.3998C87.902 16.3991 87.9025 16.3984 87.9029 16.3977C87.9033 16.397 87.9037 16.3963 87.9042 16.3956C87.9046 16.3949 87.905 16.3942 87.9054 16.3935C87.9058 16.3928 87.9062 16.3921 87.9066 16.3914C87.907 16.3908 87.9074 16.3901 87.9078 16.3894C87.9082 16.3888 87.9086 16.3881 87.909 16.3874C87.9094 16.3868 87.9098 16.3861 87.9102 16.3855C87.9106 16.3848 87.911 16.3842 87.9114 16.3835C87.9118 16.3829 87.9122 16.3822 87.9125 16.3816C87.9129 16.381 87.9133 16.3803 87.9137 16.3797C87.9141 16.3791 87.9144 16.3784 87.9148 16.3778C87.9152 16.3772 87.9156 16.3766 87.9159 16.376C87.9163 16.3754 87.9167 16.3747 87.917 16.3741C87.9174 16.3735 87.9177 16.3729 87.9181 16.3723C87.9185 16.3717 87.9188 16.3711 87.9192 16.3706C87.9195 16.37 87.9199 16.3694 87.9202 16.3688C87.9206 16.3682 87.9209 16.3676 87.9213 16.3671C87.9216 16.3665 87.922 16.3659 87.9223 16.3654C87.9226 16.3648 87.923 16.3642 87.9233 16.3637C87.9236 16.3631 87.924 16.3626 87.9243 16.362C87.9246 16.3615 87.925 16.3609 87.9253 16.3604C87.9256 16.3598 87.9259 16.3593 87.9263 16.3587C87.9266 16.3582 87.9269 16.3577 87.9272 16.3572C87.9275 16.3566 87.9278 16.3561 87.9282 16.3556C87.9285 16.3551 87.9288 16.3545 87.9291 16.354C87.9294 16.3535 87.9297 16.353 87.93 16.3525C87.9303 16.352 87.9306 16.3515 87.9309 16.351C87.9312 16.3505 87.9315 16.35 87.9318 16.3495C87.9321 16.349 87.9324 16.3485 87.9327 16.348C87.933 16.3475 87.9333 16.3471 87.9336 16.3466C87.9338 16.3461 87.9341 16.3456 87.9344 16.3452C87.9347 16.3447 87.935 16.3442 87.9353 16.3438C87.9355 16.3433 87.9358 16.3428 87.9361 16.3424C87.9364 16.3419 87.9366 16.3415 87.9369 16.341C87.9372 16.3406 87.9374 16.3401 87.9377 16.3397C87.938 16.3392 87.9382 16.3388 87.9385 16.3384C87.9388 16.3379 87.939 16.3375 87.9393 16.3371C87.9395 16.3366 87.9398 16.3362 87.94 16.3358C87.9403 16.3354 87.9406 16.3349 87.9408 16.3345C87.9411 16.3341 87.9413 16.3337 87.9416 16.3333C87.9418 16.3329 87.942 16.3325 87.9423 16.3321C87.9425 16.3317 87.9428 16.3313 87.943 16.3309C87.9432 16.3305 87.9435 16.3301 87.9437 16.3297C87.9439 16.3293 87.9442 16.3289 87.9444 16.3285C87.9446 16.3281 87.9449 16.3277 87.9451 16.3274C87.9453 16.327 87.9455 16.3266 87.9458 16.3262C87.946 16.3259 87.9462 16.3255 87.9464 16.3251C87.9467 16.3248 87.9469 16.3244 87.9471 16.324C87.9473 16.3237 87.9475 16.3233 87.9477 16.323C87.9479 16.3226 87.9482 16.3223 87.9484 16.3219C87.9486 16.3216 87.9488 16.3212 87.949 16.3209C87.9492 16.3205 87.9494 16.3202 87.9496 16.3199C87.9498 16.3195 87.95 16.3192 87.9502 16.3189C87.9504 16.3185 87.9506 16.3182 87.9508 16.3179C87.951 16.3176 87.9512 16.3172 87.9514 16.3169C87.9516 16.3166 87.9517 16.3163 87.9519 16.316C87.9521 16.3157 87.9523 16.3154 87.9525 16.3151C87.9527 16.3147 87.9529 16.3144 87.953 16.3141C87.9532 16.3138 87.9534 16.3135 87.9536 16.3132C87.9538 16.313 87.9539 16.3127 87.9541 16.3124C87.9543 16.3121 87.9545 16.3118 87.9546 16.3115C87.9548 16.3112 87.955 16.3109 87.9551 16.3107C87.9553 16.3104 87.9555 16.3101 87.9556 16.3098C87.9558 16.3096 87.956 16.3093 87.9561 16.309C87.9563 16.3087 87.9564 16.3085 87.9566 16.3082C87.9568 16.308 87.9569 16.3077 87.9571 16.3074C87.9572 16.3072 87.9574 16.3069 87.9575 16.3067C87.9577 16.3064 87.9578 16.3062 87.958 16.3059C87.9581 16.3057 87.9583 16.3054 87.9584 16.3052C87.9586 16.3049 87.9587 16.3047 87.9589 16.3045C87.959 16.3042 87.9591 16.304 87.9593 16.3037C87.9594 16.3035 87.9596 16.3033 87.9597 16.3031C87.9598 16.3028 87.96 16.3026 87.9601 16.3024C87.9602 16.3022 87.9604 16.3019 87.9605 16.3017C87.9606 16.3015 87.9608 16.3013 87.9609 16.3011C87.961 16.3009 87.9611 16.3006 87.9613 16.3004C87.9614 16.3002 87.9615 16.3 87.9616 16.2998C87.9618 16.2996 87.9619 16.2994 87.962 16.2992C87.9621 16.299 87.9622 16.2988 87.9624 16.2986C87.9625 16.2984 87.9626 16.2982 87.9627 16.298C87.9628 16.2978 87.9629 16.2976 87.9631 16.2975C87.9632 16.2973 87.9633 16.2971 87.9634 16.2969C87.9635 16.2967 87.9636 16.2965 87.9637 16.2964C87.9638 16.2962 87.9639 16.296 87.964 16.2958C87.9641 16.2957 87.9642 16.2955 87.9643 16.2953C87.9644 16.2952 87.9645 16.295 87.9646 16.2948C87.9647 16.2947 87.9648 16.2945 87.9649 16.2943C87.965 16.2942 87.9651 16.294 87.9652 16.2939C87.9653 16.2937 87.9654 16.2935 87.9655 16.2934C87.9656 16.2932 87.9657 16.2931 87.9658 16.2929C87.9659 16.2928 87.966 16.2926 87.966 16.2925C87.9661 16.2923 87.9662 16.2922 87.9663 16.2921C87.9664 16.2919 87.9665 16.2918 87.9665 16.2916C87.9666 16.2915 87.9667 16.2914 87.9668 16.2912C87.9669 16.2911 87.9669 16.291 87.967 16.2908C87.9671 16.2907 87.9672 16.2906 87.9673 16.2905C87.9673 16.2903 87.9674 16.2902 87.9675 16.2901C87.9676 16.29 87.9676 16.2898 87.9677 16.2897C87.9678 16.2896 87.9678 16.2895 87.9679 16.2894C87.968 16.2892 87.9681 16.2891 87.9681 16.289C87.9682 16.2889 87.9683 16.2888 87.9683 16.2887C87.9684 16.2886 87.9685 16.2885 87.9685 16.2884C87.9686 16.2883 87.9686 16.2882 87.9687 16.2881C87.9688 16.288 87.9688 16.2879 87.9689 16.2878C87.9689 16.2877 87.969 16.2876 87.9691 16.2875C87.9691 16.2874 87.9692 16.2873 87.9692 16.2872C87.9693 16.2871 87.9693 16.287 87.9694 16.2869C87.9695 16.2868 87.9695 16.2867 87.9696 16.2866C87.9696 16.2865 87.9697 16.2865 87.9697 16.2864C87.9698 16.2863 87.9698 16.2862 87.9699 16.2861C87.9699 16.286 87.97 16.286 87.97 16.2859C87.97 16.2858 87.9701 16.2857 87.9701 16.2857C87.9702 16.2856 87.9702 16.2855 87.9703 16.2854C87.9703 16.2854 87.9704 16.2853 87.9704 16.2852C87.9704 16.2852 87.9705 16.2851 87.9705 16.285C87.9706 16.285 87.9706 16.2849 87.9706 16.2848C87.9707 16.2848 87.9707 16.2847 87.9708 16.2846C87.9708 16.2846 87.9708 16.2845 87.9709 16.2845C87.9709 16.2844 87.9709 16.2843 87.971 16.2843C87.971 16.2842 87.971 16.2842 87.9711 16.2841C87.9711 16.2841 87.9711 16.284 87.9712 16.2839C87.9712 16.2839 87.9712 16.2838 87.9713 16.2838C87.9713 16.2837 87.9713 16.2837 87.9714 16.2836C87.9714 16.2836 87.9714 16.2836 87.9714 16.2835C87.9715 16.2835 87.9715 16.2834 87.9715 16.2834C87.9715 16.2833 87.9716 16.2833 87.9716 16.2832C87.9716 16.2832 87.9716 16.2832 87.9717 16.2831C87.9717 16.2831 87.9717 16.283 87.9717 16.283C87.9718 16.283 87.9718 16.2829 87.9718 16.2829C87.9718 16.2829 87.9718 16.2828 87.9719 16.2828C87.9719 16.2828 87.9719 16.2827 87.9719 16.2827C87.9719 16.2827 87.972 16.2826 87.972 16.2826C87.972 16.2826 87.972 16.2825 87.972 16.2825C87.972 16.2825 87.9721 16.2825 87.9721 16.2824C87.9721 16.2824 87.9721 16.2824 87.9721 16.2824C87.9721 16.2823 87.9722 16.2823 87.9722 16.2823C87.9722 16.2823 87.9722 16.2822 87.9722 16.2822C87.9722 16.2822 87.9722 16.2822 87.9722 16.2822C87.9723 16.2821 87.9723 16.2821 87.9723 16.2821C87.9723 16.2821 87.9723 16.2821 87.9723 16.282C87.9723 16.282 87.9723 16.282 87.9723 16.282C87.9724 16.282 87.9724 16.282 87.9724 16.282C87.9724 16.2819 87.9724 16.2819 87.9724 16.2819C87.9724 16.2819 87.9724 16.2819 87.9724 16.2819C87.9724 16.2819 87.9724 16.2818 87.9724 16.2818C87.9724 16.2818 87.9725 16.2818 87.9725 16.2818C87.9725 16.2818 87.9725 16.2818 87.9725 16.2818C87.9725 16.2818 87.9725 16.2818 87.9725 16.2817C87.9725 16.2817 87.9725 16.2817 87.9725 16.2817C87.9725 16.2817 87.9725 16.2817 87.9725 16.2817C87.9725 16.2817 87.9725 16.2817 87.9725 16.2817C87.9725 16.2817 87.9725 16.2817 87.9725 16.2817C87.9725 16.2817 87.9725 16.2817 87.9725 16.2817C87.9725 16.2816 87.9725 16.2816 87.9726 16.2816C87.9726 16.2816 87.9726 16.2816 87.9726 16.2816C87.9726 16.2816 87.9726 16.2816 87.9726 16.2816C87.9726 16.2816 87.9726 16.2816 87.9726 16.2816C87.9726 16.2816 87.9726 16.2816 87.9726 16.2816C87.9726 16.2816 87.9726 16.2816 87.9726 16.2816C87.9726 16.2816 87.9726 16.2816 87.9726 16.2816C87.9726 16.2816 87.9726 16.2816 87.9726 16.2816C87.9726 16.2816 87.9726 16.2816 87.9726 16.2816C87.9726 16.2816 87.9726 16.2816 87.9726 16.2816V16.2816L86.9009 15.6382ZM83.7757 18.4173L82.4257 20.461L84.5117 21.839L85.8617 19.7952L83.7757 18.4173ZM82.5844 20.2666L63.5907 39.2791L65.3593 41.046L84.3531 22.0334L82.5844 20.2666ZM65.2125 39.1533C63.2059 37.6869 61.0813 36.3925 58.8388 35.2906L57.7362 37.5344C59.8437 38.57 61.8441 39.7881 63.7375 41.1717L65.2125 39.1533ZM58.8421 35.2923C52.5633 32.184 44.8833 34.5302 41.294 40.5742L43.4435 41.8508C46.3792 36.9073 52.6492 35.0161 57.7329 37.5328L58.8421 35.2923ZM41.2921 40.5774C39.0222 44.4256 35.6365 47.4739 31.56 49.3173L32.59 51.5952C37.1384 49.5385 40.9153 46.1369 43.4454 41.8476L41.2921 40.5774ZM31.56 49.3173L18.6225 55.1673L19.6525 57.4452L32.59 51.5952L31.56 49.3173ZM18.6204 55.1682C9.78171 59.184 5.84408 69.6175 9.86194 78.4608L12.138 77.4267C8.69339 69.845 12.0683 60.891 19.6545 57.4443L18.6204 55.1682ZM9.8592 78.4547C10.7304 80.3997 11.9633 82.156 13.4536 83.6464L15.2214 81.8786C13.9367 80.5939 12.8821 79.0878 12.1408 77.4328L9.8592 78.4547ZM13.4536 83.6464L30.0849 100.278L31.8526 98.5099L15.2214 81.8786L13.4536 83.6464ZM30.0849 100.278C38.9281 109.121 53.6584 106.089 58.5846 95.0858L56.3029 94.0642C52.0791 103.499 39.4344 106.092 31.8526 98.5099L30.0849 100.278ZM58.5488 95.1592C59.8278 92.7401 60.8336 90.4046 61.7584 88.2081C62.6896 85.9964 63.5282 83.9524 64.4966 82.0315C66.4086 78.239 68.7866 75.0113 73.1733 72.42L71.9017 70.2675C66.9884 73.1699 64.3226 76.8234 62.2643 80.906C61.2476 82.9226 60.3694 85.0645 59.4543 87.238C58.5328 89.4266 57.5628 91.6755 56.3387 93.9907L58.5488 95.1592ZM73.173 72.4201C79.2219 68.8486 81.5651 61.1473 78.4577 54.8704L76.2172 55.9796C78.7349 61.0652 76.8406 67.3514 71.902 70.2674L73.173 72.4201ZM78.4575 54.8699C77.3564 52.6484 76.0617 50.5227 74.5734 48.5124L72.5641 50C73.9633 51.8898 75.1811 53.889 76.2175 55.9801L78.4575 54.8699ZM74.4526 50.1401L93.4651 31.1276L91.6974 29.3599L72.6849 48.3723L74.4526 50.1401ZM93.2724 31.2853L95.3349 29.9165L93.9526 27.8335L91.8901 29.2022L93.2724 31.2853ZM95.5166 29.7697C95.7882 29.5048 96.5017 29.0168 97.266 28.5364C97.6243 28.3112 97.9605 28.108 98.2075 27.9609C98.3308 27.8875 98.4313 27.8283 98.5005 27.7878C98.5352 27.7676 98.562 27.752 98.5798 27.7416C98.5888 27.7364 98.5955 27.7325 98.5998 27.73C98.602 27.7287 98.6036 27.7278 98.6046 27.7273C98.6051 27.727 98.6054 27.7268 98.6056 27.7267C98.6057 27.7266 98.6057 27.7266 98.6057 27.7266C98.6058 27.7266 98.6057 27.7266 98.6057 27.7266C98.6057 27.7266 98.6057 27.7266 97.9812 26.6438C97.3568 25.5609 97.3568 25.5609 97.3567 25.561C97.3567 25.561 97.3566 25.561 97.3565 25.5611C97.3564 25.5612 97.3562 25.5613 97.356 25.5614C97.3555 25.5616 97.3549 25.562 97.3542 25.5624C97.3527 25.5633 97.3506 25.5645 97.3479 25.5661C97.3425 25.5692 97.3347 25.5737 97.3246 25.5796C97.3045 25.5912 97.2753 25.6082 97.2382 25.6299C97.164 25.6733 97.0578 25.7358 96.9282 25.813C96.6696 25.967 96.3155 26.181 95.9356 26.4198C95.2233 26.8676 94.2681 27.4952 93.7708 27.9803L95.5166 29.7697ZM98.6683 27.688L100.806 26.2818L99.4317 24.1932L97.2942 25.5995L98.6683 27.688ZM101.003 26.1214C101.257 25.8673 101.611 25.6268 102.174 25.2668C102.709 24.9252 103.386 24.5034 104.113 23.935L102.574 21.965C101.958 22.4465 101.388 22.803 100.829 23.1598C100.299 23.4982 99.7121 23.8764 99.2349 24.3536L101.003 26.1214ZM94.374 14.0668C94.1405 14.4004 93.6806 14.5261 93.2881 14.2906L94.5744 12.1469C93.8069 11.6864 92.8219 11.9246 92.326 12.6332L94.374 14.0668ZM93.0474 14.1026C93.0855 14.1407 93.1201 14.1707 93.1462 14.1921C93.1726 14.2138 93.1959 14.2313 93.213 14.2437C93.2302 14.2563 93.245 14.2664 93.2547 14.2731C93.2641 14.2794 93.2727 14.2852 93.2753 14.2869C93.2797 14.2899 93.2781 14.2888 93.2757 14.2871C93.2728 14.2852 93.2648 14.2797 93.254 14.2718C93.2433 14.2641 93.2262 14.2513 93.2055 14.2343C93.1851 14.2176 93.1558 14.1923 93.1224 14.1589L94.8901 12.3911C94.852 12.353 94.8174 12.323 94.7913 12.3016C94.7649 12.2799 94.7416 12.2625 94.7245 12.25C94.7073 12.2375 94.6925 12.2273 94.6827 12.2207C94.6734 12.2143 94.6648 12.2086 94.6622 12.2068C94.6577 12.2039 94.6593 12.2049 94.6618 12.2066C94.6646 12.2086 94.6727 12.2141 94.6835 12.2219C94.6941 12.2297 94.7113 12.2424 94.732 12.2595C94.7524 12.2762 94.7817 12.3014 94.8151 12.3349L93.0474 14.1026ZM93.1014 14.1374C96.1693 17.3563 97.8741 18.9525 98.7759 19.8119C99.0016 20.027 99.162 20.1818 99.2797 20.3018C99.3374 20.3607 99.3781 20.4044 99.4066 20.4368C99.4357 20.4699 99.4445 20.4826 99.4423 20.4795C99.4401 20.4763 99.3508 20.3519 99.3247 20.1384C99.2978 19.9192 99.3575 19.7636 99.3608 19.7548L101.702 20.6327C101.761 20.4739 101.85 20.1894 101.806 19.8344C101.763 19.4853 101.612 19.2183 101.485 19.0379C101.272 18.7357 100.907 18.389 100.501 18.0021C99.6072 17.1507 97.937 15.5874 94.9111 12.4126L93.1014 14.1374ZM101.415 19.3099C101.055 18.9497 100.628 18.9421 100.52 18.9427C100.368 18.9436 100.25 18.9724 100.202 18.985C100.096 19.0129 100.015 19.0491 99.9855 19.0623C99.9127 19.0949 99.8455 19.1319 99.8023 19.1563C99.7063 19.2105 99.5869 19.2834 99.4587 19.3641C99.1968 19.5287 98.8364 19.7639 98.4165 20.0422C97.5741 20.6005 96.4622 21.3523 95.3538 22.1064C94.2445 22.8612 93.1351 23.621 92.2962 24.1965C91.8767 24.4844 91.5248 24.7262 91.2743 24.8984C91.1489 24.9845 91.0493 25.053 90.9791 25.1012C90.9019 25.1543 90.8728 25.1741 90.8754 25.1724L92.2621 27.2526C92.3227 27.2122 94.5648 25.6671 96.7602 24.1733C97.8667 23.4204 98.9684 22.6756 99.7977 22.126C100.214 21.8503 100.554 21.6286 100.789 21.4807C100.909 21.4051 100.988 21.3578 101.03 21.3339C101.057 21.3191 101.044 21.3275 101.01 21.3428C101 21.3473 100.933 21.3777 100.839 21.4026C100.797 21.4137 100.684 21.4418 100.535 21.4426C100.43 21.4432 100.006 21.4363 99.6474 21.0776L101.415 19.3099ZM92.4526 25.3286L88.3839 21.2599L86.6161 23.0276L90.6849 27.0964L92.4526 25.3286ZM88.5407 22.8361L94.3907 14.0424L92.3092 12.6577L86.4592 21.4514L88.5407 22.8361ZM72.6934 57.7443C74.3066 60.9866 73.0952 65.0234 69.8961 66.9109L71.1664 69.0641C75.4673 66.5265 77.1434 61.0759 74.9316 56.6306L72.6934 57.7443ZM69.8959 66.911C64.2862 70.2218 61.1982 74.3939 58.9052 78.8586C57.7699 81.0694 56.8228 83.3658 55.8733 85.6286C54.9171 87.9074 53.953 90.1661 52.7607 92.3908L54.9642 93.5717C56.2188 91.2308 57.2235 88.8723 58.1786 86.5959C59.1404 84.3037 60.0473 82.1072 61.1291 80.0007C63.2706 75.831 66.07 72.0719 71.1666 69.064L69.8959 66.911ZM52.7231 92.467C49.5191 99.5664 40.1764 101.321 34.6089 95.7536L32.8411 97.5214C39.6486 104.329 51.0808 102.184 55.0018 93.4954L52.7231 92.467ZM34.6089 95.7536L17.9776 79.1224L16.2099 80.8901L32.8411 97.5214L34.6089 95.7536ZM17.9776 79.1224C12.4444 73.5892 14.15 64.228 21.2654 61.0075L20.2346 58.7299C11.525 62.672 9.44304 74.1233 16.2099 80.8901L17.9776 79.1224ZM21.265 61.0077L34.2025 55.1577L33.1725 52.8798L20.235 58.7298L21.265 61.0077ZM34.2003 55.1587C39.4826 52.7827 43.878 48.8174 46.8201 43.8356L44.6674 42.5644C41.9844 47.1075 37.9799 50.7173 33.1747 52.8787L34.2003 55.1587ZM46.8189 43.8375C48.7057 40.6557 52.7458 39.441 55.9913 41.0401L57.0962 38.7975C52.6542 36.609 47.2068 38.2818 44.6686 42.5624L46.8189 43.8375ZM55.9894 41.0391C57.7136 41.8921 59.3623 42.8707 60.9371 43.9929L62.3879 41.957C60.7001 40.7542 58.9364 39.7079 57.098 38.7984L55.9894 41.0391ZM60.7786 42.0911L56.2599 46.6098L58.0276 48.3776L62.5464 43.8589L60.7786 42.0911ZM56.2533 46.6165C53.278 49.6365 53.2967 54.4968 56.3227 57.4779L58.0773 55.697C56.0407 53.6907 56.022 50.4134 58.0342 48.371L56.2533 46.6165ZM56.3228 57.478C59.3219 60.4323 64.1344 60.4323 67.1335 57.478L65.379 55.697C63.3531 57.6926 60.1031 57.6926 58.0772 55.697L56.3228 57.478ZM67.1401 57.4714L71.6589 52.9526L69.8911 51.1848L65.3724 55.7036L67.1401 57.4714ZM69.746 52.7784C70.8428 54.3687 71.8418 56.0231 72.6921 57.7418L74.9329 56.6332C74.0207 54.7894 72.9572 53.0312 71.804 51.3591L69.746 52.7784ZM62.5958 52.9305C62.086 53.421 61.2765 53.421 60.7667 52.9305L59.0333 54.7319C60.511 56.1539 62.8515 56.1539 64.3292 54.7319L62.5958 52.9305ZM60.7839 52.9473C60.297 52.4605 60.297 51.6395 60.7839 51.1526L59.0161 49.3848C57.553 50.848 57.553 53.252 59.0161 54.7151L60.7839 52.9473ZM60.7839 51.1526L85.8901 26.0464L84.1224 24.2786L59.0161 49.3848L60.7839 51.1526ZM84.1224 26.0464L87.6849 29.6089L89.4526 27.8411L85.8901 24.2786L84.1224 26.0464ZM87.6849 27.8411L62.5786 52.9473L64.3464 54.7151L89.4526 29.6089L87.6849 27.8411ZM87.489 12.8171C86.8256 13.59 86.4164 14.1223 86.1662 14.4747C86.0408 14.6513 85.9535 14.7851 85.8932 14.8837C85.863 14.9331 85.8392 14.9742 85.8206 15.0079C85.8112 15.0247 85.8031 15.0398 85.7961 15.0533C85.7926 15.06 85.7893 15.0663 85.7863 15.0723C85.7848 15.0753 85.7834 15.0781 85.782 15.0809C85.7813 15.0823 85.7806 15.0837 85.78 15.085C85.7796 15.0857 85.7793 15.0864 85.779 15.087C85.7788 15.0874 85.7786 15.0878 85.7785 15.088C85.7782 15.0885 85.778 15.089 86.9009 15.6382C88.0238 16.1874 88.0236 16.1878 88.0233 16.1883C88.0232 16.1885 88.023 16.189 88.0229 16.1893C88.0225 16.1899 88.0222 16.1905 88.0219 16.1911C88.0213 16.1924 88.0207 16.1936 88.0202 16.1947C88.019 16.197 88.018 16.1991 88.017 16.2011C88.015 16.205 88.0133 16.2083 88.0119 16.211C88.0091 16.2164 88.0075 16.2192 88.0074 16.2193C88.0073 16.2196 88.0128 16.2096 88.0258 16.1883C88.0521 16.1454 88.107 16.0594 88.2045 15.9222C88.4 15.6469 88.7591 15.1757 89.386 14.4454L87.489 12.8171Z" fill="#02000C" mask="url(#path-2-outside-1_991_756)"/>
<path d="M38.8625 60.4312C34.9466 64.501 35.0136 70.9856 39.0242 74.977C43.0835 79.0357 49.6755 79.0155 53.7145 74.9571C57.7723 70.8987 57.7723 64.3262 53.7144 60.2678C49.6748 56.209 43.1027 56.1904 39.0255 60.228L38.8625 60.3894V60.4312ZM50.1783 63.8186L50.1799 63.8202C52.2711 65.9114 52.2711 69.3307 50.1627 71.422C48.0515 73.5162 44.6497 73.5139 42.5592 71.4064C40.4651 69.2952 40.4673 65.8935 42.5748 63.803C44.686 61.7088 48.0878 61.7111 50.1783 63.8186ZM23.3205 74.2543L23.3204 74.2544L23.3299 74.2639L23.358 74.2921L23.3861 74.3202L23.3861 74.3202L39.6754 90.6095C40.6394 91.6161 42.2216 91.6333 43.2231 90.6795C44.2348 89.716 44.2537 88.1301 43.2983 87.127L43.2984 87.1268L43.2889 87.1174L43.2608 87.0892L43.2327 87.0611L26.9434 70.7718C25.9794 69.7652 24.3972 69.748 23.3957 70.7017C22.384 71.6653 22.3651 73.2511 23.3205 74.2543Z" fill="#02000C" stroke="#02000C" stroke-width="1.1"/>
</svg>
