<svg width="22" height="22" viewBox="0 0 22 22" fill="none" xmlns="http://www.w3.org/2000/svg">
<path d="M19.9649 4.29246L17.3499 1.67996C17.0307 1.36076 16.6035 1.18152 16.1517 1.18152C15.6999 1.18152 15.2727 1.3583 14.9535 1.67996L12.1372 4.49134C11.818 4.81054 11.6388 5.24022 11.6388 5.69201C11.6388 6.14625 11.8156 6.57103 12.1372 6.89268L14.3372 9.09514C13.836 10.2629 13.1159 11.3239 12.2158 12.2208C11.3147 13.1268 10.2613 13.8413 9.09257 14.3471L6.89257 12.1447C6.57338 11.8255 6.14614 11.6463 5.69436 11.6463C5.47152 11.6454 5.25075 11.6891 5.045 11.7747C4.83925 11.8603 4.65265 11.9861 4.49614 12.1447L1.67739 14.9561C1.3582 15.2753 1.17896 15.705 1.17896 16.1567C1.17896 16.611 1.35574 17.0358 1.67739 17.3574L4.28989 19.9699C4.83498 20.515 5.58632 20.8268 6.3573 20.8268C6.5169 20.8268 6.67159 20.8146 6.82873 20.7875C10.0796 20.2523 13.306 18.5213 15.9111 15.9186C18.5138 13.311 20.2424 10.0846 20.7825 6.8313C20.9372 5.90808 20.6278 4.95786 19.9649 4.29246ZM19.0417 6.53911C18.5629 9.43398 17.0062 12.3215 14.6613 14.6663C12.3165 17.0112 9.43141 18.5679 6.53655 19.0467C6.17315 19.1081 5.79994 18.9853 5.53476 18.7226L2.96891 16.1567L5.68945 13.4338L8.63096 16.3802L8.65306 16.4023L9.18342 16.2059C10.7915 15.6146 12.2518 14.6808 13.4631 13.4691C14.6744 12.2573 15.6077 10.7967 16.1984 9.18844L16.3948 8.65808L13.4287 5.69447L16.1493 2.97147L18.7151 5.53732C18.9803 5.8025 19.1031 6.17572 19.0417 6.53911Z" fill="#141414"/>
</svg>
