<svg width="32" height="32" viewBox="0 0 32 32" fill="none" xmlns="http://www.w3.org/2000/svg">
<path d="M28.8422 21.9344H10.2328L11.1672 20.0312L26.6922 20.0031C27.2172 20.0031 27.6672 19.6281 27.7609 19.1094L29.9109 7.075C29.9672 6.75937 29.8828 6.43437 29.6766 6.1875C29.5746 6.066 29.4475 5.96813 29.3039 5.90068C29.1604 5.83323 29.0039 5.79781 28.8453 5.79687L9.09531 5.73125L8.92656 4.9375C8.82031 4.43125 8.36406 4.0625 7.84531 4.0625H3.01719C2.72462 4.0625 2.44404 4.17872 2.23716 4.3856C2.03028 4.59247 1.91406 4.87306 1.91406 5.16562C1.91406 5.45819 2.03028 5.73878 2.23716 5.94565C2.44404 6.15253 2.72462 6.26875 3.01719 6.26875H6.95156L7.68906 9.775L9.50469 18.5656L7.16719 22.3812C7.0458 22.5451 6.97268 22.7396 6.95611 22.9429C6.93955 23.1461 6.98019 23.3499 7.07344 23.5312C7.26094 23.9031 7.63906 24.1375 8.05781 24.1375H10.0203C9.60193 24.6932 9.37595 25.37 9.37656 26.0656C9.37656 27.8344 10.8141 29.2719 12.5828 29.2719C14.3516 29.2719 15.7891 27.8344 15.7891 26.0656C15.7891 25.3687 15.5578 24.6906 15.1453 24.1375H20.1797C19.7613 24.6932 19.5353 25.37 19.5359 26.0656C19.5359 27.8344 20.9734 29.2719 22.7422 29.2719C24.5109 29.2719 25.9484 27.8344 25.9484 26.0656C25.9484 25.3687 25.7172 24.6906 25.3047 24.1375H28.8453C29.4516 24.1375 29.9484 23.6437 29.9484 23.0344C29.9466 22.7421 29.8293 22.4624 29.622 22.2564C29.4148 22.0503 29.1345 21.9345 28.8422 21.9344ZM9.55469 7.90625L27.5484 7.96562L25.7859 17.8344L11.6516 17.8594L9.55469 7.90625ZM12.5828 27.0531C12.0391 27.0531 11.5953 26.6094 11.5953 26.0656C11.5953 25.5219 12.0391 25.0781 12.5828 25.0781C13.1266 25.0781 13.5703 25.5219 13.5703 26.0656C13.5703 26.3275 13.4663 26.5787 13.2811 26.7639C13.0959 26.9491 12.8447 27.0531 12.5828 27.0531ZM22.7422 27.0531C22.1984 27.0531 21.7547 26.6094 21.7547 26.0656C21.7547 25.5219 22.1984 25.0781 22.7422 25.0781C23.2859 25.0781 23.7297 25.5219 23.7297 26.0656C23.7297 26.3275 23.6256 26.5787 23.4405 26.7639C23.2553 26.9491 23.0041 27.0531 22.7422 27.0531Z" fill="white"/>
</svg>
