<svg width="22" height="22" viewBox="0 0 22 22" fill="none" xmlns="http://www.w3.org/2000/svg">
<path d="M20.0852 5.11255V1.96723C20.0852 1.53263 19.7341 1.18152 19.2995 1.18152H2.70129C2.26669 1.18152 1.91558 1.53263 1.91558 1.96723V5.11255C1.50553 5.1371 1.17897 5.47839 1.17897 5.8958V9.12951C1.1774 9.72382 1.29773 10.3121 1.53254 10.8581C1.63812 11.1085 1.76826 11.3442 1.91558 11.5677V20.0387C1.91558 20.4708 2.26669 20.8244 2.70129 20.8244H19.2995C19.7341 20.8244 20.0852 20.4733 20.0852 20.0387V11.5677C20.2349 11.3437 20.3631 11.1061 20.4683 10.8581C20.7015 10.3105 20.8218 9.72862 20.8218 9.12951V5.8958C20.8218 5.47839 20.4953 5.1371 20.0852 5.11255ZM3.68343 2.94938H18.3174V5.11009H3.68343V2.94938ZM12.5718 19.059H9.42897V16.5029H12.5718V19.059ZM18.3174 19.059H14.1433V15.7172C14.1433 15.2826 13.7921 14.9315 13.3575 14.9315H8.64326C8.20866 14.9315 7.85754 15.2826 7.85754 15.7172V19.059H3.68343V13.1121C3.75464 13.1465 3.8283 13.1809 3.90442 13.2103C4.45196 13.4411 5.03388 13.5565 5.63299 13.5565C6.2321 13.5565 6.81156 13.4411 7.36156 13.2103C7.7004 13.0679 8.0196 12.8862 8.31178 12.6677C8.31669 12.6652 8.3216 12.6652 8.32652 12.6677C8.61961 12.8871 8.93879 13.0694 9.27674 13.2103C9.82428 13.4411 10.4062 13.5565 11.0053 13.5565C11.6044 13.5565 12.1839 13.4411 12.7339 13.2103C13.0727 13.0679 13.3919 12.8862 13.6841 12.6677C13.689 12.6652 13.6939 12.6652 13.6988 12.6677C13.9919 12.8871 14.3111 13.0694 14.6491 13.2103C15.1966 13.4411 15.7785 13.5565 16.3776 13.5565C16.9767 13.5565 17.5562 13.4411 18.1062 13.2103C18.1799 13.1784 18.2535 13.1465 18.3272 13.1121V19.059H18.3174ZM19.054 9.12951C19.054 10.5978 17.8508 11.7887 16.3703 11.7887C15.3685 11.7887 14.4944 11.246 14.0328 10.4407C13.9616 10.3179 13.8339 10.2418 13.6915 10.2418H13.6767C13.5368 10.2418 13.4066 10.3179 13.3354 10.4407C13.0999 10.8515 12.7597 11.1926 12.3496 11.4294C11.9395 11.6662 11.474 11.7901 11.0004 11.7887C10.0011 11.7887 9.12942 11.2485 8.66781 10.4456C8.59415 10.3204 8.46156 10.2418 8.31669 10.2418C8.17183 10.2418 8.03678 10.3204 7.96558 10.4456C7.72864 10.8548 7.38806 11.1944 6.97814 11.4302C6.56822 11.666 6.10342 11.7896 5.63053 11.7887C4.14995 11.7887 2.94683 10.5978 2.94683 9.12951V6.89022C2.94683 6.88286 2.95174 6.87795 2.9591 6.87795H19.0417C19.0491 6.87795 19.054 6.88286 19.054 6.89022V9.12951Z" fill="#141414"/>
</svg>
